Ramabhadra.ufo
<glyph name="exclam" format="1">
  <advance width="213"/>
  <unicode hex="0021"/>
  <outline>
    <contour>
      <point x="149" y="0" type="line" name="hr00"/>
      <point x="149" y="88" type="line"/>
      <point x="60" y="88" type="line"/>
      <point x="60" y="0" type="line"/>
    </contour>
    <contour>
      <point x="129" y="118" type="line"/>
      <point x="152" y="353" type="line"/>
      <point x="152" y="461" type="line"/>
      <point x="56" y="461" type="line"/>
      <point x="56" y="353" type="line"/>
      <point x="79" y="118" type="line"/>
    </contour>
  </outline>
</glyph>
<glyph name="quotedbl" format="1">
  <advance width="304"/>
  <unicode hex="0022"/>
  <outline>
    <contour>
      <point x="257" y="297" type="line" name="hr00"/>
      <point x="272" y="384" type="line"/>
      <point x="272" y="461" type="line"/>
      <point x="176" y="461" type="line"/>
      <point x="176" y="384" type="line"/>
      <point x="193" y="297" type="line"/>
    </contour>
    <contour>
      <point x="115" y="297" type="line"/>
      <point x="130" y="384" type="line"/>
      <point x="130" y="461" type="line"/>
      <point x="34" y="461" type="line"/>
      <point x="34" y="384" type="line"/>
      <point x="51" y="297" type="line"/>
    </contour>
  </outline>
</glyph>
<glyph name="numbersign" format="1">
  <advance width="357"/>
  <unicode hex="0023"/>
  <outline>
    <contour>
      <point x="220" y="276" type="line" name="hr00"/>
      <point x="201" y="184" type="line"/>
      <point x="132" y="184" type="line"/>
      <point x="150" y="276" type="line"/>
    </contour>
    <contour>
      <point x="21" y="-7" type="line"/>
      <point x="93" y="-7" type="line"/>
      <point x="118" y="115" type="line"/>
      <point x="188" y="115" type="line"/>
      <point x="163" y="-7" type="line"/>
      <point x="233" y="-7" type="line"/>
      <point x="258" y="115" type="line"/>
      <point x="349" y="115" type="line"/>
      <point x="349" y="184" type="line"/>
      <point x="273" y="184" type="line"/>
      <point x="291" y="276" type="line"/>
      <point x="349" y="276" type="line"/>
      <point x="349" y="347" type="line"/>
      <point x="306" y="347" type="line"/>
      <point x="331" y="469" type="line"/>
      <point x="258" y="469" type="line"/>
      <point x="233" y="347" type="line"/>
      <point x="164" y="347" type="line"/>
      <point x="189" y="469" type="line"/>
      <point x="119" y="469" type="line"/>
      <point x="94" y="347" type="line"/>
      <point x="4" y="347" type="line"/>
      <point x="4" y="276" type="line"/>
      <point x="79" y="276" type="line"/>
      <point x="61" y="184" type="line"/>
      <point x="4" y="184" type="line"/>
      <point x="4" y="115" type="line"/>
      <point x="47" y="115" type="line"/>
    </contour>
  </outline>
</glyph>
<glyph name="dollar" format="1">
  <advance width="357"/>
  <unicode hex="0024"/>
  <outline>
    <contour>
      <point x="198" y="186" type="line" name="hr00"/>
      <point x="233" y="176"/>
      <point x="251" y="156"/>
      <point x="251" y="127" type="curve" smooth="yes"/>
      <point x="251" y="92"/>
      <point x="233" y="71"/>
      <point x="198" y="64" type="curve"/>
    </contour>
    <contour>
      <point x="152" y="290" type="line"/>
      <point x="125" y="301"/>
      <point x="111" y="319"/>
      <point x="111" y="344" type="curve" smooth="yes"/>
      <point x="111" y="371"/>
      <point x="125" y="389"/>
      <point x="152" y="398" type="curve"/>
    </contour>
    <contour>
      <point x="152" y="68" type="line"/>
      <point x="126" y="81"/>
      <point x="109" y="105"/>
      <point x="101" y="138" type="curve"/>
      <point x="20" y="130" type="line"/>
      <point x="33" y="47"/>
      <point x="77" y="2"/>
      <point x="152" y="-7" type="curve"/>
      <point x="152" y="-64" type="line"/>
      <point x="198" y="-64" type="line"/>
      <point x="198" y="-6" type="line"/>
      <point x="277" y="5"/>
      <point x="327" y="59"/>
      <point x="327" y="138" type="curve" smooth="yes"/>
      <point x="327" y="207"/>
      <point x="284" y="253"/>
      <point x="198" y="275" type="curve"/>
      <point x="198" y="397" type="line"/>
      <point x="217" y="389"/>
      <point x="230" y="373"/>
      <point x="235" y="348" type="curve"/>
      <point x="315" y="358" type="line"/>
      <point x="304" y="423"/>
      <point x="265" y="459"/>
      <point x="198" y="468" type="curve"/>
      <point x="198" y="498" type="line"/>
      <point x="152" y="498" type="line"/>
      <point x="152" y="468" type="line"/>
      <point x="80" y="461"/>
      <point x="32" y="412"/>
      <point x="32" y="341" type="curve" smooth="yes"/>
      <point x="32" y="270"/>
      <point x="72" y="223"/>
      <point x="152" y="200" type="curve"/>
    </contour>
  </outline>
</glyph>
<glyph name="percent" format="1">
  <advance width="572"/>
  <unicode hex="0025"/>
  <outline>
    <contour>
      <point x="407" y="104" type="curve" smooth="yes" name="hr00"/>
      <point x="407" y="151"/>
      <point x="418" y="175"/>
      <point x="439" y="175" type="curve" smooth="yes"/>
      <point x="460" y="175"/>
      <point x="471" y="151"/>
      <point x="471" y="104" type="curve" smooth="yes"/>
      <point x="471" y="56"/>
      <point x="460" y="32"/>
      <point x="439" y="32" type="curve" smooth="yes"/>
      <point x="418" y="32"/>
      <point x="407" y="56"/>
    </contour>
    <contour>
      <point x="338" y="104" type="curve" smooth="yes"/>
      <point x="338" y="22"/>
      <point x="373" y="-19"/>
      <point x="442" y="-19" type="curve" smooth="yes"/>
      <point x="508" y="-19"/>
      <point x="541" y="22"/>
      <point x="541" y="104" type="curve" smooth="yes"/>
      <point x="541" y="185"/>
      <point x="507" y="225"/>
      <point x="440" y="225" type="curve" smooth="yes"/>
      <point x="372" y="225"/>
      <point x="338" y="185"/>
    </contour>
    <contour>
      <point x="439" y="469" type="line"/>
      <point x="375" y="469" type="line"/>
      <point x="131" y="-17" type="line"/>
      <point x="195" y="-17" type="line"/>
    </contour>
    <contour>
      <point x="96" y="348" type="curve" smooth="yes"/>
      <point x="96" y="395"/>
      <point x="107" y="419"/>
      <point x="128" y="419" type="curve" smooth="yes"/>
      <point x="149" y="419"/>
      <point x="160" y="395"/>
      <point x="160" y="348" type="curve" smooth="yes"/>
      <point x="160" y="300"/>
      <point x="149" y="276"/>
      <point x="128" y="276" type="curve" smooth="yes"/>
      <point x="107" y="276"/>
      <point x="96" y="300"/>
    </contour>
    <contour>
      <point x="27" y="348" type="curve" smooth="yes"/>
      <point x="27" y="267"/>
      <point x="61" y="226"/>
      <point x="129" y="226" type="curve" smooth="yes"/>
      <point x="197" y="226"/>
      <point x="231" y="267"/>
      <point x="231" y="348" type="curve" smooth="yes"/>
      <point x="231" y="429"/>
      <point x="197" y="469"/>
      <point x="128" y="469" type="curve" smooth="yes"/>
      <point x="61" y="469"/>
      <point x="27" y="429"/>
    </contour>
  </outline>
</glyph>
<glyph name="ampersand" format="1">
  <advance width="771"/>
  <unicode hex="0026"/>
  <outline>
    <contour>
      <point x="448" y="130" type="line" name="hr00"/>
      <point x="397" y="102"/>
      <point x="352" y="88"/>
      <point x="314" y="88" type="curve" smooth="yes"/>
      <point x="275" y="88"/>
      <point x="242" y="98"/>
      <point x="216" y="119" type="curve" smooth="yes"/>
      <point x="190" y="140"/>
      <point x="177" y="165"/>
      <point x="177" y="194" type="curve" smooth="yes"/>
      <point x="177" y="247"/>
      <point x="206" y="281"/>
      <point x="265" y="294" type="curve"/>
    </contour>
    <contour>
      <point x="356" y="465" type="curve" smooth="yes"/>
      <point x="356" y="434"/>
      <point x="335" y="410"/>
      <point x="294" y="391" type="curve"/>
      <point x="268" y="416"/>
      <point x="254" y="439"/>
      <point x="255" y="460" type="curve" smooth="yes"/>
      <point x="257" y="496"/>
      <point x="279" y="519"/>
      <point x="311" y="519" type="curve" smooth="yes"/>
      <point x="341" y="519"/>
      <point x="356" y="501"/>
    </contour>
    <contour>
      <point x="728" y="1" type="line"/>
      <point x="648" y="78"/>
      <point x="602" y="121"/>
      <point x="591" y="128" type="curve"/>
      <point x="615" y="165"/>
      <point x="630" y="209"/>
      <point x="627" y="260" type="curve" smooth="yes"/>
      <point x="624" y="308" type="line"/>
      <point x="503" y="308" type="line"/>
      <point x="508" y="293"/>
      <point x="511" y="281"/>
      <point x="511" y="270" type="curve" smooth="yes"/>
      <point x="511" y="241"/>
      <point x="507" y="218"/>
      <point x="499" y="201" type="curve"/>
      <point x="446" y="256"/>
      <point x="398" y="300"/>
      <point x="355" y="334" type="curve"/>
      <point x="436" y="361"/>
      <point x="477" y="409"/>
      <point x="477" y="476" type="curve" smooth="yes"/>
      <point x="477" y="560"/>
      <point x="404" y="605"/>
      <point x="305" y="605" type="curve" smooth="yes"/>
      <point x="249" y="605"/>
      <point x="204" y="591"/>
      <point x="171" y="564" type="curve" smooth="yes"/>
      <point x="140" y="539"/>
      <point x="124" y="510"/>
      <point x="124" y="476" type="curve" smooth="yes"/>
      <point x="124" y="453"/>
      <point x="130" y="432"/>
      <point x="142" y="413" type="curve" smooth="yes"/>
      <point x="150" y="401"/>
      <point x="166" y="383"/>
      <point x="191" y="360" type="curve"/>
      <point x="95" y="339"/>
      <point x="40" y="281"/>
      <point x="40" y="192" type="curve" smooth="yes"/>
      <point x="40" y="129"/>
      <point x="68" y="79"/>
      <point x="125" y="43" type="curve" smooth="yes"/>
      <point x="180" y="7"/>
      <point x="236" y="-6"/>
      <point x="311" y="-6" type="curve" smooth="yes"/>
      <point x="402" y="-6"/>
      <point x="476" y="18"/>
      <point x="525" y="58" type="curve"/>
      <point x="591" y="1" type="line"/>
    </contour>
  </outline>
</glyph>
<glyph name="quotesingle" format="1">
  <advance width="152"/>
  <unicode hex="0027"/>
  <outline>
    <contour>
      <point x="109" y="297" type="line" name="hr00"/>
      <point x="124" y="384" type="line"/>
      <point x="124" y="461" type="line"/>
      <point x="28" y="461" type="line"/>
      <point x="28" y="384" type="line"/>
      <point x="45" y="297" type="line"/>
    </contour>
  </outline>
</glyph>
<glyph name="parenleft" format="1">
  <advance width="255"/>
  <unicode hex="0028"/>
  <outline>
    <contour>
      <point x="220" y="-99" type="line" name="hr00"/>
      <point x="187" y="-93"/>
      <point x="161" y="-65"/>
      <point x="141" y="-16" type="curve" smooth="yes"/>
      <point x="120" y="33"/>
      <point x="110" y="93"/>
      <point x="110" y="162" type="curve" smooth="yes"/>
      <point x="110" y="231"/>
      <point x="120" y="291"/>
      <point x="141" y="341" type="curve" smooth="yes"/>
      <point x="161" y="390"/>
      <point x="187" y="418"/>
      <point x="220" y="423" type="curve"/>
      <point x="220" y="481" type="line"/>
      <point x="169" y="480"/>
      <point x="125" y="448"/>
      <point x="90" y="386" type="curve" smooth="yes"/>
      <point x="55" y="323"/>
      <point x="37" y="249"/>
      <point x="37" y="162" type="curve" smooth="yes"/>
      <point x="37" y="73"/>
      <point x="56" y="-3"/>
      <point x="91" y="-65" type="curve" smooth="yes"/>
      <point x="127" y="-128"/>
      <point x="169" y="-159"/>
      <point x="220" y="-159" type="curve"/>
    </contour>
  </outline>
</glyph>
<glyph name="parenright" format="1">
  <advance width="255"/>
  <unicode hex="0029"/>
  <outline>
    <contour>
      <point x="37" y="-159" type="line" name="hr00"/>
      <point x="88" y="-159"/>
      <point x="129" y="-127"/>
      <point x="165" y="-65" type="curve" smooth="yes"/>
      <point x="201" y="-2"/>
      <point x="220" y="73"/>
      <point x="220" y="162" type="curve" smooth="yes"/>
      <point x="220" y="249"/>
      <point x="203" y="323"/>
      <point x="167" y="386" type="curve" smooth="yes"/>
      <point x="132" y="448"/>
      <point x="88" y="480"/>
      <point x="37" y="481" type="curve"/>
      <point x="37" y="421" type="line"/>
      <point x="69" y="416"/>
      <point x="95" y="388"/>
      <point x="116" y="339" type="curve" smooth="yes"/>
      <point x="137" y="290"/>
      <point x="147" y="231"/>
      <point x="147" y="162" type="curve" smooth="yes"/>
      <point x="147" y="93"/>
      <point x="137" y="33"/>
      <point x="116" y="-16" type="curve" smooth="yes"/>
      <point x="95" y="-65"/>
      <point x="69" y="-92"/>
      <point x="37" y="-97" type="curve"/>
    </contour>
  </outline>
</glyph>
<glyph name="asterisk" format="1">
  <advance width="250"/>
  <unicode hex="002A"/>
  <outline>
    <contour>
      <point x="76" y="249" type="line" name="hr00"/>
      <point x="93" y="274"/>
      <point x="108" y="299"/>
      <point x="120" y="322" type="curve"/>
      <point x="162" y="252" type="line"/>
      <point x="210" y="284" type="line"/>
      <point x="201" y="296"/>
      <point x="195" y="302"/>
      <point x="193" y="303" type="curve"/>
      <point x="156" y="347" type="line"/>
      <point x="187" y="352"/>
      <point x="213" y="356"/>
      <point x="236" y="361" type="curve"/>
      <point x="219" y="419" type="line"/>
      <point x="184" y="404"/>
      <point x="158" y="392"/>
      <point x="140" y="385" type="curve"/>
      <point x="146" y="426"/>
      <point x="149" y="454"/>
      <point x="149" y="469" type="curve"/>
      <point x="93" y="469" type="line"/>
      <point x="93" y="448"/>
      <point x="96" y="420"/>
      <point x="101" y="386" type="curve"/>
      <point x="78" y="399"/>
      <point x="54" y="411"/>
      <point x="27" y="422" type="curve"/>
      <point x="8" y="366" type="line"/>
      <point x="25" y="361"/>
      <point x="52" y="355"/>
      <point x="88" y="347" type="curve"/>
      <point x="69" y="330"/>
      <point x="50" y="309"/>
      <point x="29" y="286" type="curve"/>
    </contour>
  </outline>
</glyph>
<glyph name="plus" format="1">
  <advance width="376"/>
  <unicode hex="002B"/>
  <outline>
    <contour>
      <point x="226" y="67" type="line" name="hr00"/>
      <point x="226" y="186" type="line"/>
      <point x="348" y="186" type="line"/>
      <point x="348" y="269" type="line"/>
      <point x="226" y="269" type="line"/>
      <point x="226" y="389" type="line"/>
      <point x="146" y="389" type="line"/>
      <point x="146" y="269" type="line"/>
      <point x="25" y="269" type="line"/>
      <point x="25" y="186" type="line"/>
      <point x="146" y="186" type="line"/>
      <point x="146" y="67" type="line"/>
    </contour>
  </outline>
</glyph>
<glyph name="comma" format="1">
  <advance width="177"/>
  <unicode hex="002C"/>
  <outline>
    <contour>
      <point x="42" y="0" type="line" name="hr00"/>
      <point x="86" y="0" type="line"/>
      <point x="85" y="-34"/>
      <point x="68" y="-56"/>
      <point x="35" y="-67" type="curve"/>
      <point x="52" y="-102" type="line"/>
      <point x="105" y="-85"/>
      <point x="131" y="-42"/>
      <point x="131" y="25" type="curve" smooth="yes"/>
      <point x="131" y="88" type="line"/>
      <point x="42" y="88" type="line"/>
    </contour>
  </outline>
</glyph>
<glyph name="hyphen" format="1">
  <advance width="213"/>
  <unicode hex="002D"/>
  <outline>
    <contour>
      <point x="193" y="123" type="line" name="hr00"/>
      <point x="193" y="211" type="line"/>
      <point x="19" y="211" type="line"/>
      <point x="19" y="123" type="line"/>
    </contour>
  </outline>
</glyph>
<glyph name="period" format="1">
  <advance width="177"/>
  <unicode hex="002E"/>
  <outline>
    <contour>
      <point x="133" y="0" type="line" name="hr00"/>
      <point x="133" y="88" type="line"/>
      <point x="45" y="88" type="line"/>
      <point x="45" y="0" type="line"/>
    </contour>
  </outline>
</glyph>
<glyph name="slash" format="1">
  <advance width="307"/>
  <unicode hex="002F"/>
  <outline>
    <contour>
      <point x="225" y="623" type="line" name="hr00"/>
      <point x="-33" y="-120" type="line"/>
      <point x="46" y="-120" type="line"/>
      <point x="304" y="629" type="line"/>
    </contour>
  </outline>
</glyph>
<glyph name="zero" format="1">
  <advance width="565"/>
  <unicode hex="0030"/>
  <outline>
    <contour>
      <point x="394" y="255" type="curve" smooth="yes" name="hr00"/>
      <point x="394" y="180"/>
      <point x="386" y="133"/>
      <point x="374" y="102" type="curve"/>
      <point x="360" y="77"/>
      <point x="331" y="64"/>
      <point x="287" y="64" type="curve" smooth="yes"/>
      <point x="242" y="64"/>
      <point x="213" y="77"/>
      <point x="201" y="102" type="curve" smooth="yes"/>
      <point x="189" y="128"/>
      <point x="183" y="179"/>
      <point x="183" y="255" type="curve" smooth="yes"/>
      <point x="183" y="330"/>
      <point x="189" y="381"/>
      <point x="201" y="406" type="curve" smooth="yes"/>
      <point x="214" y="431"/>
      <point x="242" y="444"/>
      <point x="287" y="444" type="curve" smooth="yes"/>
      <point x="333" y="444"/>
      <point x="362" y="430"/>
      <point x="375" y="403" type="curve" smooth="yes"/>
      <point x="388" y="376"/>
      <point x="394" y="327"/>
    </contour>
    <contour>
      <point x="537" y="255" type="curve" smooth="yes"/>
      <point x="537" y="370"/>
      <point x="515" y="444"/>
      <point x="462" y="491" type="curve" smooth="yes"/>
      <point x="424" y="526"/>
      <point x="364" y="542"/>
      <point x="287" y="542" type="curve" smooth="yes"/>
      <point x="210" y="542"/>
      <point x="151" y="526"/>
      <point x="113" y="491" type="curve" smooth="yes"/>
      <point x="63" y="444"/>
      <point x="40" y="364"/>
      <point x="40" y="255" type="curve" smooth="yes"/>
      <point x="40" y="144"/>
      <point x="64" y="65"/>
      <point x="113" y="20" type="curve" smooth="yes"/>
      <point x="152" y="-15"/>
      <point x="210" y="-33"/>
      <point x="287" y="-33" type="curve" smooth="yes"/>
      <point x="365" y="-33"/>
      <point x="423" y="-15"/>
      <point x="462" y="20" type="curve" smooth="yes"/>
      <point x="518" y="71"/>
      <point x="537" y="139"/>
    </contour>
  </outline>
</glyph>
<glyph name="one" format="1">
  <advance width="513"/>
  <unicode hex="0031"/>
  <outline>
    <contour>
      <point x="353" y="531" type="line" name="hr00"/>
      <point x="260" y="531" type="line"/>
      <point x="251" y="478"/>
      <point x="173" y="433"/>
      <point x="40" y="433" type="curve"/>
      <point x="40" y="361" type="line"/>
      <point x="213" y="361" type="line"/>
      <point x="213" y="-16" type="line"/>
      <point x="353" y="-16" type="line"/>
    </contour>
  </outline>
</glyph>
<glyph name="two" format="1">
  <advance width="560"/>
  <unicode hex="0032"/>
  <outline>
    <contour>
      <point x="531" y="369" type="line" smooth="yes" name="hr00"/>
      <point x="531" y="481"/>
      <point x="456" y="542"/>
      <point x="303" y="542" type="curve" smooth="yes"/>
      <point x="124" y="542"/>
      <point x="51" y="476"/>
      <point x="51" y="342" type="curve"/>
      <point x="187" y="342" type="line"/>
      <point x="187" y="417"/>
      <point x="219" y="454"/>
      <point x="284" y="454" type="curve" smooth="yes"/>
      <point x="340" y="454"/>
      <point x="373" y="435"/>
      <point x="383" y="396" type="curve"/>
      <point x="388" y="363" type="line"/>
      <point x="388" y="336"/>
      <point x="374" y="310"/>
      <point x="347" y="286" type="curve"/>
      <point x="275" y="241"/>
      <point x="208" y="202"/>
      <point x="150" y="168" type="curve" smooth="yes"/>
      <point x="105" y="142"/>
      <point x="76" y="110"/>
      <point x="59" y="75" type="curve" smooth="yes"/>
      <point x="50" y="55"/>
      <point x="45" y="31"/>
      <point x="40" y="-16" type="curve"/>
      <point x="529" y="-16" type="line"/>
      <point x="529" y="83" type="line"/>
      <point x="225" y="83" type="line"/>
      <point x="238" y="106"/>
      <point x="282" y="138"/>
      <point x="357" y="178" type="curve" smooth="yes"/>
      <point x="468" y="236"/>
      <point x="526" y="292"/>
      <point x="531" y="345" type="curve"/>
    </contour>
  </outline>
</glyph>
<glyph name="three" format="1">
  <advance width="563"/>
  <unicode hex="0033"/>
  <outline>
    <contour>
      <point x="536" y="126" type="curve" smooth="yes" name="hr00"/>
      <point x="536" y="170"/>
      <point x="529" y="197"/>
      <point x="514" y="218" type="curve" smooth="yes"/>
      <point x="497" y="241"/>
      <point x="470" y="261"/>
      <point x="432" y="278" type="curve"/>
      <point x="485" y="317" type="line"/>
      <point x="499" y="333"/>
      <point x="509" y="353"/>
      <point x="511" y="376" type="curve" smooth="yes"/>
      <point x="513" y="398" type="line"/>
      <point x="513" y="443"/>
      <point x="489" y="479"/>
      <point x="443" y="510" type="curve" smooth="yes"/>
      <point x="413" y="530"/>
      <point x="371" y="542"/>
      <point x="311" y="542" type="curve" smooth="yes"/>
      <point x="250" y="542"/>
      <point x="194" y="537"/>
      <point x="165" y="524" type="curve" smooth="yes"/>
      <point x="110" y="501"/>
      <point x="76" y="472"/>
      <point x="61" y="437" type="curve" smooth="yes"/>
      <point x="54" y="420"/>
      <point x="51" y="394"/>
      <point x="51" y="359" type="curve"/>
      <point x="183" y="359" type="line"/>
      <point x="184" y="378"/>
      <point x="190" y="410"/>
      <point x="198" y="422" type="curve" smooth="yes"/>
      <point x="212" y="445"/>
      <point x="240" y="456"/>
      <point x="281" y="456" type="curve" smooth="yes"/>
      <point x="345" y="456"/>
      <point x="377" y="434"/>
      <point x="377" y="389" type="curve"/>
      <point x="373" y="363" type="line" smooth="yes"/>
      <point x="367" y="322"/>
      <point x="320" y="301"/>
      <point x="231" y="301" type="curve"/>
      <point x="231" y="227" type="line"/>
      <point x="265" y="229" type="line" smooth="yes"/>
      <point x="337" y="233"/>
      <point x="392" y="190"/>
      <point x="392" y="143" type="curve" smooth="yes"/>
      <point x="392" y="116"/>
      <point x="377" y="93"/>
      <point x="348" y="72" type="curve" smooth="yes"/>
      <point x="323" y="54"/>
      <point x="309" y="52"/>
      <point x="294" y="52" type="curve" smooth="yes"/>
      <point x="273" y="52" type="line"/>
      <point x="245" y="59" type="line" smooth="yes"/>
      <point x="217" y="66"/>
      <point x="200" y="78"/>
      <point x="193" y="91" type="curve"/>
      <point x="186" y="100"/>
      <point x="181" y="118"/>
      <point x="176" y="146" type="curve"/>
      <point x="40" y="146" type="line"/>
      <point x="40" y="97"/>
      <point x="58" y="58"/>
      <point x="93" y="28" type="curve" smooth="yes"/>
      <point x="141" y="-13"/>
      <point x="204" y="-33"/>
      <point x="282" y="-33" type="curve" smooth="yes"/>
      <point x="368" y="-33"/>
      <point x="436" y="-15"/>
      <point x="483" y="25" type="curve" smooth="yes"/>
      <point x="519" y="55"/>
      <point x="536" y="87"/>
    </contour>
  </outline>
</glyph>
<glyph name="four" format="1">
  <advance width="573"/>
  <unicode hex="0034"/>
  <outline>
    <contour>
      <point x="142" y="192" type="line" name="hr00"/>
      <point x="329" y="419" type="line"/>
      <point x="329" y="192" type="line"/>
    </contour>
    <contour>
      <point x="546" y="192" type="line"/>
      <point x="471" y="192" type="line"/>
      <point x="471" y="531" type="line"/>
      <point x="305" y="531" type="line"/>
      <point x="40" y="195" type="line"/>
      <point x="40" y="105" type="line"/>
      <point x="329" y="105" type="line"/>
      <point x="329" y="-16" type="line"/>
      <point x="471" y="-16" type="line"/>
      <point x="471" y="105" type="line"/>
      <point x="546" y="105" type="line"/>
    </contour>
  </outline>
</glyph>
<glyph name="five" format="1">
  <advance width="565"/>
  <unicode hex="0035"/>
  <outline>
    <contour>
      <point x="517" y="531" type="line" name="hr00"/>
      <point x="135" y="531" type="line"/>
      <point x="68" y="226" type="line"/>
      <point x="198" y="226" type="line"/>
      <point x="214" y="253"/>
      <point x="241" y="266"/>
      <point x="279" y="266" type="curve" smooth="yes"/>
      <point x="322" y="266"/>
      <point x="355" y="255"/>
      <point x="378" y="234" type="curve" smooth="yes"/>
      <point x="393" y="219"/>
      <point x="401" y="195"/>
      <point x="401" y="164" type="curve" smooth="yes"/>
      <point x="401" y="93"/>
      <point x="365" y="58"/>
      <point x="294" y="58" type="curve" smooth="yes"/>
      <point x="227" y="58"/>
      <point x="191" y="81"/>
      <point x="188" y="126" type="curve"/>
      <point x="48" y="126" type="line"/>
      <point x="43" y="80"/>
      <point x="68" y="39"/>
      <point x="122" y="7" type="curve" smooth="yes"/>
      <point x="175" y="-25"/>
      <point x="228" y="-33"/>
      <point x="296" y="-33" type="curve" smooth="yes"/>
      <point x="392" y="-33"/>
      <point x="462" y="-2"/>
      <point x="505" y="51" type="curve" smooth="yes"/>
      <point x="532" y="84"/>
      <point x="546" y="122"/>
      <point x="546" y="167" type="curve" smooth="yes"/>
      <point x="546" y="207"/>
      <point x="534" y="242"/>
      <point x="511" y="273" type="curve" smooth="yes"/>
      <point x="485" y="307"/>
      <point x="447" y="331"/>
      <point x="398" y="343" type="curve" smooth="yes"/>
      <point x="361" y="352"/>
      <point x="351" y="352"/>
      <point x="324" y="352" type="curve" smooth="yes"/>
      <point x="313" y="352"/>
      <point x="299" y="352"/>
      <point x="263" y="345" type="curve"/>
      <point x="229" y="334"/>
      <point x="207" y="326"/>
      <point x="198" y="321" type="curve"/>
      <point x="221" y="433" type="line"/>
      <point x="517" y="433" type="line"/>
    </contour>
  </outline>
</glyph>
<glyph name="six" format="1">
  <advance width="565"/>
  <unicode hex="0036"/>
  <outline>
    <contour>
      <point x="382" y="229" type="curve" name="hr00"/>
      <point x="395" y="216"/>
      <point x="401" y="196"/>
      <point x="401" y="167" type="curve" smooth="yes"/>
      <point x="401" y="132"/>
      <point x="388" y="104"/>
      <point x="363" y="83" type="curve" smooth="yes"/>
      <point x="336" y="59"/>
      <point x="320" y="55"/>
      <point x="279" y="57" type="curve" smooth="yes"/>
      <point x="220" y="59"/>
      <point x="178" y="101"/>
      <point x="178" y="158" type="curve" smooth="yes"/>
      <point x="178" y="179"/>
      <point x="183" y="197"/>
      <point x="194" y="213" type="curve" smooth="yes"/>
      <point x="215" y="246"/>
      <point x="246" y="263"/>
      <point x="287" y="263" type="curve" smooth="yes"/>
      <point x="331" y="263"/>
      <point x="363" y="252"/>
    </contour>
    <contour>
      <point x="526" y="410" type="line"/>
      <point x="511" y="487"/>
      <point x="450" y="534"/>
      <point x="343" y="542" type="curve" smooth="yes"/>
      <point x="303" y="545" type="line" smooth="yes"/>
      <point x="183" y="554"/>
      <point x="105" y="496"/>
      <point x="65" y="398" type="curve" smooth="yes"/>
      <point x="49" y="360"/>
      <point x="40" y="312"/>
      <point x="40" y="255" type="curve" smooth="yes"/>
      <point x="40" y="128"/>
      <point x="70" y="50"/>
      <point x="149" y="4" type="curve" smooth="yes"/>
      <point x="193" y="-22"/>
      <point x="238" y="-33"/>
      <point x="294" y="-33" type="curve" smooth="yes"/>
      <point x="401" y="-33"/>
      <point x="473" y="6"/>
      <point x="513" y="75" type="curve" smooth="yes"/>
      <point x="530" y="103"/>
      <point x="538" y="134"/>
      <point x="538" y="169" type="curve" smooth="yes"/>
      <point x="538" y="214"/>
      <point x="524" y="251"/>
      <point x="495" y="280" type="curve" smooth="yes"/>
      <point x="456" y="320"/>
      <point x="404" y="345"/>
      <point x="340" y="345" type="curve" smooth="yes"/>
      <point x="277" y="345"/>
      <point x="225" y="331"/>
      <point x="184" y="303" type="curve"/>
      <point x="179" y="334" type="line"/>
      <point x="179" y="365"/>
      <point x="186" y="386"/>
      <point x="197" y="406" type="curve" smooth="yes"/>
      <point x="216" y="441"/>
      <point x="253" y="458"/>
      <point x="308" y="458" type="curve" smooth="yes"/>
      <point x="348" y="458"/>
      <point x="376" y="442"/>
      <point x="393" y="410" type="curve"/>
    </contour>
  </outline>
</glyph>
<glyph name="seven" format="1">
  <advance width="574"/>
  <unicode hex="0037"/>
  <outline>
    <contour>
      <point x="547" y="531" type="line" name="hr00"/>
      <point x="40" y="531" type="line"/>
      <point x="40" y="433" type="line"/>
      <point x="397" y="433" type="line"/>
      <point x="318" y="351"/>
      <point x="261" y="286"/>
      <point x="231" y="236" type="curve" smooth="yes"/>
      <point x="190" y="169"/>
      <point x="162" y="84"/>
      <point x="145" y="-16" type="curve"/>
      <point x="287" y="-16" type="line"/>
      <point x="287" y="63"/>
      <point x="310" y="142"/>
      <point x="356" y="222" type="curve" smooth="yes"/>
      <point x="399" y="295"/>
      <point x="463" y="370"/>
      <point x="547" y="447" type="curve"/>
    </contour>
  </outline>
</glyph>
<glyph name="eight" format="1">
  <advance width="581"/>
  <unicode hex="0038"/>
  <outline>
    <contour>
      <point x="378" y="205" type="curve" smooth="yes" name="hr00"/>
      <point x="390" y="191"/>
      <point x="397" y="174"/>
      <point x="397" y="153" type="curve" smooth="yes"/>
      <point x="397" y="120"/>
      <point x="388" y="97"/>
      <point x="369" y="84" type="curve"/>
      <point x="348" y="66"/>
      <point x="320" y="57"/>
      <point x="287" y="57" type="curve" smooth="yes"/>
      <point x="255" y="57"/>
      <point x="228" y="68"/>
      <point x="207" y="89" type="curve" smooth="yes"/>
      <point x="194" y="101"/>
      <point x="188" y="121"/>
      <point x="188" y="148" type="curve" smooth="yes"/>
      <point x="188" y="203"/>
      <point x="228" y="238"/>
      <point x="295" y="238" type="curve" smooth="yes"/>
      <point x="332" y="238"/>
      <point x="359" y="227"/>
    </contour>
    <contour>
      <point x="388" y="437" type="curve"/>
      <point x="400" y="425"/>
      <point x="406" y="411"/>
      <point x="406" y="396" type="curve" smooth="yes"/>
      <point x="406" y="368"/>
      <point x="391" y="346"/>
      <point x="362" y="331" type="curve"/>
      <point x="337" y="312"/>
      <point x="318" y="311"/>
      <point x="289" y="311" type="curve" smooth="yes"/>
      <point x="260" y="311"/>
      <point x="238" y="318"/>
      <point x="221" y="333" type="curve" smooth="yes"/>
      <point x="201" y="351"/>
      <point x="191" y="370"/>
      <point x="191" y="390" type="curve" smooth="yes"/>
      <point x="191" y="411"/>
      <point x="201" y="429"/>
      <point x="221" y="442" type="curve" smooth="yes"/>
      <point x="246" y="457"/>
      <point x="269" y="460"/>
      <point x="308" y="460" type="curve" smooth="yes"/>
      <point x="343" y="460"/>
      <point x="369" y="450"/>
    </contour>
    <contour>
      <point x="514" y="62" type="curve"/>
      <point x="539" y="87"/>
      <point x="552" y="118"/>
      <point x="552" y="153" type="curve" smooth="yes"/>
      <point x="552" y="214"/>
      <point x="511" y="265"/>
      <point x="434" y="281" type="curve"/>
      <point x="491" y="298"/>
      <point x="529" y="342"/>
      <point x="529" y="391" type="curve" smooth="yes"/>
      <point x="529" y="422"/>
      <point x="515" y="452"/>
      <point x="487" y="481" type="curve" smooth="yes"/>
      <point x="444" y="524"/>
      <point x="377" y="542"/>
      <point x="281" y="542" type="curve" smooth="yes"/>
      <point x="190" y="542"/>
      <point x="126" y="515"/>
      <point x="91" y="460" type="curve" smooth="yes"/>
      <point x="74" y="433"/>
      <point x="66" y="410"/>
      <point x="66" y="391" type="curve" smooth="yes"/>
      <point x="66" y="354"/>
      <point x="94" y="318"/>
      <point x="151" y="281" type="curve"/>
      <point x="77" y="249"/>
      <point x="40" y="203"/>
      <point x="40" y="143" type="curve" smooth="yes"/>
      <point x="40" y="115"/>
      <point x="48" y="88"/>
      <point x="63" y="62" type="curve"/>
      <point x="107" y="1"/>
      <point x="182" y="-33"/>
      <point x="286" y="-33" type="curve" smooth="yes"/>
      <point x="395" y="-33"/>
      <point x="471" y="-1"/>
    </contour>
  </outline>
</glyph>
<glyph name="nine" format="1">
  <advance width="566"/>
  <unicode hex="0039"/>
  <outline>
    <contour>
      <point x="362" y="281" type="curve" smooth="yes" name="hr00"/>
      <point x="337" y="261"/>
      <point x="311" y="252"/>
      <point x="282" y="252" type="curve" smooth="yes"/>
      <point x="252" y="252"/>
      <point x="224" y="260"/>
      <point x="200" y="279" type="curve" smooth="yes"/>
      <point x="176" y="297"/>
      <point x="165" y="322"/>
      <point x="165" y="350" type="curve" smooth="yes"/>
      <point x="165" y="383"/>
      <point x="174" y="406"/>
      <point x="193" y="419" type="curve"/>
      <point x="218" y="442"/>
      <point x="245" y="454"/>
      <point x="276" y="454" type="curve" smooth="yes"/>
      <point x="344" y="454"/>
      <point x="392" y="425"/>
      <point x="392" y="349" type="curve" smooth="yes"/>
      <point x="392" y="320"/>
      <point x="382" y="297"/>
    </contour>
    <contour>
      <point x="496" y="438" type="curve"/>
      <point x="485" y="469"/>
      <point x="456" y="496"/>
      <point x="409" y="517" type="curve" smooth="yes"/>
      <point x="370" y="535"/>
      <point x="337" y="542"/>
      <point x="310" y="542" type="curve"/>
      <point x="271" y="547" type="line"/>
      <point x="181" y="547"/>
      <point x="115" y="516"/>
      <point x="71" y="453" type="curve" smooth="yes"/>
      <point x="51" y="424"/>
      <point x="40" y="389"/>
      <point x="40" y="348" type="curve" smooth="yes"/>
      <point x="40" y="313"/>
      <point x="48" y="282"/>
      <point x="63" y="257" type="curve" smooth="yes"/>
      <point x="92" y="206"/>
      <point x="141" y="169"/>
      <point x="213" y="165" type="curve" smooth="yes"/>
      <point x="268" y="162" type="line" smooth="yes"/>
      <point x="317" y="159"/>
      <point x="358" y="178"/>
      <point x="390" y="210" type="curve"/>
      <point x="393" y="203"/>
      <point x="395" y="193"/>
      <point x="395" y="180" type="curve" smooth="yes"/>
      <point x="395" y="158"/>
      <point x="389" y="132"/>
      <point x="376" y="102" type="curve"/>
      <point x="357" y="68"/>
      <point x="320" y="51"/>
      <point x="265" y="51" type="curve"/>
      <point x="218" y="58"/>
      <point x="183" y="88"/>
      <point x="188" y="112" type="curve"/>
      <point x="49" y="112" type="line"/>
      <point x="44" y="85"/>
      <point x="59" y="58"/>
      <point x="91" y="28" type="curve" smooth="yes"/>
      <point x="134" y="-12"/>
      <point x="191" y="-33"/>
      <point x="265" y="-33" type="curve" smooth="yes"/>
      <point x="364" y="-33"/>
      <point x="435" y="-1"/>
      <point x="479" y="59" type="curve" smooth="yes"/>
      <point x="516" y="110"/>
      <point x="536" y="181"/>
      <point x="536" y="274" type="curve" smooth="yes"/>
      <point x="536" y="341"/>
      <point x="523" y="395"/>
    </contour>
  </outline>
</glyph>
<glyph name="colon" format="1">
  <advance width="215"/>
  <unicode hex="003A"/>
  <outline>
    <contour>
      <point x="188" y="76" type="curve" smooth="yes" name="hr00"/>
      <point x="188" y="93"/>
      <point x="181" y="111"/>
      <point x="166" y="131" type="curve" smooth="yes"/>
      <point x="153" y="148"/>
      <point x="137" y="157"/>
      <point x="118" y="157" type="curve" smooth="yes"/>
      <point x="99" y="157"/>
      <point x="81" y="148"/>
      <point x="66" y="130" type="curve" smooth="yes"/>
      <point x="51" y="113"/>
      <point x="44" y="94"/>
      <point x="44" y="73" type="curve" smooth="yes"/>
      <point x="44" y="25"/>
      <point x="68" y="1"/>
      <point x="115" y="1" type="curve" smooth="yes"/>
      <point x="133" y="1"/>
      <point x="150" y="8"/>
      <point x="165" y="21" type="curve"/>
      <point x="180" y="38"/>
      <point x="188" y="57"/>
    </contour>
    <contour>
      <point x="183" y="354" type="curve" smooth="yes"/>
      <point x="183" y="391"/>
      <point x="152" y="419"/>
      <point x="113" y="419" type="curve" smooth="yes"/>
      <point x="74" y="419"/>
      <point x="40" y="391"/>
      <point x="40" y="350" type="curve" smooth="yes"/>
      <point x="40" y="303"/>
      <point x="63" y="279"/>
      <point x="109" y="279" type="curve" smooth="yes"/>
      <point x="146" y="279"/>
      <point x="183" y="311"/>
    </contour>
  </outline>
</glyph>
<glyph name="semicolon" format="1">
  <advance width="214"/>
  <unicode hex="003B"/>
  <outline>
    <contour>
      <point x="187" y="35" type="curve" smooth="yes" name="hr00"/>
      <point x="187" y="56"/>
      <point x="179" y="75"/>
      <point x="163" y="91" type="curve"/>
      <point x="147" y="111"/>
      <point x="128" y="121"/>
      <point x="105" y="121" type="curve" smooth="yes"/>
      <point x="69" y="121"/>
      <point x="40" y="95"/>
      <point x="40" y="58" type="curve" smooth="yes"/>
      <point x="40" y="41"/>
      <point x="45" y="28"/>
      <point x="54" y="17" type="curve"/>
      <point x="77" y="-5" type="line"/>
      <point x="96" y="-8"/>
      <point x="105" y="-16"/>
      <point x="105" y="-31" type="curve" smooth="yes"/>
      <point x="104" y="-47"/>
      <point x="100" y="-59"/>
      <point x="84" y="-78" type="curve"/>
      <point x="105" y="-82"/>
      <point x="128" y="-71"/>
      <point x="151" y="-46" type="curve" smooth="yes"/>
      <point x="175" y="-21"/>
      <point x="187" y="6"/>
    </contour>
    <contour>
      <point x="184" y="300" type="curve" smooth="yes"/>
      <point x="184" y="321"/>
      <point x="178" y="336"/>
      <point x="165" y="345" type="curve"/>
      <point x="152" y="358"/>
      <point x="136" y="364"/>
      <point x="115" y="364" type="curve" smooth="yes"/>
      <point x="76" y="364"/>
      <point x="41" y="333"/>
      <point x="41" y="296" type="curve" smooth="yes"/>
      <point x="41" y="259"/>
      <point x="67" y="225"/>
      <point x="112" y="225" type="curve" smooth="yes"/>
      <point x="148" y="225"/>
      <point x="184" y="257"/>
    </contour>
  </outline>
</glyph>
<glyph name="less" format="1">
  <advance width="576"/>
  <unicode hex="003C"/>
  <outline>
    <contour>
      <point x="496" y="-25" type="line" name="hr00"/>
      <point x="496" y="15" type="line"/>
      <point x="160" y="246" type="line"/>
      <point x="496" y="474" type="line"/>
      <point x="496" y="511" type="line"/>
      <point x="75" y="281" type="line"/>
      <point x="75" y="202" type="line"/>
    </contour>
  </outline>
</glyph>
<glyph name="equal" format="1">
  <advance width="597"/>
  <unicode hex="003D"/>
  <outline>
    <contour>
      <point x="556" y="236" type="line" name="hr00"/>
      <point x="40" y="236" type="line"/>
      <point x="40" y="143" type="line"/>
      <point x="556" y="143" type="line"/>
    </contour>
    <contour>
      <point x="556" y="405" type="line"/>
      <point x="40" y="405" type="line"/>
      <point x="40" y="315" type="line"/>
      <point x="556" y="315" type="line"/>
    </contour>
  </outline>
</glyph>
<glyph name="greater" format="1">
  <advance width="576"/>
  <unicode hex="003E"/>
  <outline>
    <contour>
      <point x="496" y="290" type="line" name="hr00"/>
      <point x="75" y="518" type="line"/>
      <point x="75" y="482" type="line"/>
      <point x="411" y="252" type="line"/>
      <point x="75" y="22" type="line"/>
      <point x="75" y="-17" type="line"/>
      <point x="496" y="210" type="line"/>
    </contour>
  </outline>
</glyph>
<glyph name="question" format="1">
  <advance width="446"/>
  <unicode hex="003F"/>
  <outline>
    <contour>
      <point x="257" y="32" type="curve" smooth="yes" name="hr00"/>
      <point x="257" y="52"/>
      <point x="250" y="70"/>
      <point x="235" y="86" type="curve"/>
      <point x="219" y="100"/>
      <point x="200" y="107"/>
      <point x="179" y="107" type="curve" smooth="yes"/>
      <point x="139" y="107"/>
      <point x="108" y="75"/>
      <point x="108" y="32" type="curve" smooth="yes"/>
      <point x="108" y="-9"/>
      <point x="142" y="-42"/>
      <point x="179" y="-42" type="curve" smooth="yes"/>
      <point x="227" y="-42"/>
      <point x="257" y="-9"/>
    </contour>
    <contour>
      <point x="419" y="424" type="curve" smooth="yes"/>
      <point x="419" y="473"/>
      <point x="400" y="515"/>
      <point x="363" y="549" type="curve" smooth="yes"/>
      <point x="334" y="577"/>
      <point x="295" y="591"/>
      <point x="247" y="591" type="curve" smooth="yes"/>
      <point x="207" y="591"/>
      <point x="166" y="583"/>
      <point x="124" y="565" type="curve" smooth="yes"/>
      <point x="68" y="541"/>
      <point x="40" y="488"/>
      <point x="40" y="411" type="curve"/>
      <point x="146" y="411" type="line"/>
      <point x="145" y="415"/>
      <point x="144" y="422"/>
      <point x="144" y="431" type="curve" smooth="yes"/>
      <point x="144" y="478"/>
      <point x="174" y="501"/>
      <point x="235" y="501" type="curve" smooth="yes"/>
      <point x="289" y="501"/>
      <point x="316" y="476"/>
      <point x="316" y="427" type="curve" smooth="yes"/>
      <point x="316" y="406"/>
      <point x="300" y="387"/>
      <point x="267" y="375" type="curve" smooth="yes"/>
      <point x="193" y="349" type="line"/>
      <point x="142" y="320"/>
      <point x="116" y="280"/>
      <point x="116" y="227" type="curve" smooth="yes"/>
      <point x="116" y="200"/>
      <point x="119" y="178"/>
      <point x="124" y="162" type="curve"/>
      <point x="221" y="162" type="line"/>
      <point x="221" y="229" type="line" smooth="yes"/>
      <point x="221" y="254"/>
      <point x="225" y="269"/>
      <point x="233" y="276" type="curve" smooth="yes"/>
      <point x="242" y="283"/>
      <point x="258" y="288"/>
      <point x="281" y="295" type="curve" smooth="yes"/>
      <point x="373" y="321"/>
      <point x="419" y="365"/>
    </contour>
  </outline>
</glyph>
<glyph name="at" format="1">
  <advance width="809"/>
  <unicode hex="0040"/>
  <outline>
    <contour>
      <point x="281" y="195" type="curve" smooth="yes" name="hr00"/>
      <point x="281" y="232"/>
      <point x="290" y="270"/>
      <point x="309" y="311" type="curve" smooth="yes"/>
      <point x="328" y="352"/>
      <point x="358" y="373"/>
      <point x="397" y="373" type="curve" smooth="yes"/>
      <point x="443" y="373"/>
      <point x="466" y="344"/>
      <point x="466" y="285" type="curve" smooth="yes"/>
      <point x="466" y="246"/>
      <point x="456" y="205"/>
      <point x="436" y="163" type="curve" smooth="yes"/>
      <point x="416" y="122"/>
      <point x="387" y="101"/>
      <point x="349" y="101" type="curve" smooth="yes"/>
      <point x="304" y="101"/>
      <point x="281" y="132"/>
    </contour>
    <contour>
      <point x="688" y="39" type="line"/>
      <point x="635" y="-27"/>
      <point x="549" y="-60"/>
      <point x="430" y="-60" type="curve" smooth="yes"/>
      <point x="326" y="-60"/>
      <point x="247" y="-35"/>
      <point x="193" y="15" type="curve" smooth="yes"/>
      <point x="139" y="65"/>
      <point x="112" y="130"/>
      <point x="112" y="209" type="curve" smooth="yes"/>
      <point x="112" y="294"/>
      <point x="138" y="368"/>
      <point x="189" y="431" type="curve" smooth="yes"/>
      <point x="240" y="494"/>
      <point x="320" y="526"/>
      <point x="427" y="526" type="curve" smooth="yes"/>
      <point x="502" y="526"/>
      <point x="563" y="506"/>
      <point x="610" y="467" type="curve" smooth="yes"/>
      <point x="657" y="428"/>
      <point x="681" y="374"/>
      <point x="681" y="307" type="curve" smooth="yes"/>
      <point x="681" y="247"/>
      <point x="664" y="199"/>
      <point x="629" y="163" type="curve" smooth="yes"/>
      <point x="595" y="128"/>
      <point x="568" y="110"/>
      <point x="549" y="110" type="curve" smooth="yes"/>
      <point x="539" y="110"/>
      <point x="534" y="116"/>
      <point x="534" y="128" type="curve" smooth="yes"/>
      <point x="534" y="134"/>
      <point x="535" y="145"/>
      <point x="539" y="162" type="curve" smooth="yes"/>
      <point x="596" y="431" type="line"/>
      <point x="497" y="431" type="line"/>
      <point x="487" y="390" type="line"/>
      <point x="466" y="423"/>
      <point x="433" y="440"/>
      <point x="388" y="440" type="curve" smooth="yes"/>
      <point x="330" y="440"/>
      <point x="281" y="414"/>
      <point x="242" y="363" type="curve" smooth="yes"/>
      <point x="203" y="312"/>
      <point x="184" y="255"/>
      <point x="184" y="191" type="curve" smooth="yes"/>
      <point x="184" y="98"/>
      <point x="242" y="32"/>
      <point x="329" y="32" type="curve" smooth="yes"/>
      <point x="368" y="32"/>
      <point x="402" y="46"/>
      <point x="432" y="75" type="curve"/>
      <point x="439" y="46"/>
      <point x="462" y="32"/>
      <point x="499" y="32" type="curve" smooth="yes"/>
      <point x="579" y="32"/>
      <point x="641" y="62"/>
      <point x="684" y="122" type="curve" smooth="yes"/>
      <point x="727" y="182"/>
      <point x="749" y="243"/>
      <point x="749" y="305" type="curve" smooth="yes"/>
      <point x="749" y="386"/>
      <point x="721" y="455"/>
      <point x="666" y="511" type="curve" smooth="yes"/>
      <point x="611" y="567"/>
      <point x="532" y="595"/>
      <point x="429" y="595" type="curve" smooth="yes"/>
      <point x="308" y="595"/>
      <point x="214" y="558"/>
      <point x="145" y="484" type="curve" smooth="yes"/>
      <point x="77" y="411"/>
      <point x="43" y="321"/>
      <point x="43" y="215" type="curve" smooth="yes"/>
      <point x="43" y="113"/>
      <point x="75" y="30"/>
      <point x="140" y="-34" type="curve" smooth="yes"/>
      <point x="205" y="-98"/>
      <point x="303" y="-130"/>
      <point x="435" y="-130" type="curve" smooth="yes"/>
      <point x="602" y="-130"/>
      <point x="713" y="-74"/>
      <point x="768" y="39" type="curve"/>
    </contour>
  </outline>
</glyph>
<glyph name="A" format="1">
  <advance width="603"/>
  <unicode hex="0041"/>
  <outline>
    <contour>
      <point x="215" y="237" type="line" name="hr00"/>
      <point x="296" y="460" type="line"/>
      <point x="379" y="237" type="line"/>
    </contour>
    <contour>
      <point x="361" y="600" type="line"/>
      <point x="233" y="600" type="line"/>
      <point x="0" y="0" type="line"/>
      <point x="128" y="0" type="line"/>
      <point x="178" y="136" type="line"/>
      <point x="418" y="136" type="line"/>
      <point x="470" y="0" type="line"/>
      <point x="602" y="0" type="line"/>
    </contour>
  </outline>
</glyph>
<glyph name="B" format="1">
  <advance width="579"/>
  <unicode hex="0042"/>
  <outline>
    <contour>
      <point x="264" y="262" type="line" smooth="yes" name="hr00"/>
      <point x="327" y="262"/>
      <point x="369" y="256"/>
      <point x="391" y="244" type="curve" smooth="yes"/>
      <point x="413" y="233"/>
      <point x="424" y="211"/>
      <point x="424" y="180" type="curve" smooth="yes"/>
      <point x="424" y="147"/>
      <point x="414" y="126"/>
      <point x="393" y="116" type="curve" smooth="yes"/>
      <point x="373" y="106"/>
      <point x="335" y="101"/>
      <point x="279" y="101" type="curve" smooth="yes"/>
      <point x="167" y="101" type="line"/>
      <point x="167" y="262" type="line"/>
    </contour>
    <contour>
      <point x="236" y="500" type="line" smooth="yes"/>
      <point x="310" y="500"/>
      <point x="356" y="496"/>
      <point x="374" y="487" type="curve" smooth="yes"/>
      <point x="392" y="478"/>
      <point x="401" y="460"/>
      <point x="401" y="432" type="curve" smooth="yes"/>
      <point x="401" y="401"/>
      <point x="391" y="382"/>
      <point x="371" y="373" type="curve" smooth="yes"/>
      <point x="351" y="365"/>
      <point x="310" y="361"/>
      <point x="247" y="361" type="curve" smooth="yes"/>
      <point x="167" y="361" type="line"/>
      <point x="167" y="500" type="line"/>
    </contour>
    <contour>
      <point x="46" y="0" type="line"/>
      <point x="251" y="0" type="line" smooth="yes"/>
      <point x="342" y="0"/>
      <point x="402" y="4"/>
      <point x="432" y="11" type="curve" smooth="yes"/>
      <point x="463" y="18"/>
      <point x="490" y="36"/>
      <point x="513" y="65" type="curve" smooth="yes"/>
      <point x="536" y="94"/>
      <point x="548" y="131"/>
      <point x="548" y="174" type="curve" smooth="yes"/>
      <point x="548" y="249"/>
      <point x="510" y="297"/>
      <point x="435" y="318" type="curve"/>
      <point x="491" y="344"/>
      <point x="519" y="388"/>
      <point x="519" y="449" type="curve" smooth="yes"/>
      <point x="519" y="490"/>
      <point x="504" y="525"/>
      <point x="474" y="555" type="curve" smooth="yes"/>
      <point x="444" y="585"/>
      <point x="382" y="600"/>
      <point x="285" y="600" type="curve" smooth="yes"/>
      <point x="46" y="600" type="line"/>
    </contour>
  </outline>
</glyph>
<glyph name="C" format="1">
  <advance width="584"/>
  <unicode hex="0043"/>
  <outline>
    <contour>
      <point x="435" y="223" type="line" name="hr00"/>
      <point x="415" y="138"/>
      <point x="370" y="96"/>
      <point x="300" y="96" type="curve" smooth="yes"/>
      <point x="203" y="96"/>
      <point x="154" y="166"/>
      <point x="154" y="306" type="curve" smooth="yes"/>
      <point x="154" y="441"/>
      <point x="204" y="508"/>
      <point x="303" y="508" type="curve" smooth="yes"/>
      <point x="372" y="508"/>
      <point x="415" y="475"/>
      <point x="430" y="408" type="curve"/>
      <point x="550" y="437" type="line"/>
      <point x="517" y="554"/>
      <point x="437" y="612"/>
      <point x="310" y="612" type="curve" smooth="yes"/>
      <point x="221" y="612"/>
      <point x="152" y="583"/>
      <point x="103" y="526" type="curve" smooth="yes"/>
      <point x="54" y="469"/>
      <point x="29" y="392"/>
      <point x="29" y="297" type="curve" smooth="yes"/>
      <point x="29" y="216"/>
      <point x="51" y="145"/>
      <point x="95" y="84" type="curve" smooth="yes"/>
      <point x="140" y="23"/>
      <point x="209" y="-7"/>
      <point x="302" y="-7" type="curve" smooth="yes"/>
      <point x="433" y="-7"/>
      <point x="516" y="57"/>
      <point x="552" y="185" type="curve"/>
    </contour>
  </outline>
</glyph>
<glyph name="D" format="1">
  <advance width="579"/>
  <unicode hex="0044"/>
  <outline>
    <contour>
      <point x="220" y="498" type="line" smooth="yes" name="hr00"/>
      <point x="278" y="498"/>
      <point x="319" y="494"/>
      <point x="342" y="486" type="curve" smooth="yes"/>
      <point x="365" y="478"/>
      <point x="385" y="459"/>
      <point x="400" y="430" type="curve" smooth="yes"/>
      <point x="415" y="401"/>
      <point x="423" y="358"/>
      <point x="423" y="300" type="curve" smooth="yes"/>
      <point x="423" y="221"/>
      <point x="410" y="168"/>
      <point x="385" y="141" type="curve" smooth="yes"/>
      <point x="360" y="114"/>
      <point x="317" y="101"/>
      <point x="256" y="101" type="curve" smooth="yes"/>
      <point x="166" y="101" type="line"/>
      <point x="166" y="498" type="line"/>
    </contour>
    <contour>
      <point x="45" y="0" type="line"/>
      <point x="272" y="0" type="line" smooth="yes"/>
      <point x="455" y="0"/>
      <point x="547" y="98"/>
      <point x="547" y="294" type="curve" smooth="yes"/>
      <point x="547" y="439"/>
      <point x="495" y="539"/>
      <point x="418" y="574" type="curve" smooth="yes"/>
      <point x="379" y="591"/>
      <point x="329" y="600"/>
      <point x="266" y="600" type="curve" smooth="yes"/>
      <point x="45" y="600" type="line"/>
    </contour>
  </outline>
</glyph>
<glyph name="E" format="1">
  <advance width="535"/>
  <unicode hex="0045"/>
  <outline>
    <contour>
      <point x="501" y="0" type="line" name="hr00"/>
      <point x="501" y="101" type="line"/>
      <point x="166" y="101" type="line"/>
      <point x="166" y="264" type="line"/>
      <point x="467" y="264" type="line"/>
      <point x="467" y="365" type="line"/>
      <point x="166" y="365" type="line"/>
      <point x="166" y="498" type="line"/>
      <point x="490" y="498" type="line"/>
      <point x="490" y="600" type="line"/>
      <point x="45" y="600" type="line"/>
      <point x="45" y="0" type="line"/>
    </contour>
  </outline>
</glyph>
<glyph name="F" format="1">
  <advance width="488"/>
  <unicode hex="0046"/>
  <outline>
    <contour>
      <point x="167" y="0" type="line" name="hr00"/>
      <point x="167" y="255" type="line"/>
      <point x="417" y="255" type="line"/>
      <point x="417" y="357" type="line"/>
      <point x="167" y="357" type="line"/>
      <point x="167" y="498" type="line"/>
      <point x="457" y="498" type="line"/>
      <point x="457" y="600" type="line"/>
      <point x="46" y="600" type="line"/>
      <point x="46" y="0" type="line"/>
    </contour>
  </outline>
</glyph>
<glyph name="G" format="1">
  <advance width="629"/>
  <unicode hex="0047"/>
  <outline>
    <contour>
      <point x="468" y="223" type="line" name="hr00"/>
      <point x="468" y="147" type="line"/>
      <point x="425" y="113"/>
      <point x="377" y="96"/>
      <point x="326" y="96" type="curve" smooth="yes"/>
      <point x="215" y="96"/>
      <point x="155" y="177"/>
      <point x="155" y="310" type="curve" smooth="yes"/>
      <point x="155" y="442"/>
      <point x="212" y="508"/>
      <point x="327" y="508" type="curve" smooth="yes"/>
      <point x="400" y="508"/>
      <point x="445" y="476"/>
      <point x="463" y="413" type="curve"/>
      <point x="583" y="436" type="line"/>
      <point x="557" y="553"/>
      <point x="472" y="612"/>
      <point x="327" y="612" type="curve" smooth="yes"/>
      <point x="244" y="612"/>
      <point x="174" y="586"/>
      <point x="116" y="535" type="curve" smooth="yes"/>
      <point x="59" y="484"/>
      <point x="30" y="408"/>
      <point x="30" y="305" type="curve" smooth="yes"/>
      <point x="30" y="213"/>
      <point x="56" y="138"/>
      <point x="107" y="80" type="curve" smooth="yes"/>
      <point x="159" y="22"/>
      <point x="235" y="-7"/>
      <point x="335" y="-7" type="curve" smooth="yes"/>
      <point x="438" y="-7"/>
      <point x="523" y="24"/>
      <point x="590" y="85" type="curve"/>
      <point x="590" y="323" type="line"/>
      <point x="330" y="323" type="line"/>
      <point x="330" y="223" type="line"/>
    </contour>
  </outline>
</glyph>
<glyph name="H" format="1">
  <advance width="573"/>
  <unicode hex="0048"/>
  <outline>
    <contour>
      <point x="167" y="0" type="line" name="hr00"/>
      <point x="167" y="262" type="line"/>
      <point x="404" y="262" type="line"/>
      <point x="404" y="0" type="line"/>
      <point x="525" y="0" type="line"/>
      <point x="525" y="600" type="line"/>
      <point x="404" y="600" type="line"/>
      <point x="404" y="364" type="line"/>
      <point x="167" y="364" type="line"/>
      <point x="167" y="600" type="line"/>
      <point x="46" y="600" type="line"/>
      <point x="46" y="0" type="line"/>
    </contour>
  </outline>
</glyph>
<glyph name="J" format="1">
  <advance width="446"/>
  <unicode hex="004A"/>
  <outline>
    <contour>
      <point x="272" y="215" type="line" smooth="yes" name="hr00"/>
      <point x="272" y="124"/>
      <point x="255" y="96"/>
      <point x="198" y="96" type="curve" smooth="yes"/>
      <point x="149" y="96"/>
      <point x="124" y="131"/>
      <point x="123" y="201" type="curve"/>
      <point x="9" y="188" type="line"/>
      <point x="10" y="58"/>
      <point x="71" y="-7"/>
      <point x="194" y="-7" type="curve" smooth="yes"/>
      <point x="270" y="-7"/>
      <point x="322" y="13"/>
      <point x="350" y="52" type="curve" smooth="yes"/>
      <point x="379" y="92"/>
      <point x="393" y="149"/>
      <point x="393" y="222" type="curve" smooth="yes"/>
      <point x="393" y="602" type="line"/>
      <point x="272" y="602" type="line"/>
    </contour>
  </outline>
</glyph>
<glyph name="K" format="1">
  <advance width="588"/>
  <unicode hex="004B"/>
  <outline>
    <contour>
      <point x="169" y="0" type="line" name="hr00"/>
      <point x="169" y="181" type="line"/>
      <point x="268" y="281" type="line"/>
      <point x="432" y="0" type="line"/>
      <point x="588" y="0" type="line"/>
      <point x="350" y="366" type="line"/>
      <point x="576" y="600" type="line"/>
      <point x="413" y="600" type="line"/>
      <point x="169" y="333" type="line"/>
      <point x="169" y="600" type="line"/>
      <point x="48" y="600" type="line"/>
      <point x="48" y="0" type="line"/>
    </contour>
  </outline>
</glyph>
<glyph name="L" format="1">
  <advance width="491"/>
  <unicode hex="004C"/>
  <outline>
    <contour>
      <point x="467" y="0" type="line" name="hr00"/>
      <point x="467" y="101" type="line"/>
      <point x="167" y="101" type="line"/>
      <point x="167" y="600" type="line"/>
      <point x="45" y="600" type="line"/>
      <point x="45" y="0" type="line"/>
    </contour>
  </outline>
</glyph>
<glyph name="M" format="1">
  <advance width="669"/>
  <unicode hex="004D"/>
  <outline>
    <contour>
      <point x="157" y="0" type="line" name="hr00"/>
      <point x="157" y="471" type="line"/>
      <point x="276" y="0" type="line"/>
      <point x="393" y="0" type="line"/>
      <point x="511" y="471" type="line"/>
      <point x="511" y="0" type="line"/>
      <point x="624" y="0" type="line"/>
      <point x="624" y="600" type="line"/>
      <point x="442" y="600" type="line"/>
      <point x="335" y="190" type="line"/>
      <point x="226" y="600" type="line"/>
      <point x="45" y="600" type="line"/>
      <point x="45" y="0" type="line"/>
    </contour>
  </outline>
</glyph>
<glyph name="N" format="1">
  <advance width="573"/>
  <unicode hex="004E"/>
  <outline>
    <contour>
      <point x="158" y="0" type="line" name="hr00"/>
      <point x="158" y="391" type="line"/>
      <point x="400" y="0" type="line"/>
      <point x="521" y="0" type="line"/>
      <point x="521" y="600" type="line"/>
      <point x="410" y="600" type="line"/>
      <point x="410" y="199" type="line"/>
      <point x="163" y="600" type="line"/>
      <point x="46" y="600" type="line"/>
      <point x="46" y="0" type="line"/>
    </contour>
  </outline>
</glyph>
<glyph name="O" format="1">
  <advance width="635"/>
  <unicode hex="004F"/>
  <outline>
    <contour>
      <point x="152" y="302" type="curve" smooth="yes" name="hr00"/>
      <point x="152" y="439"/>
      <point x="207" y="508"/>
      <point x="318" y="508" type="curve" smooth="yes"/>
      <point x="428" y="508"/>
      <point x="483" y="440"/>
      <point x="483" y="305" type="curve" smooth="yes"/>
      <point x="483" y="245"/>
      <point x="469" y="195"/>
      <point x="442" y="155" type="curve" smooth="yes"/>
      <point x="415" y="116"/>
      <point x="374" y="96"/>
      <point x="318" y="96" type="curve" smooth="yes"/>
      <point x="213" y="96"/>
      <point x="152" y="178"/>
    </contour>
    <contour>
      <point x="27" y="299" type="curve" smooth="yes"/>
      <point x="27" y="204"/>
      <point x="53" y="130"/>
      <point x="104" y="75" type="curve" smooth="yes"/>
      <point x="156" y="20"/>
      <point x="228" y="-7"/>
      <point x="319" y="-7" type="curve" smooth="yes"/>
      <point x="409" y="-7"/>
      <point x="480" y="20"/>
      <point x="531" y="75" type="curve" smooth="yes"/>
      <point x="582" y="130"/>
      <point x="608" y="206"/>
      <point x="608" y="301" type="curve" smooth="yes"/>
      <point x="608" y="386"/>
      <point x="585" y="459"/>
      <point x="540" y="520" type="curve" smooth="yes"/>
      <point x="495" y="581"/>
      <point x="420" y="612"/>
      <point x="317" y="612" type="curve" smooth="yes"/>
      <point x="226" y="612"/>
      <point x="154" y="584"/>
      <point x="103" y="528" type="curve" smooth="yes"/>
      <point x="52" y="472"/>
      <point x="27" y="396"/>
    </contour>
  </outline>
</glyph>
<glyph name="P" format="1">
  <advance width="535"/>
  <unicode hex="0050"/>
  <outline>
    <contour>
      <point x="225" y="498" type="line" smooth="yes" name="hr00"/>
      <point x="288" y="498"/>
      <point x="330" y="491"/>
      <point x="349" y="479" type="curve" smooth="yes"/>
      <point x="369" y="466"/>
      <point x="379" y="445"/>
      <point x="379" y="413" type="curve" smooth="yes"/>
      <point x="379" y="348"/>
      <point x="340" y="328"/>
      <point x="233" y="328" type="curve" smooth="yes"/>
      <point x="166" y="328" type="line"/>
      <point x="166" y="498" type="line"/>
    </contour>
    <contour>
      <point x="166" y="0" type="line"/>
      <point x="166" y="226" type="line"/>
      <point x="245" y="226" type="line" smooth="yes"/>
      <point x="318" y="226"/>
      <point x="370" y="232"/>
      <point x="401" y="244" type="curve" smooth="yes"/>
      <point x="432" y="256"/>
      <point x="456" y="276"/>
      <point x="475" y="305" type="curve" smooth="yes"/>
      <point x="494" y="334"/>
      <point x="504" y="371"/>
      <point x="504" y="416" type="curve" smooth="yes"/>
      <point x="504" y="465"/>
      <point x="492" y="505"/>
      <point x="467" y="536" type="curve" smooth="yes"/>
      <point x="443" y="567"/>
      <point x="416" y="585"/>
      <point x="385" y="591" type="curve" smooth="yes"/>
      <point x="354" y="597"/>
      <point x="306" y="600"/>
      <point x="239" y="600" type="curve" smooth="yes"/>
      <point x="45" y="600" type="line"/>
      <point x="45" y="0" type="line"/>
    </contour>
  </outline>
</glyph>
<glyph name="Q" format="1">
  <advance width="640"/>
  <unicode hex="0051"/>
  <outline>
    <contour>
      <point x="437" y="158" type="curve" name="hr00"/>
      <point x="400" y="186"/>
      <point x="362" y="207"/>
      <point x="323" y="220" type="curve"/>
      <point x="289" y="151" type="line"/>
      <point x="314" y="142"/>
      <point x="339" y="129"/>
      <point x="364" y="112" type="curve"/>
      <point x="348" y="107"/>
      <point x="331" y="104"/>
      <point x="314" y="104" type="curve" smooth="yes"/>
      <point x="257" y="104"/>
      <point x="215" y="125"/>
      <point x="190" y="166" type="curve" smooth="yes"/>
      <point x="165" y="207"/>
      <point x="152" y="256"/>
      <point x="152" y="313" type="curve" smooth="yes"/>
      <point x="152" y="442"/>
      <point x="211" y="521"/>
      <point x="318" y="521" type="curve" smooth="yes"/>
      <point x="428" y="521"/>
      <point x="483" y="452"/>
      <point x="483" y="313" type="curve" smooth="yes"/>
      <point x="483" y="246"/>
      <point x="468" y="195"/>
    </contour>
    <contour>
      <point x="534" y="90" type="curve"/>
      <point x="583" y="147"/>
      <point x="608" y="222"/>
      <point x="608" y="313" type="curve" smooth="yes"/>
      <point x="608" y="506"/>
      <point x="500" y="623"/>
      <point x="319" y="623" type="curve" smooth="yes"/>
      <point x="135" y="623"/>
      <point x="27" y="506"/>
      <point x="27" y="313" type="curve" smooth="yes"/>
      <point x="27" y="228"/>
      <point x="50" y="155"/>
      <point x="96" y="94" type="curve" smooth="yes"/>
      <point x="142" y="34"/>
      <point x="217" y="4"/>
      <point x="322" y="4" type="curve" smooth="yes"/>
      <point x="369" y="4"/>
      <point x="413" y="13"/>
      <point x="453" y="30" type="curve"/>
      <point x="514" y="-13"/>
      <point x="558" y="-39"/>
      <point x="586" y="-46" type="curve"/>
      <point x="632" y="39" type="line"/>
      <point x="596" y="52"/>
      <point x="563" y="69"/>
    </contour>
  </outline>
</glyph>
<glyph name="R" format="1">
  <advance width="588"/>
  <unicode hex="0052"/>
  <outline>
    <contour>
      <point x="167" y="498" type="line" name="hr00"/>
      <point x="262" y="498" type="line" smooth="yes"/>
      <point x="327" y="498"/>
      <point x="368" y="493"/>
      <point x="385" y="483" type="curve" smooth="yes"/>
      <point x="403" y="473"/>
      <point x="412" y="453"/>
      <point x="412" y="423" type="curve" smooth="yes"/>
      <point x="412" y="392"/>
      <point x="401" y="371"/>
      <point x="380" y="360" type="curve" smooth="yes"/>
      <point x="359" y="350"/>
      <point x="318" y="345"/>
      <point x="257" y="345" type="curve" smooth="yes"/>
      <point x="167" y="345" type="line"/>
    </contour>
    <contour>
      <point x="167" y="0" type="line"/>
      <point x="167" y="250" type="line"/>
      <point x="192" y="250" type="line" smooth="yes"/>
      <point x="259" y="250"/>
      <point x="284" y="233"/>
      <point x="310" y="194" type="curve" smooth="yes"/>
      <point x="440" y="0" type="line"/>
      <point x="585" y="0" type="line"/>
      <point x="511" y="117" type="line" smooth="yes"/>
      <point x="463" y="193"/>
      <point x="419" y="243"/>
      <point x="378" y="264" type="curve"/>
      <point x="484" y="279"/>
      <point x="537" y="335"/>
      <point x="537" y="432" type="curve" smooth="yes"/>
      <point x="537" y="560"/>
      <point x="460" y="600"/>
      <point x="301" y="600" type="curve" smooth="yes"/>
      <point x="46" y="600" type="line"/>
      <point x="46" y="0" type="line"/>
    </contour>
  </outline>
</glyph>
<glyph name="S" format="1">
  <advance width="541"/>
  <unicode hex="0053"/>
  <outline>
    <contour>
      <point x="22" y="197" type="line" name="hr00"/>
      <point x="39" y="60"/>
      <point x="121" y="-9"/>
      <point x="270" y="-9" type="curve" smooth="yes"/>
      <point x="429" y="-9"/>
      <point x="509" y="53"/>
      <point x="509" y="178" type="curve" smooth="yes"/>
      <point x="509" y="220"/>
      <point x="498" y="257"/>
      <point x="475" y="288" type="curve" smooth="yes"/>
      <point x="452" y="320"/>
      <point x="391" y="350"/>
      <point x="290" y="375" type="curve" smooth="yes"/>
      <point x="227" y="391"/>
      <point x="190" y="404"/>
      <point x="178" y="415" type="curve" smooth="yes"/>
      <point x="166" y="427"/>
      <point x="160" y="440"/>
      <point x="160" y="453" type="curve" smooth="yes"/>
      <point x="160" y="492"/>
      <point x="194" y="512"/>
      <point x="261" y="512" type="curve" smooth="yes"/>
      <point x="326" y="512"/>
      <point x="362" y="483"/>
      <point x="371" y="426" type="curve"/>
      <point x="492" y="431" type="line"/>
      <point x="488" y="552"/>
      <point x="412" y="612"/>
      <point x="263" y="612" type="curve" smooth="yes"/>
      <point x="131" y="612"/>
      <point x="44" y="553"/>
      <point x="44" y="445" type="curve" smooth="yes"/>
      <point x="44" y="357"/>
      <point x="108" y="297"/>
      <point x="235" y="265" type="curve" smooth="yes"/>
      <point x="303" y="248"/>
      <point x="345" y="234"/>
      <point x="362" y="224" type="curve" smooth="yes"/>
      <point x="379" y="214"/>
      <point x="388" y="198"/>
      <point x="388" y="176" type="curve" smooth="yes"/>
      <point x="388" y="121"/>
      <point x="349" y="94"/>
      <point x="271" y="94" type="curve" smooth="yes"/>
      <point x="197" y="94"/>
      <point x="153" y="133"/>
      <point x="139" y="210" type="curve"/>
    </contour>
  </outline>
</glyph>
<glyph name="T" format="1">
  <advance width="503"/>
  <unicode hex="0054"/>
  <outline>
    <contour>
      <point x="312" y="0" type="line" name="hr00"/>
      <point x="312" y="498" type="line"/>
      <point x="489" y="498" type="line"/>
      <point x="489" y="600" type="line"/>
      <point x="13" y="600" type="line"/>
      <point x="13" y="498" type="line"/>
      <point x="191" y="498" type="line"/>
      <point x="191" y="0" type="line"/>
    </contour>
  </outline>
</glyph>
<glyph name="U" format="1">
  <advance width="573"/>
  <unicode hex="0055"/>
  <outline>
    <contour>
      <point x="45" y="283" type="line" smooth="yes" name="hr00"/>
      <point x="45" y="199"/>
      <point x="51" y="140"/>
      <point x="64" y="106" type="curve" smooth="yes"/>
      <point x="77" y="73"/>
      <point x="101" y="45"/>
      <point x="138" y="24" type="curve" smooth="yes"/>
      <point x="175" y="3"/>
      <point x="227" y="-7"/>
      <point x="292" y="-7" type="curve" smooth="yes"/>
      <point x="423" y="-7"/>
      <point x="493" y="49"/>
      <point x="509" y="121" type="curve" smooth="yes"/>
      <point x="518" y="158"/>
      <point x="522" y="213"/>
      <point x="522" y="286" type="curve" smooth="yes"/>
      <point x="522" y="602" type="line"/>
      <point x="402" y="602" type="line"/>
      <point x="402" y="270" type="line" smooth="yes"/>
      <point x="402" y="195"/>
      <point x="394" y="148"/>
      <point x="377" y="127" type="curve" smooth="yes"/>
      <point x="361" y="106"/>
      <point x="331" y="96"/>
      <point x="288" y="96" type="curve" smooth="yes"/>
      <point x="217" y="96"/>
      <point x="178" y="130"/>
      <point x="171" y="173" type="curve" smooth="yes"/>
      <point x="168" y="194"/>
      <point x="166" y="229"/>
      <point x="166" y="278" type="curve" smooth="yes"/>
      <point x="166" y="602" type="line"/>
      <point x="45" y="602" type="line"/>
    </contour>
  </outline>
</glyph>
<glyph name="V" format="1">
  <advance width="557"/>
  <unicode hex="0056"/>
  <outline>
    <contour>
      <point x="344" y="0" type="line" name="hr00"/>
      <point x="558" y="600" type="line"/>
      <point x="429" y="600" type="line"/>
      <point x="284" y="155" type="line"/>
      <point x="132" y="600" type="line"/>
      <point x="0" y="600" type="line"/>
      <point x="215" y="0" type="line"/>
    </contour>
  </outline>
</glyph>
<glyph name="W" format="1">
  <advance width="788"/>
  <unicode hex="0057"/>
  <outline>
    <contour>
      <point x="275" y="0" type="line" name="hr00"/>
      <point x="395" y="448" type="line"/>
      <point x="513" y="0" type="line"/>
      <point x="641" y="0" type="line"/>
      <point x="788" y="600" type="line"/>
      <point x="666" y="600" type="line"/>
      <point x="573" y="181" type="line"/>
      <point x="469" y="600" type="line"/>
      <point x="325" y="600" type="line"/>
      <point x="216" y="188" type="line"/>
      <point x="124" y="600" type="line"/>
      <point x="1" y="600" type="line"/>
      <point x="144" y="0" type="line"/>
    </contour>
  </outline>
</glyph>
<glyph name="X" format="1">
  <advance width="557"/>
  <unicode hex="0058"/>
  <outline>
    <contour>
      <point x="146" y="0" type="line" name="hr00"/>
      <point x="279" y="207" type="line"/>
      <point x="412" y="0" type="line"/>
      <point x="558" y="0" type="line"/>
      <point x="353" y="308" type="line"/>
      <point x="539" y="600" type="line"/>
      <point x="398" y="600" type="line"/>
      <point x="281" y="407" type="line"/>
      <point x="162" y="600" type="line"/>
      <point x="20" y="600" type="line"/>
      <point x="205" y="312" type="line"/>
      <point x="0" y="0" type="line"/>
    </contour>
  </outline>
</glyph>
<glyph name="Y" format="1">
  <advance width="557"/>
  <unicode hex="0059"/>
  <outline>
    <contour>
      <point x="341" y="0" type="line" name="hr00"/>
      <point x="341" y="252" type="line"/>
      <point x="560" y="600" type="line"/>
      <point x="421" y="600" type="line"/>
      <point x="284" y="363" type="line"/>
      <point x="142" y="600" type="line"/>
      <point x="0" y="600" type="line"/>
      <point x="220" y="253" type="line"/>
      <point x="220" y="0" type="line"/>
    </contour>
  </outline>
</glyph>
<glyph name="Z" format="1">
  <advance width="505"/>
  <unicode hex="005A"/>
  <outline>
    <contour>
      <point x="493" y="0" type="line" name="hr00"/>
      <point x="493" y="101" type="line"/>
      <point x="152" y="101" type="line"/>
      <point x="481" y="506" type="line"/>
      <point x="481" y="600" type="line"/>
      <point x="42" y="600" type="line"/>
      <point x="42" y="498" type="line"/>
      <point x="321" y="498" type="line"/>
      <point x="6" y="109" type="line"/>
      <point x="6" y="0" type="line"/>
    </contour>
  </outline>
</glyph>
<glyph name="bracketleft" format="1">
  <advance width="260"/>
  <unicode hex="005B"/>
  <outline>
    <contour>
      <point x="249" y="-130" type="line" name="hr00"/>
      <point x="249" y="-39" type="line"/>
      <point x="155" y="-39" type="line"/>
      <point x="155" y="548" type="line"/>
      <point x="249" y="548" type="line"/>
      <point x="249" y="639" type="line"/>
      <point x="45" y="639" type="line"/>
      <point x="45" y="-130" type="line"/>
    </contour>
  </outline>
</glyph>
<glyph name="backslash" format="1">
  <advance width="231"/>
  <unicode hex="005C"/>
  <outline>
    <contour>
      <point x="148" y="-7" type="line" name="hr00"/>
      <point x="234" y="-7" type="line"/>
      <point x="85" y="612" type="line"/>
      <point x="0" y="612" type="line"/>
    </contour>
  </outline>
</glyph>
<glyph name="bracketright" format="1">
  <advance width="260"/>
  <unicode hex="005D"/>
  <outline>
    <contour>
      <point x="11" y="639" type="line" name="hr00"/>
      <point x="11" y="549" type="line"/>
      <point x="106" y="549" type="line"/>
      <point x="106" y="-39" type="line"/>
      <point x="11" y="-39" type="line"/>
      <point x="11" y="-130" type="line"/>
      <point x="215" y="-130" type="line"/>
      <point x="215" y="639" type="line"/>
    </contour>
  </outline>
</glyph>
<glyph name="asciicircum" format="1">
  <advance width="467"/>
  <unicode hex="005E"/>
  <outline>
    <contour>
      <point x="152" y="218" type="line" name="hr00"/>
      <point x="232" y="418" type="line"/>
      <point x="314" y="218" type="line"/>
      <point x="430" y="218" type="line"/>
      <point x="281" y="544" type="line"/>
      <point x="189" y="544" type="line"/>
      <point x="35" y="218" type="line"/>
    </contour>
  </outline>
</glyph>
<glyph name="underscore" format="1">
  <advance width="467"/>
  <unicode hex="005F"/>
  <outline>
    <contour>
      <point x="473" y="-127" type="line" name="hr00"/>
      <point x="473" y="-53" type="line"/>
      <point x="-4" y="-53" type="line"/>
      <point x="-4" y="-127" type="line"/>
    </contour>
  </outline>
</glyph>
<glyph name="grave" format="1">
  <advance width="255"/>
  <unicode hex="0060"/>
  <outline>
    <contour>
      <point x="142" y="497" type="line" name="hr00"/>
      <point x="12" y="497" type="line"/>
      <point x="126" y="375" type="line"/>
      <point x="197" y="375" type="line"/>
    </contour>
  </outline>
</glyph>
<glyph name="a" format="1">
  <advance width="451"/>
  <unicode hex="0061"/>
  <outline>
    <contour>
      <point x="292" y="188" type="line" smooth="yes" name="hr00"/>
      <point x="292" y="112"/>
      <point x="262" y="74"/>
      <point x="201" y="74" type="curve" smooth="yes"/>
      <point x="168" y="74"/>
      <point x="137" y="96"/>
      <point x="137" y="133" type="curve" smooth="yes"/>
      <point x="137" y="150"/>
      <point x="144" y="163"/>
      <point x="159" y="174" type="curve"/>
      <point x="211" y="191"/>
      <point x="255" y="204"/>
      <point x="292" y="211" type="curve"/>
    </contour>
    <contour>
      <point x="138" y="305" type="line"/>
      <point x="151" y="341"/>
      <point x="176" y="359"/>
      <point x="213" y="359" type="curve" smooth="yes"/>
      <point x="266" y="359"/>
      <point x="292" y="338"/>
      <point x="292" y="297" type="curve" smooth="yes"/>
      <point x="292" y="285" type="line"/>
      <point x="271" y="277"/>
      <point x="234" y="268"/>
      <point x="180" y="258" type="curve" smooth="yes"/>
      <point x="109" y="244"/>
      <point x="65" y="225"/>
      <point x="48" y="202" type="curve" smooth="yes"/>
      <point x="31" y="179"/>
      <point x="22" y="152"/>
      <point x="22" y="121" type="curve" smooth="yes"/>
      <point x="22" y="42"/>
      <point x="81" y="-7"/>
      <point x="166" y="-7" type="curve" smooth="yes"/>
      <point x="217" y="-7"/>
      <point x="262" y="12"/>
      <point x="301" y="49" type="curve"/>
      <point x="306" y="30"/>
      <point x="311" y="14"/>
      <point x="316" y="2" type="curve"/>
      <point x="429" y="2" type="line"/>
      <point x="412" y="38"/>
      <point x="403" y="86"/>
      <point x="403" y="146" type="curve" smooth="yes"/>
      <point x="404" y="279" type="line" smooth="yes"/>
      <point x="404" y="342"/>
      <point x="391" y="385"/>
      <point x="366" y="410" type="curve" smooth="yes"/>
      <point x="341" y="435"/>
      <point x="293" y="447"/>
      <point x="222" y="447" type="curve" smooth="yes"/>
      <point x="120" y="447"/>
      <point x="57" y="406"/>
      <point x="34" y="323" type="curve"/>
    </contour>
  </outline>
</glyph>
<glyph name="b" format="1">
  <advance width="492"/>
  <unicode hex="0062"/>
  <outline>
    <contour>
      <point x="155" y="229" type="curve" smooth="yes" name="hr00"/>
      <point x="155" y="316"/>
      <point x="187" y="359"/>
      <point x="252" y="359" type="curve" smooth="yes"/>
      <point x="315" y="359"/>
      <point x="347" y="312"/>
      <point x="347" y="218" type="curve" smooth="yes"/>
      <point x="347" y="128"/>
      <point x="317" y="83"/>
      <point x="256" y="83" type="curve" smooth="yes"/>
      <point x="189" y="83"/>
      <point x="155" y="132"/>
    </contour>
    <contour>
      <point x="148" y="2" type="line"/>
      <point x="148" y="67" type="line"/>
      <point x="183" y="18"/>
      <point x="228" y="-7"/>
      <point x="284" y="-7" type="curve" smooth="yes"/>
      <point x="345" y="-7"/>
      <point x="390" y="16"/>
      <point x="420" y="63" type="curve" smooth="yes"/>
      <point x="450" y="110"/>
      <point x="465" y="164"/>
      <point x="465" y="225" type="curve" smooth="yes"/>
      <point x="465" y="290"/>
      <point x="449" y="344"/>
      <point x="417" y="385" type="curve" smooth="yes"/>
      <point x="385" y="426"/>
      <point x="340" y="447"/>
      <point x="283" y="447" type="curve" smooth="yes"/>
      <point x="234" y="447"/>
      <point x="191" y="427"/>
      <point x="156" y="386" type="curve"/>
      <point x="156" y="602" type="line"/>
      <point x="41" y="602" type="line"/>
      <point x="41" y="2" type="line"/>
    </contour>
  </outline>
</glyph>
<glyph name="c" format="1">
  <advance width="452"/>
  <unicode hex="0063"/>
  <outline>
    <contour>
      <point x="430" y="308" type="line" name="hr00"/>
      <point x="403" y="401"/>
      <point x="338" y="447"/>
      <point x="236" y="447" type="curve" smooth="yes"/>
      <point x="162" y="447"/>
      <point x="108" y="424"/>
      <point x="75" y="379" type="curve" smooth="yes"/>
      <point x="42" y="334"/>
      <point x="25" y="281"/>
      <point x="25" y="220" type="curve" smooth="yes"/>
      <point x="25" y="81"/>
      <point x="103" y="-7"/>
      <point x="234" y="-7" type="curve" smooth="yes"/>
      <point x="345" y="-7"/>
      <point x="412" y="45"/>
      <point x="436" y="149" type="curve"/>
      <point x="322" y="169" type="line"/>
      <point x="311" y="114"/>
      <point x="284" y="86"/>
      <point x="240" y="86" type="curve" smooth="yes"/>
      <point x="175" y="86"/>
      <point x="143" y="133"/>
      <point x="143" y="227" type="curve" smooth="yes"/>
      <point x="143" y="314"/>
      <point x="174" y="357"/>
      <point x="237" y="357" type="curve" smooth="yes"/>
      <point x="282" y="357"/>
      <point x="308" y="334"/>
      <point x="316" y="287" type="curve"/>
    </contour>
  </outline>
</glyph>
<glyph name="d" format="1">
  <advance width="492"/>
  <unicode hex="0064"/>
  <outline>
    <contour>
      <point x="142" y="229" type="curve" smooth="yes" name="hr00"/>
      <point x="142" y="316"/>
      <point x="174" y="359"/>
      <point x="238" y="359" type="curve" smooth="yes"/>
      <point x="303" y="359"/>
      <point x="335" y="312"/>
      <point x="335" y="218" type="curve" smooth="yes"/>
      <point x="335" y="139"/>
      <point x="300" y="83"/>
      <point x="240" y="83" type="curve" smooth="yes"/>
      <point x="175" y="83"/>
      <point x="142" y="132"/>
    </contour>
    <contour>
      <point x="449" y="602" type="line"/>
      <point x="333" y="602" type="line"/>
      <point x="333" y="386" type="line"/>
      <point x="298" y="427"/>
      <point x="256" y="447"/>
      <point x="208" y="447" type="curve" smooth="yes"/>
      <point x="92" y="447"/>
      <point x="25" y="358"/>
      <point x="25" y="221" type="curve" smooth="yes"/>
      <point x="25" y="155"/>
      <point x="41" y="100"/>
      <point x="74" y="57" type="curve" smooth="yes"/>
      <point x="107" y="14"/>
      <point x="151" y="-7"/>
      <point x="206" y="-7" type="curve" smooth="yes"/>
      <point x="261" y="-7"/>
      <point x="307" y="18"/>
      <point x="342" y="67" type="curve"/>
      <point x="342" y="2" type="line"/>
      <point x="449" y="2" type="line"/>
    </contour>
  </outline>
</glyph>
<glyph name="e" format="1">
  <advance width="451"/>
  <unicode hex="0065"/>
  <outline>
    <contour>
      <point x="140" y="257" type="line" name="hr00"/>
      <point x="140" y="325"/>
      <point x="168" y="359"/>
      <point x="225" y="359" type="curve" smooth="yes"/>
      <point x="280" y="359"/>
      <point x="309" y="325"/>
      <point x="311" y="257" type="curve"/>
    </contour>
    <contour>
      <point x="304" y="141" type="line"/>
      <point x="293" y="99"/>
      <point x="268" y="78"/>
      <point x="231" y="78" type="curve" smooth="yes"/>
      <point x="172" y="78"/>
      <point x="140" y="114"/>
      <point x="136" y="186" type="curve"/>
      <point x="425" y="186" type="line"/>
      <point x="425" y="360"/>
      <point x="356" y="447"/>
      <point x="218" y="447" type="curve" smooth="yes"/>
      <point x="157" y="447"/>
      <point x="108" y="425"/>
      <point x="72" y="382" type="curve" smooth="yes"/>
      <point x="37" y="339"/>
      <point x="19" y="284"/>
      <point x="19" y="216" type="curve" smooth="yes"/>
      <point x="19" y="153"/>
      <point x="35" y="100"/>
      <point x="68" y="57" type="curve" smooth="yes"/>
      <point x="101" y="14"/>
      <point x="155" y="-7"/>
      <point x="230" y="-7" type="curve" smooth="yes"/>
      <point x="325" y="-7"/>
      <point x="388" y="36"/>
      <point x="419" y="121" type="curve"/>
    </contour>
  </outline>
</glyph>
<glyph name="f" format="1">
  <advance width="281"/>
  <unicode hex="0066"/>
  <outline>
    <contour>
      <point x="7" y="344" type="line" name="hr00"/>
      <point x="71" y="344" type="line"/>
      <point x="71" y="0" type="line"/>
      <point x="186" y="0" type="line"/>
      <point x="186" y="344" type="line"/>
      <point x="271" y="344" type="line"/>
      <point x="271" y="434" type="line"/>
      <point x="186" y="434" type="line"/>
      <point x="186" y="465" type="line" smooth="yes"/>
      <point x="186" y="503"/>
      <point x="201" y="522"/>
      <point x="232" y="522" type="curve" smooth="yes"/>
      <point x="249" y="522"/>
      <point x="266" y="519"/>
      <point x="285" y="514" type="curve"/>
      <point x="301" y="595" type="line"/>
      <point x="270" y="604"/>
      <point x="237" y="609"/>
      <point x="204" y="609" type="curve" smooth="yes"/>
      <point x="115" y="609"/>
      <point x="71" y="561"/>
      <point x="71" y="466" type="curve" smooth="yes"/>
      <point x="71" y="434" type="line"/>
      <point x="7" y="434" type="line"/>
    </contour>
  </outline>
</glyph>
<glyph name="g" format="1">
  <advance width="491"/>
  <unicode hex="0067"/>
  <outline>
    <contour>
      <point x="142" y="266" type="curve" smooth="yes" name="hr00"/>
      <point x="142" y="353"/>
      <point x="174" y="397"/>
      <point x="237" y="397" type="curve" smooth="yes"/>
      <point x="303" y="397"/>
      <point x="336" y="353"/>
      <point x="336" y="264" type="curve" smooth="yes"/>
      <point x="336" y="177"/>
      <point x="303" y="133"/>
      <point x="236" y="133" type="curve" smooth="yes"/>
      <point x="173" y="133"/>
      <point x="142" y="177"/>
    </contour>
    <contour>
      <point x="40" y="12" type="line"/>
      <point x="33" y="-87"/>
      <point x="101" y="-136"/>
      <point x="242" y="-136" type="curve" smooth="yes"/>
      <point x="318" y="-136"/>
      <point x="371" y="-120"/>
      <point x="402" y="-88" type="curve" smooth="yes"/>
      <point x="433" y="-57"/>
      <point x="448" y="1"/>
      <point x="448" y="85" type="curve" smooth="yes"/>
      <point x="448" y="475" type="line"/>
      <point x="341" y="475" type="line"/>
      <point x="341" y="415" type="line"/>
      <point x="306" y="462"/>
      <point x="262" y="485"/>
      <point x="208" y="485" type="curve" smooth="yes"/>
      <point x="145" y="485"/>
      <point x="99" y="462"/>
      <point x="69" y="417" type="curve" smooth="yes"/>
      <point x="40" y="372"/>
      <point x="25" y="320"/>
      <point x="25" y="260" type="curve" smooth="yes"/>
      <point x="25" y="199"/>
      <point x="41" y="148"/>
      <point x="72" y="105" type="curve" smooth="yes"/>
      <point x="103" y="62"/>
      <point x="147" y="41"/>
      <point x="204" y="41" type="curve" smooth="yes"/>
      <point x="256" y="41"/>
      <point x="299" y="64"/>
      <point x="333" y="111" type="curve"/>
      <point x="333" y="48" type="line" smooth="yes"/>
      <point x="333" y="-25"/>
      <point x="309" y="-48"/>
      <point x="238" y="-48" type="curve" smooth="yes"/>
      <point x="198" y="-48"/>
      <point x="176" y="-33"/>
      <point x="172" y="-4" type="curve"/>
    </contour>
  </outline>
</glyph>
<glyph name="h" format="1">
  <advance width="484"/>
  <unicode hex="0068"/>
  <outline>
    <contour>
      <point x="45" y="600" type="line" name="hr00"/>
      <point x="45" y="0" type="line"/>
      <point x="160" y="0" type="line"/>
      <point x="160" y="217" type="line" smooth="yes"/>
      <point x="160" y="310"/>
      <point x="192" y="357"/>
      <point x="255" y="357" type="curve" smooth="yes"/>
      <point x="284" y="357"/>
      <point x="303" y="348"/>
      <point x="312" y="331" type="curve" smooth="yes"/>
      <point x="321" y="314"/>
      <point x="326" y="280"/>
      <point x="326" y="229" type="curve" smooth="yes"/>
      <point x="326" y="0" type="line"/>
      <point x="441" y="0" type="line"/>
      <point x="441" y="255" type="line" smooth="yes"/>
      <point x="441" y="380"/>
      <point x="405" y="444"/>
      <point x="293" y="444" type="curve" smooth="yes"/>
      <point x="242" y="444"/>
      <point x="197" y="422"/>
      <point x="160" y="379" type="curve"/>
      <point x="160" y="600" type="line"/>
    </contour>
  </outline>
</glyph>
<glyph name="i" format="1">
  <advance width="204"/>
  <unicode hex="0069"/>
  <outline>
    <contour>
      <point x="160" y="0" type="line" name="hr00"/>
      <point x="160" y="434" type="line"/>
      <point x="45" y="434" type="line"/>
      <point x="45" y="0" type="line"/>
    </contour>
    <contour>
      <point x="160" y="493" type="line"/>
      <point x="160" y="600" type="line"/>
      <point x="45" y="600" type="line"/>
      <point x="45" y="493" type="line"/>
    </contour>
  </outline>
</glyph>
<glyph name="j" format="1">
  <advance width="227"/>
  <unicode hex="006A"/>
  <outline>
    <contour>
      <point x="68" y="475" type="line" name="hr00"/>
      <point x="68" y="60" type="line" smooth="yes"/>
      <point x="68" y="21"/>
      <point x="65" y="-4"/>
      <point x="59" y="-13" type="curve" smooth="yes"/>
      <point x="53" y="-23"/>
      <point x="40" y="-28"/>
      <point x="20" y="-28" type="curve" smooth="yes"/>
      <point x="13" y="-28"/>
      <point x="4" y="-27"/>
      <point x="-8" y="-25" type="curve"/>
      <point x="-28" y="-123" type="line"/>
      <point x="3" y="-132"/>
      <point x="29" y="-136"/>
      <point x="51" y="-136" type="curve" smooth="yes"/>
      <point x="103" y="-136"/>
      <point x="138" y="-122"/>
      <point x="156" y="-93" type="curve" smooth="yes"/>
      <point x="174" y="-65"/>
      <point x="183" y="-16"/>
      <point x="183" y="54" type="curve" smooth="yes"/>
      <point x="183" y="475" type="line"/>
    </contour>
    <contour>
      <point x="183" y="534" type="line"/>
      <point x="183" y="640" type="line"/>
      <point x="68" y="640" type="line"/>
      <point x="68" y="534" type="line"/>
    </contour>
  </outline>
</glyph>
<glyph name="k" format="1">
  <advance width="451"/>
  <unicode hex="006B"/>
  <outline>
    <contour>
      <point x="156" y="0" type="line" name="hr00"/>
      <point x="156" y="139" type="line"/>
      <point x="210" y="195" type="line"/>
      <point x="319" y="0" type="line"/>
      <point x="443" y="0" type="line"/>
      <point x="284" y="275" type="line"/>
      <point x="432" y="434" type="line"/>
      <point x="291" y="434" type="line"/>
      <point x="156" y="281" type="line"/>
      <point x="156" y="600" type="line"/>
      <point x="41" y="600" type="line"/>
      <point x="41" y="0" type="line"/>
    </contour>
  </outline>
</glyph>
<glyph name="m" format="1">
  <advance width="720"/>
  <unicode hex="006D"/>
  <outline>
    <contour>
      <point x="39" y="0" type="line" name="hr00"/>
      <point x="154" y="0" type="line"/>
      <point x="154" y="211" type="line" smooth="yes"/>
      <point x="154" y="276"/>
      <point x="162" y="316"/>
      <point x="179" y="332" type="curve" smooth="yes"/>
      <point x="196" y="349"/>
      <point x="216" y="357"/>
      <point x="241" y="357" type="curve" smooth="yes"/>
      <point x="269" y="357"/>
      <point x="286" y="346"/>
      <point x="292" y="324" type="curve" smooth="yes"/>
      <point x="299" y="302"/>
      <point x="302" y="273"/>
      <point x="302" y="238" type="curve" smooth="yes"/>
      <point x="302" y="0" type="line"/>
      <point x="417" y="0" type="line"/>
      <point x="417" y="209" type="line" smooth="yes"/>
      <point x="417" y="308"/>
      <point x="445" y="357"/>
      <point x="502" y="357" type="curve" smooth="yes"/>
      <point x="519" y="357"/>
      <point x="533" y="351"/>
      <point x="545" y="339" type="curve" smooth="yes"/>
      <point x="557" y="327"/>
      <point x="563" y="297"/>
      <point x="563" y="248" type="curve" smooth="yes"/>
      <point x="563" y="0" type="line"/>
      <point x="678" y="0" type="line"/>
      <point x="678" y="278" type="line" smooth="yes"/>
      <point x="678" y="389"/>
      <point x="631" y="444"/>
      <point x="536" y="444" type="curve" smooth="yes"/>
      <point x="485" y="444"/>
      <point x="441" y="421"/>
      <point x="403" y="375" type="curve"/>
      <point x="378" y="421"/>
      <point x="337" y="444"/>
      <point x="281" y="444" type="curve" smooth="yes"/>
      <point x="228" y="444"/>
      <point x="183" y="421"/>
      <point x="145" y="375" type="curve"/>
      <point x="145" y="434" type="line"/>
      <point x="39" y="434" type="line"/>
    </contour>
  </outline>
</glyph>
<glyph name="n" format="1">
  <advance width="484"/>
  <unicode hex="006E"/>
  <outline>
    <contour>
      <point x="441" y="270" type="line" smooth="yes" name="hr00"/>
      <point x="441" y="386"/>
      <point x="392" y="444"/>
      <point x="295" y="444" type="curve" smooth="yes"/>
      <point x="238" y="444"/>
      <point x="190" y="419"/>
      <point x="151" y="370" type="curve"/>
      <point x="151" y="434" type="line"/>
      <point x="45" y="434" type="line"/>
      <point x="45" y="0" type="line"/>
      <point x="160" y="0" type="line"/>
      <point x="160" y="196" type="line" smooth="yes"/>
      <point x="160" y="273"/>
      <point x="169" y="319"/>
      <point x="188" y="334" type="curve" smooth="yes"/>
      <point x="207" y="349"/>
      <point x="229" y="357"/>
      <point x="255" y="357" type="curve" smooth="yes"/>
      <point x="312" y="357"/>
      <point x="326" y="325"/>
      <point x="326" y="222" type="curve" smooth="yes"/>
      <point x="326" y="0" type="line"/>
      <point x="441" y="0" type="line"/>
    </contour>
  </outline>
</glyph>
<glyph name="o" format="1">
  <advance width="497"/>
  <unicode hex="006F"/>
  <outline>
    <contour>
      <point x="142" y="220" type="curve" smooth="yes" name="hr00"/>
      <point x="142" y="299"/>
      <point x="183" y="353"/>
      <point x="248" y="353" type="curve" smooth="yes"/>
      <point x="316" y="353"/>
      <point x="354" y="300"/>
      <point x="354" y="221" type="curve" smooth="yes"/>
      <point x="354" y="140"/>
      <point x="316" y="86"/>
      <point x="248" y="86" type="curve" smooth="yes"/>
      <point x="183" y="86"/>
      <point x="142" y="140"/>
    </contour>
    <contour>
      <point x="25" y="226" type="curve" smooth="yes"/>
      <point x="25" y="77"/>
      <point x="113" y="-7"/>
      <point x="250" y="-7" type="curve" smooth="yes"/>
      <point x="315" y="-7"/>
      <point x="369" y="14"/>
      <point x="410" y="57" type="curve" smooth="yes"/>
      <point x="452" y="100"/>
      <point x="473" y="155"/>
      <point x="473" y="221" type="curve" smooth="yes"/>
      <point x="473" y="287"/>
      <point x="451" y="341"/>
      <point x="410" y="383" type="curve" smooth="yes"/>
      <point x="368" y="426"/>
      <point x="315" y="447"/>
      <point x="248" y="447" type="curve" smooth="yes"/>
      <point x="181" y="447"/>
      <point x="127" y="425"/>
      <point x="86" y="382" type="curve" smooth="yes"/>
      <point x="45" y="339"/>
      <point x="25" y="287"/>
    </contour>
  </outline>
</glyph>
<glyph name="p" format="1">
  <advance width="491"/>
  <unicode hex="0070"/>
  <outline>
    <contour>
      <point x="157" y="263" type="curve" smooth="yes" name="hr00"/>
      <point x="157" y="348"/>
      <point x="189" y="391"/>
      <point x="254" y="391" type="curve" smooth="yes"/>
      <point x="317" y="391"/>
      <point x="349" y="346"/>
      <point x="349" y="257" type="curve" smooth="yes"/>
      <point x="349" y="166"/>
      <point x="318" y="120"/>
      <point x="256" y="120" type="curve" smooth="yes"/>
      <point x="190" y="120"/>
      <point x="157" y="168"/>
    </contour>
    <contour>
      <point x="43" y="-127" type="line"/>
      <point x="158" y="-127" type="line"/>
      <point x="158" y="93" type="line"/>
      <point x="197" y="50"/>
      <point x="240" y="28"/>
      <point x="285" y="28" type="curve" smooth="yes"/>
      <point x="341" y="28"/>
      <point x="385" y="50"/>
      <point x="417" y="93" type="curve" smooth="yes"/>
      <point x="450" y="137"/>
      <point x="466" y="192"/>
      <point x="466" y="258" type="curve" smooth="yes"/>
      <point x="466" y="319"/>
      <point x="450" y="372"/>
      <point x="419" y="416" type="curve" smooth="yes"/>
      <point x="388" y="460"/>
      <point x="343" y="482"/>
      <point x="286" y="482" type="curve" smooth="yes"/>
      <point x="227" y="482"/>
      <point x="181" y="457"/>
      <point x="150" y="408" type="curve"/>
      <point x="150" y="473" type="line"/>
      <point x="43" y="473" type="line"/>
    </contour>
  </outline>
</glyph>
<glyph name="q" format="1">
  <advance width="491"/>
  <unicode hex="0071"/>
  <outline>
    <contour>
      <point x="339" y="260" type="curve" smooth="yes" name="hr00"/>
      <point x="339" y="183"/>
      <point x="304" y="118"/>
      <point x="239" y="118" type="curve" smooth="yes"/>
      <point x="176" y="118"/>
      <point x="145" y="163"/>
      <point x="145" y="254" type="curve" smooth="yes"/>
      <point x="145" y="346"/>
      <point x="178" y="392"/>
      <point x="244" y="392" type="curve" smooth="yes"/>
      <point x="307" y="392"/>
      <point x="339" y="348"/>
    </contour>
    <contour>
      <point x="450" y="-127" type="line"/>
      <point x="450" y="473" type="line"/>
      <point x="344" y="473" type="line"/>
      <point x="344" y="408" type="line"/>
      <point x="311" y="457"/>
      <point x="267" y="482"/>
      <point x="213" y="482" type="curve" smooth="yes"/>
      <point x="150" y="482"/>
      <point x="103" y="460"/>
      <point x="73" y="415" type="curve" smooth="yes"/>
      <point x="43" y="370"/>
      <point x="28" y="319"/>
      <point x="28" y="260" type="curve" smooth="yes"/>
      <point x="28" y="193"/>
      <point x="44" y="138"/>
      <point x="76" y="94" type="curve" smooth="yes"/>
      <point x="108" y="50"/>
      <point x="152" y="28"/>
      <point x="207" y="28" type="curve" smooth="yes"/>
      <point x="260" y="28"/>
      <point x="302" y="49"/>
      <point x="335" y="91" type="curve"/>
      <point x="335" y="-127" type="line"/>
    </contour>
  </outline>
</glyph>
<glyph name="r" format="1">
  <advance width="315"/>
  <unicode hex="0072"/>
  <outline>
    <contour>
      <point x="156" y="134" type="line" smooth="yes" name="hr00"/>
      <point x="156" y="217"/>
      <point x="161" y="273"/>
      <point x="172" y="300" type="curve" smooth="yes"/>
      <point x="183" y="327"/>
      <point x="203" y="341"/>
      <point x="232" y="341" type="curve" smooth="yes"/>
      <point x="249" y="341"/>
      <point x="268" y="335"/>
      <point x="287" y="322" type="curve"/>
      <point x="322" y="422" type="line"/>
      <point x="299" y="437"/>
      <point x="274" y="444"/>
      <point x="247" y="444" type="curve" smooth="yes"/>
      <point x="211" y="444"/>
      <point x="178" y="420"/>
      <point x="148" y="373" type="curve"/>
      <point x="148" y="434" type="line"/>
      <point x="41" y="434" type="line"/>
      <point x="41" y="0" type="line"/>
      <point x="156" y="0" type="line"/>
    </contour>
  </outline>
</glyph>
<glyph name="s" format="1">
  <advance width="451"/>
  <unicode hex="0073"/>
  <outline>
    <contour>
      <point x="14" y="126" type="line" name="hr00"/>
      <point x="37" y="37"/>
      <point x="107" y="-7"/>
      <point x="223" y="-7" type="curve" smooth="yes"/>
      <point x="277" y="-7"/>
      <point x="323" y="5"/>
      <point x="362" y="30" type="curve" smooth="yes"/>
      <point x="401" y="55"/>
      <point x="420" y="91"/>
      <point x="420" y="138" type="curve" smooth="yes"/>
      <point x="420" y="175"/>
      <point x="408" y="204"/>
      <point x="385" y="223" type="curve" smooth="yes"/>
      <point x="362" y="242"/>
      <point x="320" y="258"/>
      <point x="260" y="271" type="curve" smooth="yes"/>
      <point x="178" y="290"/>
      <point x="137" y="309"/>
      <point x="137" y="328" type="curve" smooth="yes"/>
      <point x="137" y="352"/>
      <point x="163" y="364"/>
      <point x="215" y="364" type="curve" smooth="yes"/>
      <point x="260" y="364"/>
      <point x="288" y="347"/>
      <point x="297" y="312" type="curve"/>
      <point x="405" y="332" type="line"/>
      <point x="383" y="409"/>
      <point x="319" y="447"/>
      <point x="213" y="447" type="curve" smooth="yes"/>
      <point x="91" y="447"/>
      <point x="30" y="402"/>
      <point x="30" y="313" type="curve" smooth="yes"/>
      <point x="30" y="280"/>
      <point x="41" y="252"/>
      <point x="64" y="229" type="curve" smooth="yes"/>
      <point x="87" y="206"/>
      <point x="152" y="183"/>
      <point x="258" y="159" type="curve" smooth="yes"/>
      <point x="289" y="152"/>
      <point x="305" y="140"/>
      <point x="305" y="122" type="curve" smooth="yes"/>
      <point x="305" y="91"/>
      <point x="278" y="75"/>
      <point x="223" y="75" type="curve" smooth="yes"/>
      <point x="171" y="75"/>
      <point x="140" y="98"/>
      <point x="129" y="144" type="curve"/>
    </contour>
  </outline>
</glyph>
<glyph name="t" format="1">
  <advance width="272"/>
  <unicode hex="0074"/>
  <outline>
    <contour>
      <point x="177" y="437" type="line" name="hr00"/>
      <point x="177" y="590" type="line"/>
      <point x="61" y="523" type="line"/>
      <point x="61" y="437" type="line"/>
      <point x="8" y="437" type="line"/>
      <point x="8" y="345" type="line"/>
      <point x="61" y="345" type="line"/>
      <point x="61" y="155" type="line" smooth="yes"/>
      <point x="61" y="94"/>
      <point x="67" y="52"/>
      <point x="81" y="28" type="curve" smooth="yes"/>
      <point x="94" y="5"/>
      <point x="126" y="-7"/>
      <point x="173" y="-7" type="curve" smooth="yes"/>
      <point x="207" y="-7"/>
      <point x="238" y="-1"/>
      <point x="265" y="10" type="curve"/>
      <point x="255" y="99" type="line"/>
      <point x="234" y="92"/>
      <point x="219" y="88"/>
      <point x="208" y="88" type="curve" smooth="yes"/>
      <point x="183" y="88"/>
      <point x="177" y="99"/>
      <point x="177" y="170" type="curve" smooth="yes"/>
      <point x="177" y="345" type="line"/>
      <point x="255" y="345" type="line"/>
      <point x="255" y="437" type="line"/>
    </contour>
  </outline>
</glyph>
<glyph name="u" format="1">
  <advance width="484"/>
  <unicode hex="0075"/>
  <outline>
    <contour>
      <point x="438" y="2" type="line" name="hr00"/>
      <point x="438" y="437" type="line"/>
      <point x="323" y="437" type="line"/>
      <point x="323" y="254" type="line" smooth="yes"/>
      <point x="323" y="183"/>
      <point x="317" y="136"/>
      <point x="304" y="113" type="curve" smooth="yes"/>
      <point x="291" y="91"/>
      <point x="266" y="80"/>
      <point x="229" y="80" type="curve" smooth="yes"/>
      <point x="200" y="80"/>
      <point x="181" y="90"/>
      <point x="172" y="111" type="curve" smooth="yes"/>
      <point x="163" y="132"/>
      <point x="158" y="174"/>
      <point x="158" y="237" type="curve" smooth="yes"/>
      <point x="158" y="437" type="line"/>
      <point x="43" y="437" type="line"/>
      <point x="43" y="162" type="line" smooth="yes"/>
      <point x="43" y="49"/>
      <point x="91" y="-7"/>
      <point x="187" y="-7" type="curve" smooth="yes"/>
      <point x="249" y="-7"/>
      <point x="297" y="18"/>
      <point x="332" y="68" type="curve"/>
      <point x="332" y="2" type="line"/>
    </contour>
  </outline>
</glyph>
<glyph name="v" format="1">
  <advance width="462"/>
  <unicode hex="0076"/>
  <outline>
    <contour>
      <point x="281" y="0" type="line" name="hr00"/>
      <point x="454" y="434" type="line"/>
      <point x="335" y="434" type="line"/>
      <point x="228" y="138" type="line"/>
      <point x="123" y="434" type="line"/>
      <point x="2" y="434" type="line"/>
      <point x="177" y="0" type="line"/>
    </contour>
  </outline>
</glyph>
<glyph name="w" format="1">
  <advance width="650"/>
  <unicode hex="0077"/>
  <outline>
    <contour>
      <point x="251" y="0" type="line" name="hr00"/>
      <point x="325" y="279" type="line"/>
      <point x="399" y="0" type="line"/>
      <point x="510" y="0" type="line"/>
      <point x="650" y="434" type="line"/>
      <point x="536" y="434" type="line"/>
      <point x="454" y="149" type="line"/>
      <point x="381" y="434" type="line"/>
      <point x="270" y="434" type="line"/>
      <point x="194" y="149" type="line"/>
      <point x="113" y="434" type="line"/>
      <point x="2" y="434" type="line"/>
      <point x="139" y="0" type="line"/>
    </contour>
  </outline>
</glyph>
<glyph name="x" format="1">
  <advance width="462"/>
  <unicode hex="0078"/>
  <outline>
    <contour>
      <point x="137" y="0" type="line" name="hr00"/>
      <point x="226" y="134" type="line"/>
      <point x="315" y="0" type="line"/>
      <point x="456" y="0" type="line"/>
      <point x="295" y="228" type="line"/>
      <point x="442" y="434" type="line"/>
      <point x="308" y="434" type="line"/>
      <point x="226" y="315" type="line"/>
      <point x="150" y="434" type="line"/>
      <point x="9" y="434" type="line"/>
      <point x="160" y="223" type="line"/>
      <point x="3" y="0" type="line"/>
    </contour>
  </outline>
</glyph>
<glyph name="y" format="1">
  <advance width="460"/>
  <unicode hex="0079"/>
  <outline>
    <contour>
      <point x="168" y="39" type="line" name="hr00"/>
      <point x="153" y="-16"/>
      <point x="123" y="-44"/>
      <point x="79" y="-44" type="curve" smooth="yes"/>
      <point x="66" y="-44"/>
      <point x="50" y="-42"/>
      <point x="31" y="-39" type="curve"/>
      <point x="41" y="-128" type="line"/>
      <point x="62" y="-133"/>
      <point x="84" y="-136"/>
      <point x="107" y="-136" type="curve" smooth="yes"/>
      <point x="186" y="-136"/>
      <point x="239" y="-97"/>
      <point x="268" y="-19" type="curve" smooth="yes"/>
      <point x="450" y="475" type="line"/>
      <point x="331" y="475" type="line"/>
      <point x="229" y="167" type="line"/>
      <point x="125" y="475" type="line"/>
      <point x="3" y="475" type="line"/>
    </contour>
  </outline>
</glyph>
<glyph name="z" format="1">
  <advance width="409"/>
  <unicode hex="007A"/>
  <outline>
    <contour>
      <point x="396" y="0" type="line" name="hr00"/>
      <point x="396" y="101" type="line"/>
      <point x="219" y="101" type="line" smooth="yes"/>
      <point x="212" y="101"/>
      <point x="192" y="100"/>
      <point x="160" y="99" type="curve"/>
      <point x="219" y="162" type="line"/>
      <point x="384" y="353" type="line"/>
      <point x="384" y="434" type="line"/>
      <point x="25" y="434" type="line"/>
      <point x="25" y="339" type="line"/>
      <point x="178" y="339" type="line"/>
      <point x="231" y="342" type="line"/>
      <point x="217" y="327"/>
      <point x="197" y="305"/>
      <point x="172" y="276" type="curve" smooth="yes"/>
      <point x="9" y="90" type="line"/>
      <point x="9" y="0" type="line"/>
    </contour>
  </outline>
</glyph>
<glyph name="braceleft" format="1">
  <advance width="314"/>
  <unicode hex="007B"/>
  <outline>
    <contour>
      <point x="18" y="209" type="line" name="hr00"/>
      <point x="55" y="206"/>
      <point x="80" y="194"/>
      <point x="91" y="171" type="curve" smooth="yes"/>
      <point x="102" y="148"/>
      <point x="108" y="107"/>
      <point x="108" y="48" type="curve" smooth="yes"/>
      <point x="108" y="-27"/>
      <point x="120" y="-76"/>
      <point x="145" y="-100" type="curve" smooth="yes"/>
      <point x="170" y="-124"/>
      <point x="214" y="-136"/>
      <point x="276" y="-136" type="curve" smooth="yes"/>
      <point x="298" y="-136" type="line"/>
      <point x="298" y="-38" type="line"/>
      <point x="229" y="-38"/>
      <point x="214" y="-27"/>
      <point x="214" y="22" type="curve" smooth="yes"/>
      <point x="214" y="98"/>
      <point x="209" y="151"/>
      <point x="200" y="182" type="curve" smooth="yes"/>
      <point x="191" y="213"/>
      <point x="170" y="239"/>
      <point x="138" y="258" type="curve"/>
      <point x="183" y="283"/>
      <point x="205" y="330"/>
      <point x="210" y="398" type="curve" smooth="yes"/>
      <point x="219" y="528" type="line"/>
      <point x="221" y="536"/>
      <point x="229" y="542"/>
      <point x="243" y="546" type="curve" smooth="yes"/>
      <point x="257" y="551"/>
      <point x="275" y="553"/>
      <point x="298" y="553" type="curve"/>
      <point x="298" y="650" type="line"/>
      <point x="276" y="650" type="line" smooth="yes"/>
      <point x="207" y="650"/>
      <point x="162" y="638"/>
      <point x="140" y="613" type="curve" smooth="yes"/>
      <point x="119" y="589"/>
      <point x="108" y="536"/>
      <point x="108" y="453" type="curve" smooth="yes"/>
      <point x="108" y="401"/>
      <point x="102" y="364"/>
      <point x="91" y="342" type="curve" smooth="yes"/>
      <point x="80" y="321"/>
      <point x="55" y="309"/>
      <point x="18" y="306" type="curve"/>
    </contour>
  </outline>
</glyph>
<glyph name="bar" format="1">
  <advance width="201"/>
  <unicode hex="007C"/>
  <outline>
    <contour>
      <point x="145" y="-136" type="line" name="hr00"/>
      <point x="145" y="650" type="line"/>
      <point x="54" y="650" type="line"/>
      <point x="54" y="-136" type="line"/>
    </contour>
  </outline>
</glyph>
<glyph name="braceright" format="1">
  <advance width="314"/>
  <unicode hex="007D"/>
  <outline>
    <contour>
      <point x="293" y="306" type="line" name="hr00"/>
      <point x="255" y="309"/>
      <point x="230" y="321"/>
      <point x="219" y="344" type="curve" smooth="yes"/>
      <point x="208" y="367"/>
      <point x="203" y="409"/>
      <point x="203" y="468" type="curve" smooth="yes"/>
      <point x="203" y="543"/>
      <point x="190" y="592"/>
      <point x="165" y="615" type="curve" smooth="yes"/>
      <point x="140" y="638"/>
      <point x="97" y="650"/>
      <point x="35" y="650" type="curve" smooth="yes"/>
      <point x="13" y="650" type="line"/>
      <point x="13" y="553" type="line"/>
      <point x="50" y="553"/>
      <point x="73" y="549"/>
      <point x="82" y="542" type="curve" smooth="yes"/>
      <point x="91" y="535"/>
      <point x="97" y="518"/>
      <point x="97" y="491" type="curve" smooth="yes"/>
      <point x="99" y="407"/>
      <point x="104" y="352"/>
      <point x="113" y="326" type="curve" smooth="yes"/>
      <point x="122" y="300"/>
      <point x="142" y="277"/>
      <point x="173" y="258" type="curve"/>
      <point x="128" y="233"/>
      <point x="105" y="185"/>
      <point x="101" y="115" type="curve" smooth="yes"/>
      <point x="97" y="35"/>
      <point x="92" y="-10"/>
      <point x="87" y="-21" type="curve" smooth="yes"/>
      <point x="83" y="-32"/>
      <point x="58" y="-38"/>
      <point x="13" y="-38" type="curve"/>
      <point x="13" y="-136" type="line"/>
      <point x="35" y="-136" type="line" smooth="yes"/>
      <point x="94" y="-136"/>
      <point x="136" y="-125"/>
      <point x="163" y="-104" type="curve" smooth="yes"/>
      <point x="190" y="-83"/>
      <point x="203" y="-28"/>
      <point x="203" y="63" type="curve" smooth="yes"/>
      <point x="203" y="118"/>
      <point x="210" y="156"/>
      <point x="223" y="175" type="curve" smooth="yes"/>
      <point x="237" y="195"/>
      <point x="260" y="206"/>
      <point x="293" y="209" type="curve"/>
    </contour>
  </outline>
</glyph>
<glyph name="asciitilde" format="1">
  <advance width="476"/>
  <unicode hex="007E"/>
  <outline>
    <contour>
      <point x="20" y="163" type="line" name="hr00"/>
      <point x="56" y="202"/>
      <point x="93" y="221"/>
      <point x="131" y="221" type="curve" smooth="yes"/>
      <point x="155" y="221"/>
      <point x="189" y="211"/>
      <point x="232" y="192" type="curve" smooth="yes"/>
      <point x="275" y="173"/>
      <point x="308" y="164"/>
      <point x="332" y="164" type="curve" smooth="yes"/>
      <point x="379" y="164"/>
      <point x="419" y="182"/>
      <point x="454" y="218" type="curve"/>
      <point x="454" y="328" type="line"/>
      <point x="417" y="289"/>
      <point x="380" y="270"/>
      <point x="343" y="270" type="curve" smooth="yes"/>
      <point x="329" y="270"/>
      <point x="304" y="277"/>
      <point x="267" y="292" type="curve" smooth="yes"/>
      <point x="212" y="315"/>
      <point x="170" y="326"/>
      <point x="141" y="326" type="curve" smooth="yes"/>
      <point x="95" y="326"/>
      <point x="55" y="307"/>
      <point x="20" y="269" type="curve"/>
    </contour>
  </outline>
</glyph>
<glyph name="cent" format="1">
  <advance width="452"/>
  <unicode hex="00A2"/>
  <outline>
    <contour>
      <point x="174" y="148" type="line" name="hr00"/>
      <point x="153" y="172"/>
      <point x="142" y="210"/>
      <point x="142" y="263" type="curve" smooth="yes"/>
      <point x="142" y="349"/>
      <point x="174" y="392"/>
      <point x="237" y="392" type="curve"/>
      <point x="247" y="391" type="line"/>
    </contour>
    <contour>
      <point x="295" y="370" type="line"/>
      <point x="306" y="358"/>
      <point x="313" y="342"/>
      <point x="316" y="323" type="curve"/>
      <point x="430" y="344" type="line"/>
      <point x="412" y="407"/>
      <point x="377" y="448"/>
      <point x="325" y="468" type="curve"/>
      <point x="370" y="619" type="line"/>
      <point x="320" y="634" type="line"/>
      <point x="274" y="480" type="line"/>
      <point x="271" y="480"/>
      <point x="265" y="481"/>
      <point x="258" y="482" type="curve"/>
      <point x="103" y="482"/>
      <point x="25" y="407"/>
      <point x="25" y="257" type="curve" smooth="yes"/>
      <point x="25" y="152"/>
      <point x="64" y="81"/>
      <point x="142" y="44" type="curve"/>
      <point x="95" y="-114" type="line"/>
      <point x="145" y="-127" type="line"/>
      <point x="193" y="31" type="line"/>
      <point x="208" y="29"/>
      <point x="222" y="28"/>
      <point x="235" y="28" type="curve" smooth="yes"/>
      <point x="344" y="28"/>
      <point x="411" y="80"/>
      <point x="435" y="185" type="curve"/>
      <point x="322" y="205" type="line"/>
      <point x="311" y="150"/>
      <point x="283" y="120"/>
      <point x="238" y="122" type="curve" smooth="yes"/>
      <point x="220" y="123" type="line"/>
    </contour>
  </outline>
</glyph>
<glyph name="copyright" format="1">
  <advance width="618"/>
  <unicode hex="00A9"/>
  <outline>
    <contour>
      <point x="388" y="255" type="line" name="hr00"/>
      <point x="374" y="209"/>
      <point x="348" y="186"/>
      <point x="309" y="186" type="curve" smooth="yes"/>
      <point x="256" y="186"/>
      <point x="230" y="225"/>
      <point x="230" y="302" type="curve" smooth="yes"/>
      <point x="230" y="379"/>
      <point x="258" y="417"/>
      <point x="314" y="417" type="curve" smooth="yes"/>
      <point x="349" y="417"/>
      <point x="373" y="398"/>
      <point x="387" y="360" type="curve"/>
      <point x="453" y="376" type="line"/>
      <point x="430" y="443"/>
      <point x="385" y="476"/>
      <point x="316" y="476" type="curve" smooth="yes"/>
      <point x="224" y="476"/>
      <point x="157" y="415"/>
      <point x="157" y="300" type="curve" smooth="yes"/>
      <point x="157" y="239"/>
      <point x="173" y="195"/>
      <point x="206" y="168" type="curve" smooth="yes"/>
      <point x="239" y="141"/>
      <point x="275" y="127"/>
      <point x="316" y="127" type="curve" smooth="yes"/>
      <point x="386" y="127"/>
      <point x="432" y="162"/>
      <point x="453" y="233" type="curve"/>
    </contour>
    <contour>
      <point x="311" y="554" type="curve" smooth="yes"/>
      <point x="380" y="554"/>
      <point x="440" y="529"/>
      <point x="489" y="480" type="curve" smooth="yes"/>
      <point x="538" y="431"/>
      <point x="563" y="372"/>
      <point x="563" y="302" type="curve" smooth="yes"/>
      <point x="563" y="233"/>
      <point x="538" y="174"/>
      <point x="489" y="125" type="curve" smooth="yes"/>
      <point x="440" y="76"/>
      <point x="380" y="51"/>
      <point x="311" y="51" type="curve" smooth="yes"/>
      <point x="243" y="51"/>
      <point x="184" y="74"/>
      <point x="134" y="123" type="curve" smooth="yes"/>
      <point x="85" y="171"/>
      <point x="60" y="231"/>
      <point x="60" y="302" type="curve" smooth="yes"/>
      <point x="60" y="372"/>
      <point x="84" y="431"/>
      <point x="133" y="480" type="curve" smooth="yes"/>
      <point x="182" y="529"/>
      <point x="242" y="554"/>
    </contour>
    <contour>
      <point x="311" y="616" type="curve" smooth="yes"/>
      <point x="223" y="616"/>
      <point x="149" y="585"/>
      <point x="88" y="524" type="curve" smooth="yes"/>
      <point x="28" y="463"/>
      <point x="-2" y="389"/>
      <point x="-2" y="302" type="curve" smooth="yes"/>
      <point x="-2" y="215"/>
      <point x="29" y="141"/>
      <point x="90" y="80" type="curve" smooth="yes"/>
      <point x="152" y="19"/>
      <point x="226" y="-11"/>
      <point x="311" y="-11" type="curve" smooth="yes"/>
      <point x="399" y="-11"/>
      <point x="473" y="20"/>
      <point x="534" y="82" type="curve" smooth="yes"/>
      <point x="595" y="144"/>
      <point x="625" y="217"/>
      <point x="625" y="302" type="curve" smooth="yes"/>
      <point x="625" y="391"/>
      <point x="594" y="466"/>
      <point x="532" y="526" type="curve" smooth="yes"/>
      <point x="471" y="586"/>
      <point x="397" y="616"/>
    </contour>
  </outline>
</glyph>
<glyph name="registered" format="1">
  <advance width="618"/>
  <unicode hex="00AE"/>
  <outline>
    <contour>
      <point x="237" y="415" type="line" name="hr00"/>
      <point x="264" y="415" type="line" smooth="yes"/>
      <point x="323" y="415"/>
      <point x="354" y="408"/>
      <point x="359" y="394" type="curve"/>
      <point x="365" y="387"/>
      <point x="368" y="379"/>
      <point x="368" y="369" type="curve" smooth="yes"/>
      <point x="368" y="351"/>
      <point x="361" y="339"/>
      <point x="348" y="332" type="curve" smooth="yes"/>
      <point x="335" y="326"/>
      <point x="307" y="323"/>
      <point x="264" y="323" type="curve" smooth="yes"/>
      <point x="237" y="323" type="line"/>
    </contour>
    <contour>
      <point x="237" y="134" type="line"/>
      <point x="237" y="271" type="line"/>
      <point x="255" y="271" type="line" smooth="yes"/>
      <point x="294" y="271"/>
      <point x="315" y="255"/>
      <point x="348" y="189" type="curve" smooth="yes"/>
      <point x="376" y="134" type="line"/>
      <point x="459" y="134" type="line"/>
      <point x="420" y="201" type="line"/>
      <point x="395" y="242" type="line" smooth="yes"/>
      <point x="382" y="264"/>
      <point x="365" y="276"/>
      <point x="350" y="280" type="curve"/>
      <point x="410" y="290"/>
      <point x="440" y="321"/>
      <point x="440" y="373" type="curve" smooth="yes"/>
      <point x="440" y="425"/>
      <point x="402" y="465"/>
      <point x="343" y="466" type="curve" smooth="yes"/>
      <point x="237" y="468" type="line"/>
      <point x="169" y="468" type="line"/>
      <point x="169" y="134" type="line"/>
    </contour>
    <contour>
      <point x="311" y="554" type="curve" smooth="yes"/>
      <point x="383" y="554"/>
      <point x="443" y="529"/>
      <point x="491" y="480" type="curve" smooth="yes"/>
      <point x="540" y="431"/>
      <point x="564" y="371"/>
      <point x="564" y="302" type="curve" smooth="yes"/>
      <point x="564" y="231"/>
      <point x="539" y="171"/>
      <point x="489" y="122" type="curve" smooth="yes"/>
      <point x="440" y="73"/>
      <point x="380" y="49"/>
      <point x="311" y="49" type="curve" smooth="yes"/>
      <point x="242" y="49"/>
      <point x="182" y="74"/>
      <point x="133" y="124" type="curve" smooth="yes"/>
      <point x="84" y="175"/>
      <point x="60" y="234"/>
      <point x="60" y="302" type="curve" smooth="yes"/>
      <point x="60" y="369"/>
      <point x="84" y="427"/>
      <point x="132" y="478" type="curve" smooth="yes"/>
      <point x="180" y="529"/>
      <point x="240" y="554"/>
    </contour>
    <contour>
      <point x="311" y="616" type="curve" smooth="yes"/>
      <point x="222" y="616"/>
      <point x="148" y="585"/>
      <point x="88" y="524" type="curve" smooth="yes"/>
      <point x="28" y="463"/>
      <point x="-2" y="389"/>
      <point x="-2" y="302" type="curve" smooth="yes"/>
      <point x="-2" y="215"/>
      <point x="29" y="141"/>
      <point x="90" y="80" type="curve" smooth="yes"/>
      <point x="152" y="19"/>
      <point x="226" y="-11"/>
      <point x="311" y="-11" type="curve" smooth="yes"/>
      <point x="399" y="-11"/>
      <point x="473" y="20"/>
      <point x="534" y="82" type="curve" smooth="yes"/>
      <point x="595" y="144"/>
      <point x="625" y="217"/>
      <point x="625" y="302" type="curve" smooth="yes"/>
      <point x="625" y="392"/>
      <point x="594" y="466"/>
      <point x="532" y="526" type="curve" smooth="yes"/>
      <point x="471" y="585"/>
      <point x="397" y="616"/>
    </contour>
  </outline>
</glyph>
<glyph name="onequarter" format="1">
  <advance width="774"/>
  <unicode hex="00BC"/>
  <outline>
    <contour>
      <point x="211" y="269" type="line" name="hr00"/>
      <point x="211" y="645" type="line"/>
      <point x="160" y="645" type="line"/>
      <point x="155" y="593"/>
      <point x="128" y="575"/>
      <point x="64" y="575" type="curve" smooth="yes"/>
      <point x="54" y="575" type="line"/>
      <point x="54" y="538" type="line"/>
      <point x="68" y="538" type="line" smooth="yes"/>
      <point x="93" y="538"/>
      <point x="110" y="539"/>
      <point x="118" y="540" type="curve" smooth="yes"/>
      <point x="126" y="542"/>
      <point x="138" y="543"/>
      <point x="155" y="543" type="curve"/>
      <point x="155" y="269" type="line"/>
    </contour>
    <contour>
      <point x="217" y="-26" type="line"/>
      <point x="640" y="654" type="line"/>
      <point x="573" y="654" type="line"/>
      <point x="149" y="-26" type="line"/>
    </contour>
    <contour>
      <point x="717" y="-7" type="line"/>
      <point x="717" y="83" type="line"/>
      <point x="770" y="83" type="line"/>
      <point x="770" y="126" type="line"/>
      <point x="717" y="126" type="line"/>
      <point x="717" y="359" type="line"/>
      <point x="662" y="359" type="line"/>
      <point x="485" y="121" type="line"/>
      <point x="485" y="83" type="line"/>
      <point x="661" y="83" type="line"/>
      <point x="661" y="-7" type="line"/>
    </contour>
    <contour>
      <point x="545" y="126" type="line"/>
      <point x="661" y="284" type="line"/>
      <point x="661" y="126" type="line"/>
    </contour>
  </outline>
</glyph>
<glyph name="onehalf" format="1">
  <advance width="774"/>
  <unicode hex="00BD"/>
  <outline>
    <contour>
      <point x="211" y="269" type="line" name="hr00"/>
      <point x="211" y="645" type="line"/>
      <point x="160" y="645" type="line"/>
      <point x="155" y="593"/>
      <point x="128" y="575"/>
      <point x="64" y="575" type="curve" smooth="yes"/>
      <point x="54" y="575" type="line"/>
      <point x="54" y="538" type="line"/>
      <point x="68" y="538" type="line" smooth="yes"/>
      <point x="93" y="538"/>
      <point x="110" y="539"/>
      <point x="118" y="540" type="curve" smooth="yes"/>
      <point x="126" y="542"/>
      <point x="138" y="543"/>
      <point x="155" y="543" type="curve"/>
      <point x="155" y="269" type="line"/>
    </contour>
    <contour>
      <point x="217" y="-26" type="line"/>
      <point x="640" y="654" type="line"/>
      <point x="573" y="654" type="line"/>
      <point x="149" y="-26" type="line"/>
    </contour>
    <contour>
      <point x="765" y="-7" type="line"/>
      <point x="765" y="36" type="line"/>
      <point x="540" y="36" type="line"/>
      <point x="541" y="56"/>
      <point x="563" y="83"/>
      <point x="623" y="114" type="curve" smooth="yes"/>
      <point x="654" y="130" type="line" smooth="yes"/>
      <point x="693" y="150"/>
      <point x="718" y="166"/>
      <point x="731" y="179" type="curve" smooth="yes"/>
      <point x="755" y="203"/>
      <point x="766" y="226"/>
      <point x="766" y="257" type="curve" smooth="yes"/>
      <point x="766" y="325"/>
      <point x="714" y="369"/>
      <point x="634" y="369" type="curve" smooth="yes"/>
      <point x="546" y="369"/>
      <point x="497" y="325"/>
      <point x="493" y="236" type="curve"/>
      <point x="547" y="236" type="line"/>
      <point x="550" y="299"/>
      <point x="578" y="326"/>
      <point x="633" y="326" type="curve" smooth="yes"/>
      <point x="682" y="326"/>
      <point x="710" y="300"/>
      <point x="710" y="257" type="curve" smooth="yes"/>
      <point x="710" y="236"/>
      <point x="703" y="219"/>
      <point x="688" y="206" type="curve" smooth="yes"/>
      <point x="678" y="196"/>
      <point x="657" y="184"/>
      <point x="625" y="167" type="curve" smooth="yes"/>
      <point x="609" y="159"/>
      <point x="596" y="152"/>
      <point x="587" y="147" type="curve" smooth="yes"/>
      <point x="512" y="106"/>
      <point x="483" y="66"/>
      <point x="483" y="11" type="curve" smooth="yes"/>
      <point x="483" y="-7" type="line"/>
    </contour>
  </outline>
</glyph>
<glyph name="threequarters" format="1">
  <advance width="773"/>
  <unicode hex="00BE"/>
  <outline>
    <contour>
      <point x="19" y="380" type="line" smooth="yes" name="hr00"/>
      <point x="19" y="304"/>
      <point x="72" y="259"/>
      <point x="160" y="259" type="curve" smooth="yes"/>
      <point x="247" y="259"/>
      <point x="300" y="303"/>
      <point x="300" y="375" type="curve" smooth="yes"/>
      <point x="300" y="400"/>
      <point x="293" y="421"/>
      <point x="280" y="438" type="curve" smooth="yes"/>
      <point x="267" y="455"/>
      <point x="256" y="465"/>
      <point x="246" y="466" type="curve"/>
      <point x="259" y="475"/>
      <point x="287" y="506"/>
      <point x="287" y="545" type="curve" smooth="yes"/>
      <point x="287" y="606"/>
      <point x="239" y="645"/>
      <point x="162" y="645" type="curve" smooth="yes"/>
      <point x="83" y="645"/>
      <point x="36" y="605"/>
      <point x="31" y="524" type="curve"/>
      <point x="86" y="524" type="line"/>
      <point x="87" y="580"/>
      <point x="114" y="603"/>
      <point x="162" y="603" type="curve" smooth="yes"/>
      <point x="205" y="603"/>
      <point x="231" y="580"/>
      <point x="231" y="545" type="curve" smooth="yes"/>
      <point x="231" y="504"/>
      <point x="203" y="484"/>
      <point x="146" y="484" type="curve" smooth="yes"/>
      <point x="123" y="484" type="line"/>
      <point x="123" y="440" type="line"/>
      <point x="139" y="444"/>
      <point x="140" y="443"/>
      <point x="149" y="443" type="curve" smooth="yes"/>
      <point x="214" y="443"/>
      <point x="244" y="422"/>
      <point x="244" y="375" type="curve" smooth="yes"/>
      <point x="244" y="327"/>
      <point x="213" y="302"/>
      <point x="158" y="302" type="curve" smooth="yes"/>
      <point x="106" y="302"/>
      <point x="77" y="328"/>
      <point x="76" y="387" type="curve"/>
      <point x="19" y="387" type="line"/>
    </contour>
    <contour>
      <point x="215" y="-26" type="line"/>
      <point x="640" y="654" type="line"/>
      <point x="573" y="654" type="line"/>
      <point x="149" y="-26" type="line"/>
    </contour>
    <contour>
      <point x="715" y="-7" type="line"/>
      <point x="715" y="83" type="line"/>
      <point x="769" y="83" type="line"/>
      <point x="769" y="126" type="line"/>
      <point x="715" y="126" type="line"/>
      <point x="715" y="359" type="line"/>
      <point x="661" y="359" type="line"/>
      <point x="484" y="121" type="line"/>
      <point x="484" y="83" type="line"/>
      <point x="661" y="83" type="line"/>
      <point x="661" y="-7" type="line"/>
    </contour>
    <contour>
      <point x="545" y="126" type="line"/>
      <point x="661" y="284" type="line"/>
      <point x="661" y="126" type="line"/>
    </contour>
  </outline>
</glyph>
<glyph name="multiply" format="1">
  <advance width="600"/>
  <unicode hex="00D7"/>
  <outline>
    <contour>
      <point x="448" y="498" type="line" name="hr00"/>
      <point x="308" y="321" type="line"/>
      <point x="167" y="498" type="line"/>
      <point x="40" y="496" type="line"/>
      <point x="244" y="243" type="line"/>
      <point x="42" y="-7" type="line"/>
      <point x="165" y="-7" type="line"/>
      <point x="308" y="167" type="line"/>
      <point x="448" y="-7" type="line"/>
      <point x="571" y="-7" type="line"/>
      <point x="369" y="243" type="line"/>
      <point x="573" y="496" type="line"/>
    </contour>
  </outline>
</glyph>
<glyph name="divide" format="1">
  <advance width="593"/>
  <unicode hex="00F7"/>
  <outline>
    <contour>
      <point x="369" y="94" type="curve" smooth="yes" name="hr00"/>
      <point x="369" y="115"/>
      <point x="362" y="132"/>
      <point x="347" y="144" type="curve"/>
      <point x="332" y="159"/>
      <point x="314" y="167"/>
      <point x="293" y="167" type="curve" smooth="yes"/>
      <point x="270" y="167"/>
      <point x="251" y="158"/>
      <point x="234" y="143" type="curve" smooth="yes"/>
      <point x="220" y="129"/>
      <point x="211" y="112"/>
      <point x="211" y="90" type="curve" smooth="yes"/>
      <point x="211" y="45"/>
      <point x="240" y="7"/>
      <point x="287" y="7" type="curve" smooth="yes"/>
      <point x="330" y="7"/>
      <point x="369" y="45"/>
    </contour>
    <contour>
      <point x="551" y="322" type="line"/>
      <point x="40" y="322" type="line"/>
      <point x="40" y="218" type="line"/>
      <point x="551" y="218" type="line"/>
    </contour>
    <contour>
      <point x="369" y="450" type="curve" smooth="yes"/>
      <point x="369" y="490"/>
      <point x="337" y="522"/>
      <point x="293" y="522" type="curve" smooth="yes"/>
      <point x="245" y="522"/>
      <point x="211" y="487"/>
      <point x="211" y="447" type="curve" smooth="yes"/>
      <point x="211" y="400"/>
      <point x="239" y="364"/>
      <point x="287" y="364" type="curve" smooth="yes"/>
      <point x="330" y="364"/>
      <point x="369" y="401"/>
    </contour>
  </outline>
</glyph>
<glyph name="uni0950" format="1">
  <advance width="769"/>
  <unicode hex="0950"/>
  <outline>
    <contour>
      <point x="354" y="670" type="line" name="hr00"/>
      <point x="400" y="622" type="line"/>
      <point x="445" y="666" type="line"/>
      <point x="400" y="713" type="line"/>
    </contour>
    <contour>
      <point x="266" y="623" type="line"/>
      <point x="309" y="557"/>
      <point x="363" y="524"/>
      <point x="426" y="524" type="curve" smooth="yes"/>
      <point x="468" y="524"/>
      <point x="509" y="545"/>
      <point x="548" y="588" type="curve"/>
      <point x="487" y="638" type="line"/>
      <point x="460" y="601"/>
      <point x="428" y="582"/>
      <point x="390" y="582" type="curve" smooth="yes"/>
      <point x="351" y="582"/>
      <point x="316" y="601"/>
      <point x="287" y="638" type="curve"/>
    </contour>
    <contour>
      <point x="507" y="389" type="curve"/>
      <point x="525" y="426"/>
      <point x="553" y="445"/>
      <point x="592" y="445" type="curve" smooth="yes"/>
      <point x="648" y="445"/>
      <point x="688" y="389"/>
      <point x="688" y="308" type="curve" smooth="yes"/>
      <point x="688" y="223"/>
      <point x="643" y="162"/>
      <point x="586" y="162" type="curve" smooth="yes"/>
      <point x="551" y="162"/>
      <point x="533" y="191"/>
      <point x="533" y="248" type="curve" smooth="yes"/>
      <point x="533" y="276" type="line"/>
      <point x="533" y="331" type="line" smooth="yes"/>
      <point x="533" y="360"/>
      <point x="524" y="380"/>
    </contour>
    <contour>
      <point x="37" y="331" type="line"/>
      <point x="45" y="238"/>
      <point x="75" y="159"/>
      <point x="127" y="96" type="curve" smooth="yes"/>
      <point x="179" y="33"/>
      <point x="240" y="1"/>
      <point x="310" y="1" type="curve" smooth="yes"/>
      <point x="397" y="1"/>
      <point x="453" y="55"/>
      <point x="453" y="134" type="curve" smooth="yes"/>
      <point x="453" y="183"/>
      <point x="433" y="235"/>
      <point x="392" y="290" type="curve"/>
      <point x="423" y="311"/>
      <point x="447" y="321"/>
      <point x="466" y="321" type="curve" smooth="yes"/>
      <point x="489" y="321"/>
      <point x="501" y="299"/>
      <point x="501" y="255" type="curve" smooth="yes"/>
      <point x="501" y="221" type="line" smooth="yes"/>
      <point x="501" y="132"/>
      <point x="523" y="99"/>
      <point x="582" y="99" type="curve" smooth="yes"/>
      <point x="667" y="99"/>
      <point x="720" y="182"/>
      <point x="720" y="313" type="curve" smooth="yes"/>
      <point x="720" y="444"/>
      <point x="681" y="508"/>
      <point x="601" y="508" type="curve" smooth="yes"/>
      <point x="540" y="508"/>
      <point x="503" y="471"/>
      <point x="489" y="396" type="curve"/>
      <point x="481" y="397"/>
      <point x="476" y="397"/>
      <point x="473" y="397" type="curve" smooth="yes"/>
      <point x="436" y="397"/>
      <point x="396" y="377"/>
      <point x="355" y="338" type="curve"/>
      <point x="339" y="353" type="line"/>
      <point x="348" y="370"/>
      <point x="352" y="387"/>
      <point x="352" y="405" type="curve" smooth="yes"/>
      <point x="352" y="490"/>
      <point x="295" y="549"/>
      <point x="212" y="549" type="curve" smooth="yes"/>
      <point x="180" y="549"/>
      <point x="150" y="542"/>
      <point x="122" y="528" type="curve"/>
      <point x="152" y="456" type="line"/>
      <point x="187" y="475"/>
      <point x="221" y="485"/>
      <point x="253" y="485" type="curve" smooth="yes"/>
      <point x="297" y="485"/>
      <point x="320" y="465"/>
      <point x="320" y="428" type="curve" smooth="yes"/>
      <point x="320" y="379"/>
      <point x="284" y="345"/>
      <point x="213" y="324" type="curve"/>
      <point x="243" y="252" type="line"/>
      <point x="275" y="267"/>
      <point x="303" y="290"/>
      <point x="326" y="322" type="curve"/>
      <point x="371" y="276"/>
      <point x="394" y="225"/>
      <point x="394" y="169" type="curve" smooth="yes"/>
      <point x="394" y="108"/>
      <point x="346" y="59"/>
      <point x="289" y="59" type="curve" smooth="yes"/>
      <point x="234" y="59"/>
      <point x="186" y="85"/>
      <point x="143" y="137" type="curve" smooth="yes"/>
      <point x="101" y="189"/>
      <point x="73" y="256"/>
      <point x="60" y="338" type="curve"/>
    </contour>
  </outline>
</glyph>
<glyph name="uni0951" format="1">
  <advance width="0"/>
  <unicode hex="0951"/>
  <outline>
    <contour>
      <point x="-206" y="1358" type="line" name="hr00"/>
      <point x="-264" y="1358" type="line"/>
      <point x="-264" y="935" type="line"/>
      <point x="-206" y="935" type="line"/>
    </contour>
  </outline>
</glyph>
<glyph name="uni0952" format="1">
  <advance width="0"/>
  <unicode hex="0952"/>
  <outline>
    <contour>
      <point x="-59" y="-365" type="line" name="hr00"/>
      <point x="-651" y="-365" type="line"/>
      <point x="-651" y="-416" type="line"/>
      <point x="-59" y="-416" type="line"/>
    </contour>
  </outline>
</glyph>
<glyph name="uni0964" format="1">
  <advance width="262"/>
  <unicode hex="0964"/>
  <outline>
    <contour>
      <point x="206" y="535" type="line" name="hr00"/>
      <point x="109" y="535" type="line"/>
      <point x="109" y="-75" type="line"/>
      <point x="206" y="-75" type="line"/>
    </contour>
  </outline>
</glyph>
<glyph name="uni0965" format="1">
  <advance width="499"/>
  <unicode hex="0965"/>
  <outline>
    <contour>
      <point x="443" y="-75" type="line" name="hr00"/>
      <point x="443" y="535" type="line"/>
      <point x="345" y="535" type="line"/>
      <point x="345" y="-75" type="line"/>
    </contour>
    <contour>
      <point x="206" y="-75" type="line"/>
      <point x="206" y="535" type="line"/>
      <point x="109" y="535" type="line"/>
      <point x="109" y="-75" type="line"/>
    </contour>
  </outline>
</glyph>
<glyph name="uni0C01" format="1">
  <advance width="338"/>
  <unicode hex="0C01"/>
  <outline>
    <contour>
      <point x="313" y="439" type="line" name="hr00"/>
      <point x="224" y="459"/>
      <point x="153" y="444"/>
      <point x="99" y="395" type="curve" smooth="yes"/>
      <point x="45" y="346"/>
      <point x="18" y="292"/>
      <point x="18" y="233" type="curve" smooth="yes"/>
      <point x="18" y="165"/>
      <point x="38" y="108"/>
      <point x="80" y="62" type="curve" smooth="yes"/>
      <point x="121" y="17"/>
      <point x="179" y="-5"/>
      <point x="251" y="-6" type="curve" smooth="yes"/>
      <point x="265" y="-6"/>
      <point x="282" y="-3"/>
      <point x="301" y="4" type="curve"/>
      <point x="301" y="38" type="line"/>
      <point x="301" y="86" type="line"/>
      <point x="222" y="58"/>
      <point x="119" y="94"/>
      <point x="122" y="227" type="curve" smooth="yes"/>
      <point x="123" y="265"/>
      <point x="138" y="298"/>
      <point x="166" y="329" type="curve" smooth="yes"/>
      <point x="196" y="361"/>
      <point x="244" y="372"/>
      <point x="313" y="359" type="curve"/>
      <point x="313" y="402" type="line"/>
    </contour>
  </outline>
</glyph>
<glyph name="uni0C02" format="1">
  <advance width="523"/>
  <unicode hex="0C02"/>
  <outline>
    <contour>
      <point x="402" y="218" type="curve" smooth="yes" name="hr00"/>
      <point x="402" y="189"/>
      <point x="387" y="160"/>
      <point x="356" y="131" type="curve" smooth="yes"/>
      <point x="327" y="104"/>
      <point x="294" y="91"/>
      <point x="257" y="91" type="curve" smooth="yes"/>
      <point x="176" y="91"/>
      <point x="122" y="144"/>
      <point x="122" y="229" type="curve" smooth="yes"/>
      <point x="122" y="262"/>
      <point x="135" y="292"/>
      <point x="160" y="319" type="curve" smooth="yes"/>
      <point x="186" y="346"/>
      <point x="219" y="359"/>
      <point x="260" y="359" type="curve" smooth="yes"/>
      <point x="306" y="359"/>
      <point x="343" y="342"/>
      <point x="370" y="308" type="curve" smooth="yes"/>
      <point x="391" y="282"/>
      <point x="402" y="252"/>
    </contour>
    <contour>
      <point x="498" y="225" type="curve" smooth="yes"/>
      <point x="498" y="296"/>
      <point x="474" y="354"/>
      <point x="424" y="396" type="curve" smooth="yes"/>
      <point x="379" y="435"/>
      <point x="325" y="453"/>
      <point x="265" y="453" type="curve" smooth="yes"/>
      <point x="216" y="453"/>
      <point x="166" y="440"/>
      <point x="118" y="410" type="curve" smooth="yes"/>
      <point x="50" y="367"/>
      <point x="18" y="306"/>
      <point x="18" y="229" type="curve" smooth="yes"/>
      <point x="18" y="147"/>
      <point x="44" y="85"/>
      <point x="96" y="44" type="curve" smooth="yes"/>
      <point x="137" y="11"/>
      <point x="188" y="-6"/>
      <point x="249" y="-6" type="curve" smooth="yes"/>
      <point x="309" y="-6"/>
      <point x="363" y="12"/>
      <point x="412" y="51" type="curve" smooth="yes"/>
      <point x="469" y="96"/>
      <point x="498" y="155"/>
    </contour>
  </outline>
</glyph>
<glyph name="uni0C03" format="1">
  <advance width="264"/>
  <unicode hex="0C03"/>
  <outline>
    <contour>
      <point x="170" y="99" type="curve" smooth="yes" name="hr00"/>
      <point x="170" y="71"/>
      <point x="155" y="57"/>
      <point x="124" y="57" type="curve" smooth="yes"/>
      <point x="97" y="57"/>
      <point x="83" y="70"/>
      <point x="83" y="97" type="curve" smooth="yes"/>
      <point x="83" y="124"/>
      <point x="98" y="137"/>
      <point x="129" y="137" type="curve" smooth="yes"/>
      <point x="156" y="137"/>
      <point x="170" y="124"/>
    </contour>
    <contour>
      <point x="175" y="354" type="curve" smooth="yes"/>
      <point x="175" y="328"/>
      <point x="159" y="315"/>
      <point x="128" y="315" type="curve" smooth="yes"/>
      <point x="101" y="315"/>
      <point x="87" y="328"/>
      <point x="87" y="354" type="curve" smooth="yes"/>
      <point x="87" y="379"/>
      <point x="103" y="392"/>
      <point x="134" y="392" type="curve" smooth="yes"/>
      <point x="161" y="392"/>
      <point x="175" y="379"/>
    </contour>
    <contour>
      <point x="235" y="100" type="curve" smooth="yes"/>
      <point x="235" y="155"/>
      <point x="194" y="192"/>
      <point x="127" y="192" type="curve" smooth="yes"/>
      <point x="67" y="192"/>
      <point x="18" y="151"/>
      <point x="18" y="94" type="curve" smooth="yes"/>
      <point x="18" y="60"/>
      <point x="35" y="32"/>
      <point x="69" y="10" type="curve" smooth="yes"/>
      <point x="82" y="2"/>
      <point x="100" y="-2"/>
      <point x="125" y="-2" type="curve" smooth="yes"/>
      <point x="157" y="-2"/>
      <point x="181" y="6"/>
      <point x="202" y="30" type="curve"/>
      <point x="224" y="49"/>
      <point x="235" y="72"/>
    </contour>
    <contour>
      <point x="239" y="357" type="curve" smooth="yes"/>
      <point x="239" y="383"/>
      <point x="229" y="404"/>
      <point x="210" y="419" type="curve"/>
      <point x="190" y="440"/>
      <point x="163" y="450"/>
      <point x="130" y="450" type="curve" smooth="yes"/>
      <point x="101" y="450"/>
      <point x="75" y="440"/>
      <point x="54" y="420" type="curve" smooth="yes"/>
      <point x="33" y="401"/>
      <point x="22" y="377"/>
      <point x="22" y="350" type="curve" smooth="yes"/>
      <point x="22" y="315"/>
      <point x="39" y="287"/>
      <point x="72" y="268" type="curve" smooth="yes"/>
      <point x="88" y="259"/>
      <point x="107" y="255"/>
      <point x="129" y="255" type="curve" smooth="yes"/>
      <point x="160" y="255"/>
      <point x="186" y="264"/>
      <point x="206" y="284" type="curve" smooth="yes"/>
      <point x="229" y="306"/>
      <point x="239" y="331"/>
    </contour>
  </outline>
</glyph>
<glyph name="uni0C05" format="1">
  <advance width="606"/>
  <unicode hex="0C05"/>
  <outline>
    <contour>
      <point x="400" y="215" type="line" name="hr00"/>
      <point x="399" y="305" type="line"/>
      <point x="387" y="305" type="line" smooth="yes"/>
      <point x="356" y="305"/>
      <point x="340" y="318"/>
      <point x="340" y="344" type="curve" smooth="yes"/>
      <point x="340" y="375"/>
      <point x="359" y="391"/>
      <point x="397" y="391" type="curve" smooth="yes"/>
      <point x="415" y="391"/>
      <point x="434" y="381"/>
      <point x="454" y="360" type="curve" smooth="yes"/>
      <point x="477" y="334"/>
      <point x="488" y="303"/>
      <point x="488" y="268" type="curve" smooth="yes"/>
      <point x="488" y="217"/>
      <point x="471" y="173"/>
      <point x="436" y="138" type="curve" smooth="yes"/>
      <point x="401" y="103"/>
      <point x="354" y="85"/>
      <point x="294" y="85" type="curve" smooth="yes"/>
      <point x="246" y="85"/>
      <point x="204" y="96"/>
      <point x="170" y="120" type="curve" smooth="yes"/>
      <point x="142" y="140"/>
      <point x="126" y="177"/>
      <point x="120" y="227" type="curve" smooth="yes"/>
      <point x="114" y="277"/>
      <point x="124" y="319"/>
      <point x="151" y="352" type="curve" smooth="yes"/>
      <point x="178" y="385"/>
      <point x="203" y="398"/>
      <point x="225" y="391" type="curve"/>
      <point x="225" y="484" type="line"/>
      <point x="171" y="484"/>
      <point x="127" y="466"/>
      <point x="90" y="429" type="curve" smooth="yes"/>
      <point x="68" y="407"/>
      <point x="50" y="380"/>
      <point x="37" y="346" type="curve" smooth="yes"/>
      <point x="24" y="313"/>
      <point x="18" y="285"/>
      <point x="18" y="263" type="curve" smooth="yes"/>
      <point x="18" y="177"/>
      <point x="43" y="111"/>
      <point x="93" y="64" type="curve" smooth="yes"/>
      <point x="144" y="17"/>
      <point x="210" y="-6"/>
      <point x="292" y="-6" type="curve" smooth="yes"/>
      <point x="369" y="-6"/>
      <point x="435" y="18"/>
      <point x="488" y="67" type="curve" smooth="yes"/>
      <point x="551" y="124"/>
      <point x="582" y="187"/>
      <point x="582" y="257" type="curve" smooth="yes"/>
      <point x="582" y="317"/>
      <point x="564" y="369"/>
      <point x="529" y="412" type="curve" smooth="yes"/>
      <point x="494" y="455"/>
      <point x="454" y="476"/>
      <point x="410" y="477" type="curve" smooth="yes"/>
      <point x="301" y="479"/>
      <point x="247" y="418"/>
      <point x="244" y="337" type="curve"/>
      <point x="249" y="294" type="line"/>
      <point x="135" y="294" type="line"/>
      <point x="135" y="215" type="line"/>
    </contour>
  </outline>
</glyph>
<glyph name="uni0C06" format="1">
  <advance width="581"/>
  <unicode hex="0C06"/>
  <outline>
    <contour>
      <point x="451" y="357" type="curve" smooth="yes" name="hr00"/>
      <point x="451" y="334"/>
      <point x="437" y="322"/>
      <point x="409" y="322" type="curve"/>
      <point x="380" y="325"/>
      <point x="365" y="336"/>
      <point x="365" y="354" type="curve" smooth="yes"/>
      <point x="365" y="379"/>
      <point x="379" y="391"/>
      <point x="408" y="391" type="curve" smooth="yes"/>
      <point x="437" y="391"/>
      <point x="451" y="380"/>
    </contour>
    <contour>
      <point x="556" y="192" type="curve" smooth="yes"/>
      <point x="556" y="223"/>
      <point x="544" y="251"/>
      <point x="521" y="276" type="curve"/>
      <point x="538" y="290"/>
      <point x="547" y="318"/>
      <point x="547" y="361" type="curve" smooth="yes"/>
      <point x="547" y="392"/>
      <point x="537" y="420"/>
      <point x="515" y="442" type="curve" smooth="yes"/>
      <point x="489" y="468"/>
      <point x="453" y="479"/>
      <point x="410" y="479" type="curve" smooth="yes"/>
      <point x="369" y="479"/>
      <point x="335" y="467"/>
      <point x="307" y="442" type="curve" smooth="yes"/>
      <point x="279" y="418"/>
      <point x="265" y="391"/>
      <point x="265" y="361" type="curve"/>
      <point x="262" y="338"/>
      <point x="270" y="317"/>
      <point x="287" y="297" type="curve"/>
      <point x="167" y="297" type="line"/>
      <point x="167" y="220" type="line"/>
      <point x="398" y="220" type="line" smooth="yes"/>
      <point x="418" y="220"/>
      <point x="435" y="225"/>
      <point x="450" y="233" type="curve"/>
      <point x="457" y="220"/>
      <point x="461" y="204"/>
      <point x="461" y="187" type="curve" smooth="yes"/>
      <point x="461" y="170"/>
      <point x="445" y="149"/>
      <point x="414" y="123" type="curve" smooth="yes"/>
      <point x="379" y="92"/>
      <point x="338" y="76"/>
      <point x="293" y="76" type="curve" smooth="yes"/>
      <point x="233" y="76"/>
      <point x="187" y="96"/>
      <point x="155" y="137" type="curve" smooth="yes"/>
      <point x="134" y="165"/>
      <point x="122" y="200"/>
      <point x="120" y="243" type="curve"/>
      <point x="122" y="284"/>
      <point x="133" y="318"/>
      <point x="154" y="345" type="curve" smooth="yes"/>
      <point x="175" y="372"/>
      <point x="197" y="386"/>
      <point x="218" y="386" type="curve"/>
      <point x="235" y="382" type="line"/>
      <point x="235" y="473" type="line"/>
      <point x="174" y="473"/>
      <point x="121" y="446"/>
      <point x="77" y="389" type="curve" smooth="yes"/>
      <point x="37" y="338"/>
      <point x="18" y="286"/>
      <point x="18" y="236" type="curve" smooth="yes"/>
      <point x="18" y="149"/>
      <point x="54" y="83"/>
      <point x="127" y="38" type="curve" smooth="yes"/>
      <point x="174" y="9"/>
      <point x="229" y="-6"/>
      <point x="292" y="-6" type="curve" smooth="yes"/>
      <point x="348" y="-6"/>
      <point x="397" y="7"/>
      <point x="440" y="33" type="curve" smooth="yes"/>
      <point x="517" y="78"/>
      <point x="556" y="131"/>
    </contour>
  </outline>
</glyph>
<glyph name="uni0C07" format="1">
  <advance width="610"/>
  <unicode hex="0C07"/>
  <outline>
    <contour>
      <point x="357" y="128" type="curve" name="hr00"/>
      <point x="345" y="117"/>
      <point x="325" y="109"/>
      <point x="298" y="100" type="curve" smooth="yes"/>
      <point x="265" y="88"/>
      <point x="250" y="85"/>
      <point x="234" y="85" type="curve" smooth="yes"/>
      <point x="211" y="85"/>
      <point x="187" y="90"/>
      <point x="163" y="100" type="curve" smooth="yes"/>
      <point x="139" y="111"/>
      <point x="126" y="123"/>
      <point x="127" y="137" type="curve" smooth="yes"/>
      <point x="127" y="150"/>
      <point x="139" y="162"/>
      <point x="159" y="171" type="curve" smooth="yes"/>
      <point x="179" y="180"/>
      <point x="200" y="185"/>
      <point x="223" y="185" type="curve" smooth="yes"/>
      <point x="247" y="185"/>
      <point x="274" y="179"/>
      <point x="304" y="167" type="curve"/>
      <point x="329" y="154"/>
      <point x="347" y="141"/>
    </contour>
    <contour>
      <point x="586" y="-43" type="line"/>
      <point x="566" y="29"/>
      <point x="531" y="90"/>
      <point x="481" y="141" type="curve"/>
      <point x="514" y="190"/>
      <point x="531" y="240"/>
      <point x="531" y="291" type="curve" smooth="yes"/>
      <point x="531" y="346"/>
      <point x="517" y="394"/>
      <point x="489" y="433" type="curve" smooth="yes"/>
      <point x="461" y="473"/>
      <point x="423" y="493"/>
      <point x="376" y="493" type="curve" smooth="yes"/>
      <point x="330" y="493"/>
      <point x="297" y="478"/>
      <point x="277" y="447" type="curve"/>
      <point x="256" y="463"/>
      <point x="240" y="472"/>
      <point x="223" y="477" type="curve"/>
      <point x="202" y="480"/>
      <point x="181" y="480"/>
      <point x="159" y="480" type="curve" smooth="yes"/>
      <point x="108" y="479"/>
      <point x="69" y="458"/>
      <point x="44" y="413" type="curve" smooth="yes"/>
      <point x="27" y="384"/>
      <point x="18" y="355"/>
      <point x="18" y="327" type="curve" smooth="yes"/>
      <point x="18" y="295" type="line"/>
      <point x="143" y="300" type="line"/>
      <point x="133" y="313"/>
      <point x="128" y="326"/>
      <point x="128" y="337" type="curve" smooth="yes"/>
      <point x="128" y="372"/>
      <point x="142" y="390"/>
      <point x="169" y="390" type="curve" smooth="yes"/>
      <point x="186" y="390"/>
      <point x="199" y="382"/>
      <point x="212" y="368" type="curve" smooth="yes"/>
      <point x="227" y="350"/>
      <point x="235" y="330"/>
      <point x="233" y="303" type="curve"/>
      <point x="341" y="303" type="line"/>
      <point x="333" y="320"/>
      <point x="329" y="338"/>
      <point x="329" y="357" type="curve" smooth="yes"/>
      <point x="329" y="386"/>
      <point x="345" y="401"/>
      <point x="376" y="401" type="curve" smooth="yes"/>
      <point x="394" y="401"/>
      <point x="410" y="392"/>
      <point x="423" y="375" type="curve"/>
      <point x="435" y="354"/>
      <point x="441" y="333"/>
      <point x="441" y="310" type="curve" smooth="yes"/>
      <point x="441" y="268"/>
      <point x="432" y="230"/>
      <point x="415" y="197" type="curve"/>
      <point x="346" y="250"/>
      <point x="287" y="276"/>
      <point x="236" y="276" type="curve" smooth="yes"/>
      <point x="191" y="276"/>
      <point x="146" y="265"/>
      <point x="101" y="241" type="curve" smooth="yes"/>
      <point x="52" y="215"/>
      <point x="29" y="181"/>
      <point x="29" y="143" type="curve" smooth="yes"/>
      <point x="29" y="90"/>
      <point x="51" y="51"/>
      <point x="94" y="25" type="curve" smooth="yes"/>
      <point x="128" y="4"/>
      <point x="171" y="-6"/>
      <point x="222" y="-6" type="curve" smooth="yes"/>
      <point x="285" y="-6"/>
      <point x="351" y="18"/>
      <point x="419" y="67" type="curve"/>
      <point x="442" y="24"/>
      <point x="458" y="-13"/>
      <point x="467" y="-43" type="curve"/>
    </contour>
  </outline>
</glyph>
<glyph name="uni0C08" format="1">
  <advance width="929"/>
  <unicode hex="0C08"/>
  <outline>
    <contour>
      <point x="466" y="189" type="line" name="hr00"/>
      <point x="433" y="126"/>
      <point x="382" y="94"/>
      <point x="314" y="94" type="curve" smooth="yes"/>
      <point x="279" y="94"/>
      <point x="246" y="106"/>
      <point x="216" y="129" type="curve" smooth="yes"/>
      <point x="186" y="152"/>
      <point x="173" y="172"/>
      <point x="176" y="189" type="curve"/>
    </contour>
    <contour>
      <point x="182" y="276" type="line"/>
      <point x="209" y="341"/>
      <point x="255" y="373"/>
      <point x="320" y="373" type="curve" smooth="yes"/>
      <point x="401" y="373"/>
      <point x="452" y="341"/>
      <point x="474" y="276" type="curve"/>
    </contour>
    <contour>
      <point x="809" y="148" type="curve"/>
      <point x="805" y="124"/>
      <point x="784" y="101"/>
      <point x="761" y="101" type="curve" smooth="yes"/>
      <point x="727" y="101"/>
      <point x="710" y="118"/>
      <point x="710" y="153" type="curve" smooth="yes"/>
      <point x="710" y="164"/>
      <point x="715" y="175"/>
      <point x="724" y="186" type="curve" smooth="yes"/>
      <point x="735" y="199"/>
      <point x="747" y="205"/>
      <point x="761" y="205" type="curve" smooth="yes"/>
      <point x="789" y="205"/>
      <point x="809" y="175"/>
    </contour>
    <contour>
      <point x="904" y="146" type="curve" smooth="yes"/>
      <point x="904" y="201"/>
      <point x="883" y="244"/>
      <point x="842" y="275" type="curve"/>
      <point x="859" y="307" type="line" smooth="yes"/>
      <point x="867" y="322"/>
      <point x="872" y="341"/>
      <point x="872" y="364" type="curve" smooth="yes"/>
      <point x="872" y="399"/>
      <point x="860" y="430"/>
      <point x="837" y="458" type="curve" smooth="yes"/>
      <point x="809" y="493"/>
      <point x="775" y="510"/>
      <point x="734" y="510" type="curve" smooth="yes"/>
      <point x="687" y="510"/>
      <point x="652" y="495"/>
      <point x="627" y="465" type="curve" smooth="yes"/>
      <point x="609" y="444"/>
      <point x="598" y="421"/>
      <point x="600" y="398" type="curve" smooth="yes"/>
      <point x="602" y="373" type="line"/>
      <point x="603" y="357" type="line"/>
      <point x="692" y="357" type="line"/>
      <point x="682" y="381" type="line"/>
      <point x="682" y="404"/>
      <point x="697" y="416"/>
      <point x="726" y="416" type="curve" smooth="yes"/>
      <point x="757" y="416"/>
      <point x="773" y="404"/>
      <point x="773" y="379" type="curve" smooth="yes"/>
      <point x="773" y="332"/>
      <point x="752" y="300"/>
      <point x="709" y="284" type="curve"/>
      <point x="566" y="284" type="line"/>
      <point x="535" y="389"/>
      <point x="482" y="447"/>
      <point x="408" y="458" type="curve"/>
      <point x="429" y="491"/>
      <point x="460" y="509"/>
      <point x="503" y="508" type="curve" smooth="yes"/>
      <point x="520" y="508"/>
      <point x="531" y="503"/>
      <point x="536" y="497" type="curve"/>
      <point x="536" y="600" type="line"/>
      <point x="529" y="605"/>
      <point x="520" y="608"/>
      <point x="509" y="608" type="curve" smooth="yes"/>
      <point x="499" y="608"/>
      <point x="485" y="605"/>
      <point x="468" y="599" type="curve" smooth="yes"/>
      <point x="451" y="594"/>
      <point x="441" y="591"/>
      <point x="440" y="590" type="curve" smooth="yes"/>
      <point x="411" y="577"/>
      <point x="391" y="565"/>
      <point x="378" y="554" type="curve"/>
      <point x="320" y="492" type="line" smooth="yes"/>
      <point x="299" y="469"/>
      <point x="278" y="457"/>
      <point x="257" y="458" type="curve" smooth="yes"/>
      <point x="244" y="458"/>
      <point x="231" y="463"/>
      <point x="217" y="470" type="curve"/>
      <point x="201" y="480"/>
      <point x="193" y="492"/>
      <point x="193" y="505" type="curve" smooth="yes"/>
      <point x="193" y="517"/>
      <point x="196" y="527"/>
      <point x="203" y="534" type="curve"/>
      <point x="82" y="534" type="line"/>
      <point x="82" y="493"/>
      <point x="92" y="462"/>
      <point x="111" y="439" type="curve"/>
      <point x="148" y="405" type="line"/>
      <point x="125" y="392"/>
      <point x="107" y="371"/>
      <point x="92" y="340" type="curve" smooth="yes"/>
      <point x="78" y="310"/>
      <point x="71" y="289"/>
      <point x="71" y="278" type="curve"/>
      <point x="18" y="278" type="line"/>
      <point x="18" y="188" type="line"/>
      <point x="62" y="188" type="line"/>
      <point x="75" y="132"/>
      <point x="97" y="86"/>
      <point x="132" y="53" type="curve" smooth="yes"/>
      <point x="175" y="11"/>
      <point x="232" y="-9"/>
      <point x="301" y="-9" type="curve" smooth="yes"/>
      <point x="370" y="-9"/>
      <point x="430" y="13"/>
      <point x="481" y="56" type="curve" smooth="yes"/>
      <point x="527" y="95"/>
      <point x="554" y="140"/>
      <point x="563" y="192" type="curve"/>
      <point x="630" y="192" type="line"/>
      <point x="625" y="176"/>
      <point x="623" y="161"/>
      <point x="623" y="148" type="curve" smooth="yes"/>
      <point x="623" y="109"/>
      <point x="634" y="75"/>
      <point x="658" y="49" type="curve" smooth="yes"/>
      <point x="684" y="20"/>
      <point x="716" y="7"/>
      <point x="750" y="7" type="curve" smooth="yes"/>
      <point x="786" y="7"/>
      <point x="821" y="21"/>
      <point x="854" y="48" type="curve" smooth="yes"/>
      <point x="887" y="75"/>
      <point x="904" y="108"/>
    </contour>
  </outline>
</glyph>
<glyph name="uni0C09" format="1">
  <advance width="657"/>
  <unicode hex="0C09"/>
  <outline>
    <contour>
      <point x="632" y="159" type="curve" smooth="yes" name="hr00"/>
      <point x="632" y="188"/>
      <point x="619" y="218"/>
      <point x="602" y="246" type="curve"/>
      <point x="577" y="278"/>
      <point x="550" y="292"/>
      <point x="519" y="294" type="curve" smooth="yes"/>
      <point x="492" y="296" type="line" smooth="yes"/>
      <point x="476" y="297"/>
      <point x="466" y="295"/>
      <point x="461" y="294" type="curve"/>
      <point x="461" y="209" type="line"/>
      <point x="519" y="206"/>
      <point x="538" y="180"/>
      <point x="537" y="152" type="curve" smooth="yes"/>
      <point x="536" y="113"/>
      <point x="512" y="84"/>
      <point x="479" y="84" type="curve" smooth="yes"/>
      <point x="437" y="84"/>
      <point x="416" y="100"/>
      <point x="416" y="131" type="curve" smooth="yes"/>
      <point x="416" y="156"/>
      <point x="418" y="171"/>
      <point x="423" y="174" type="curve"/>
      <point x="307" y="174" type="line"/>
      <point x="307" y="147"/>
      <point x="303" y="128"/>
      <point x="299" y="116" type="curve"/>
      <point x="289" y="97"/>
      <point x="270" y="88"/>
      <point x="243" y="88" type="curve" smooth="yes"/>
      <point x="220" y="88"/>
      <point x="203" y="99"/>
      <point x="190" y="121" type="curve" smooth="yes"/>
      <point x="178" y="143"/>
      <point x="172" y="164"/>
      <point x="172" y="184" type="curve"/>
      <point x="178" y="211" type="line"/>
      <point x="386" y="211" type="line"/>
      <point x="386" y="297" type="line"/>
      <point x="196" y="297" type="line"/>
      <point x="225" y="354"/>
      <point x="280" y="382"/>
      <point x="361" y="382" type="curve" smooth="yes"/>
      <point x="424" y="382"/>
      <point x="466" y="364"/>
      <point x="488" y="329" type="curve"/>
      <point x="583" y="329" type="line"/>
      <point x="579" y="357"/>
      <point x="563" y="384"/>
      <point x="534" y="410" type="curve" smooth="yes"/>
      <point x="494" y="445"/>
      <point x="442" y="463"/>
      <point x="378" y="463" type="curve"/>
      <point x="378" y="607" type="line"/>
      <point x="284" y="607" type="line"/>
      <point x="284" y="458" type="line"/>
      <point x="233" y="449"/>
      <point x="188" y="425"/>
      <point x="150" y="384" type="curve" smooth="yes"/>
      <point x="137" y="371"/>
      <point x="122" y="346"/>
      <point x="91" y="297" type="curve"/>
      <point x="18" y="297" type="line"/>
      <point x="18" y="211" type="line"/>
      <point x="75" y="211" type="line"/>
      <point x="75" y="184" type="line" smooth="yes"/>
      <point x="75" y="137"/>
      <point x="91" y="93"/>
      <point x="123" y="52" type="curve" smooth="yes"/>
      <point x="156" y="11"/>
      <point x="195" y="-9"/>
      <point x="240" y="-9" type="curve" smooth="yes"/>
      <point x="279" y="-9"/>
      <point x="306" y="-2"/>
      <point x="321" y="11" type="curve"/>
      <point x="351" y="48" type="line"/>
      <point x="369" y="11"/>
      <point x="404" y="-7"/>
      <point x="457" y="-7" type="curve" smooth="yes"/>
      <point x="508" y="-7"/>
      <point x="550" y="11"/>
      <point x="583" y="47" type="curve" smooth="yes"/>
      <point x="616" y="83"/>
      <point x="632" y="120"/>
    </contour>
  </outline>
</glyph>
<glyph name="uni0C0A" format="1">
  <advance width="956"/>
  <unicode hex="0C0A"/>
  <outline>
    <contour>
      <point x="845" y="175" type="curve" smooth="yes" name="hr00"/>
      <point x="845" y="142"/>
      <point x="829" y="125"/>
      <point x="796" y="126" type="curve" smooth="yes"/>
      <point x="773" y="126"/>
      <point x="750" y="149"/>
      <point x="750" y="181" type="curve" smooth="yes"/>
      <point x="750" y="212"/>
      <point x="767" y="227"/>
      <point x="801" y="227" type="curve"/>
      <point x="830" y="222"/>
      <point x="845" y="205"/>
    </contour>
    <contour>
      <point x="931" y="181" type="curve" smooth="yes"/>
      <point x="931" y="224"/>
      <point x="926" y="245"/>
      <point x="919" y="257" type="curve" smooth="yes"/>
      <point x="912" y="269"/>
      <point x="898" y="284"/>
      <point x="877" y="301" type="curve"/>
      <point x="898" y="332" type="line" smooth="yes"/>
      <point x="905" y="343"/>
      <point x="909" y="359"/>
      <point x="909" y="378" type="curve" smooth="yes"/>
      <point x="909" y="410"/>
      <point x="902" y="440"/>
      <point x="884" y="465" type="curve" smooth="yes"/>
      <point x="862" y="497"/>
      <point x="830" y="512"/>
      <point x="789" y="512" type="curve" smooth="yes"/>
      <point x="744" y="512"/>
      <point x="708" y="498"/>
      <point x="683" y="471" type="curve" smooth="yes"/>
      <point x="664" y="450"/>
      <point x="655" y="425"/>
      <point x="655" y="396" type="curve"/>
      <point x="657" y="375" type="line"/>
      <point x="742" y="375" type="line"/>
      <point x="740" y="385" type="line"/>
      <point x="740" y="413"/>
      <point x="763" y="437"/>
      <point x="787" y="437" type="curve" smooth="yes"/>
      <point x="810" y="437"/>
      <point x="835" y="408"/>
      <point x="835" y="385" type="curve" smooth="yes"/>
      <point x="835" y="368"/>
      <point x="825" y="351"/>
      <point x="806" y="334" type="curve" smooth="yes"/>
      <point x="787" y="317"/>
      <point x="761" y="308"/>
      <point x="726" y="308" type="curve" smooth="yes"/>
      <point x="219" y="308" type="line"/>
      <point x="234" y="361"/>
      <point x="294" y="401"/>
      <point x="375" y="401" type="curve" smooth="yes"/>
      <point x="422" y="401"/>
      <point x="457" y="385"/>
      <point x="479" y="354" type="curve"/>
      <point x="571" y="354" type="line"/>
      <point x="562" y="414"/>
      <point x="517" y="455"/>
      <point x="437" y="476" type="curve"/>
      <point x="437" y="605" type="line"/>
      <point x="349" y="605" type="line"/>
      <point x="349" y="480" type="line"/>
      <point x="326" y="479" type="line"/>
      <point x="307" y="477" type="line"/>
      <point x="307" y="606" type="line"/>
      <point x="219" y="606" type="line"/>
      <point x="219" y="449" type="line"/>
      <point x="178" y="426"/>
      <point x="149" y="398"/>
      <point x="129" y="364" type="curve" smooth="yes"/>
      <point x="116" y="341"/>
      <point x="108" y="322"/>
      <point x="108" y="308" type="curve"/>
      <point x="18" y="308" type="line"/>
      <point x="18" y="222" type="line"/>
      <point x="90" y="222" type="line"/>
      <point x="87" y="216"/>
      <point x="86" y="200"/>
      <point x="86" y="175" type="curve" smooth="yes"/>
      <point x="86" y="132"/>
      <point x="96" y="92"/>
      <point x="118" y="58" type="curve" smooth="yes"/>
      <point x="146" y="14"/>
      <point x="189" y="-7"/>
      <point x="245" y="-7" type="curve" smooth="yes"/>
      <point x="302" y="-7"/>
      <point x="339" y="13"/>
      <point x="356" y="53" type="curve"/>
      <point x="373" y="15"/>
      <point x="406" y="-4"/>
      <point x="457" y="-4" type="curve" smooth="yes"/>
      <point x="554" y="-4"/>
      <point x="620" y="51"/>
      <point x="620" y="143" type="curve" smooth="yes"/>
      <point x="620" y="166"/>
      <point x="619" y="173"/>
      <point x="614" y="194" type="curve"/>
      <point x="516" y="194" type="line"/>
      <point x="519" y="187"/>
      <point x="521" y="178"/>
      <point x="521" y="168" type="curve" smooth="yes"/>
      <point x="521" y="145"/>
      <point x="516" y="128"/>
      <point x="507" y="117" type="curve" smooth="yes"/>
      <point x="491" y="98"/>
      <point x="474" y="89"/>
      <point x="457" y="89" type="curve" smooth="yes"/>
      <point x="430" y="89"/>
      <point x="403" y="115"/>
      <point x="403" y="148" type="curve" smooth="yes"/>
      <point x="403" y="181" type="line"/>
      <point x="315" y="181" type="line"/>
      <point x="318" y="164" type="line"/>
      <point x="318" y="129"/>
      <point x="293" y="96"/>
      <point x="257" y="96" type="curve" smooth="yes"/>
      <point x="221" y="96"/>
      <point x="195" y="135"/>
      <point x="194" y="168" type="curve" smooth="yes"/>
      <point x="193" y="222" type="line"/>
      <point x="682" y="222" type="line"/>
      <point x="669" y="215"/>
      <point x="663" y="202"/>
      <point x="663" y="184" type="curve"/>
      <point x="658" y="145"/>
      <point x="666" y="111"/>
      <point x="688" y="83" type="curve" smooth="yes"/>
      <point x="710" y="56"/>
      <point x="740" y="42"/>
      <point x="778" y="42" type="curve" smooth="yes"/>
      <point x="803" y="42"/>
      <point x="827" y="48"/>
      <point x="848" y="59" type="curve" smooth="yes"/>
      <point x="861" y="66"/>
      <point x="873" y="74"/>
      <point x="884" y="85" type="curve" smooth="yes"/>
      <point x="915" y="113"/>
      <point x="931" y="145"/>
    </contour>
  </outline>
</glyph>
<glyph name="uni0C0B" format="1">
  <advance width="1151"/>
  <unicode hex="0C0B"/>
  <outline>
    <contour>
      <point x="520" y="47" type="line" name="hr00"/>
      <point x="549" y="11"/>
      <point x="592" y="-7"/>
      <point x="651" y="-7" type="curve" smooth="yes"/>
      <point x="703" y="-7"/>
      <point x="749" y="13"/>
      <point x="788" y="53" type="curve"/>
      <point x="792" y="47" type="line" smooth="yes"/>
      <point x="822" y="11"/>
      <point x="866" y="-7"/>
      <point x="924" y="-7" type="curve" smooth="yes"/>
      <point x="979" y="-7"/>
      <point x="1026" y="15"/>
      <point x="1066" y="59" type="curve" smooth="yes"/>
      <point x="1106" y="104"/>
      <point x="1126" y="156"/>
      <point x="1126" y="216" type="curve" smooth="yes"/>
      <point x="1126" y="283"/>
      <point x="1107" y="338"/>
      <point x="1071" y="382" type="curve" smooth="yes"/>
      <point x="1034" y="427"/>
      <point x="991" y="452"/>
      <point x="938" y="449" type="curve" smooth="yes"/>
      <point x="896" y="447" type="line"/>
      <point x="896" y="358" type="line"/>
      <point x="935" y="359" type="line" smooth="yes"/>
      <point x="968" y="360"/>
      <point x="993" y="343"/>
      <point x="1012" y="310" type="curve"/>
      <point x="1029" y="286"/>
      <point x="1037" y="258"/>
      <point x="1037" y="227" type="curve" smooth="yes"/>
      <point x="1037" y="195"/>
      <point x="1028" y="164"/>
      <point x="1010" y="135" type="curve" smooth="yes"/>
      <point x="992" y="106"/>
      <point x="970" y="91"/>
      <point x="943" y="91" type="curve" smooth="yes"/>
      <point x="910" y="91"/>
      <point x="884" y="108"/>
      <point x="871" y="144" type="curve" smooth="yes"/>
      <point x="851" y="201" type="line"/>
      <point x="851" y="216" type="line" smooth="yes"/>
      <point x="851" y="283"/>
      <point x="833" y="338"/>
      <point x="798" y="382" type="curve" smooth="yes"/>
      <point x="763" y="427"/>
      <point x="719" y="452"/>
      <point x="666" y="449" type="curve" smooth="yes"/>
      <point x="624" y="447" type="line"/>
      <point x="624" y="358" type="line"/>
      <point x="660" y="359" type="line" smooth="yes"/>
      <point x="693" y="360"/>
      <point x="720" y="343"/>
      <point x="740" y="310" type="curve" smooth="yes"/>
      <point x="755" y="285"/>
      <point x="763" y="258"/>
      <point x="763" y="227" type="curve" smooth="yes"/>
      <point x="763" y="194"/>
      <point x="754" y="164"/>
      <point x="737" y="137" type="curve" smooth="yes"/>
      <point x="718" y="106"/>
      <point x="696" y="91"/>
      <point x="669" y="91" type="curve" smooth="yes"/>
      <point x="636" y="91"/>
      <point x="609" y="108"/>
      <point x="597" y="144" type="curve" smooth="yes"/>
      <point x="578" y="201" type="line"/>
      <point x="578" y="216" type="line" smooth="yes"/>
      <point x="578" y="284"/>
      <point x="560" y="339"/>
      <point x="524" y="382" type="curve" smooth="yes"/>
      <point x="489" y="425"/>
      <point x="445" y="451"/>
      <point x="392" y="447" type="curve" smooth="yes"/>
      <point x="351" y="444" type="line"/>
      <point x="351" y="345" type="line"/>
      <point x="364" y="351"/>
      <point x="376" y="354"/>
      <point x="387" y="354" type="curve" smooth="yes"/>
      <point x="418" y="354"/>
      <point x="444" y="339"/>
      <point x="465" y="308" type="curve" smooth="yes"/>
      <point x="482" y="283"/>
      <point x="491" y="256"/>
      <point x="491" y="227" type="curve" smooth="yes"/>
      <point x="491" y="194"/>
      <point x="482" y="163"/>
      <point x="464" y="134" type="curve" smooth="yes"/>
      <point x="446" y="105"/>
      <point x="424" y="90"/>
      <point x="399" y="90" type="curve"/>
      <point x="385" y="92"/>
      <point x="372" y="97"/>
      <point x="359" y="105" type="curve" smooth="yes"/>
      <point x="342" y="116"/>
      <point x="333" y="130"/>
      <point x="333" y="148" type="curve" smooth="yes"/>
      <point x="333" y="171" type="line"/>
      <point x="234" y="171" type="line"/>
      <point x="235" y="164"/>
      <point x="236" y="158"/>
      <point x="236" y="154" type="curve" smooth="yes"/>
      <point x="236" y="143"/>
      <point x="236" y="136"/>
      <point x="235" y="131" type="curve" smooth="yes"/>
      <point x="228" y="103"/>
      <point x="209" y="89"/>
      <point x="178" y="89" type="curve" smooth="yes"/>
      <point x="142" y="89"/>
      <point x="120" y="112"/>
      <point x="120" y="137" type="curve" smooth="yes"/>
      <point x="120" y="162"/>
      <point x="135" y="182"/>
      <point x="165" y="195" type="curve" smooth="yes"/>
      <point x="249" y="232" type="line"/>
      <point x="279" y="253"/>
      <point x="294" y="283"/>
      <point x="294" y="322" type="curve" smooth="yes"/>
      <point x="294" y="398"/>
      <point x="243" y="447"/>
      <point x="167" y="447" type="curve" smooth="yes"/>
      <point x="68" y="447"/>
      <point x="18" y="398"/>
      <point x="18" y="300" type="curve"/>
      <point x="102" y="300" type="line"/>
      <point x="102" y="339"/>
      <point x="122" y="359"/>
      <point x="161" y="359" type="curve" smooth="yes"/>
      <point x="190" y="359"/>
      <point x="204" y="346"/>
      <point x="204" y="320" type="curve" smooth="yes"/>
      <point x="204" y="303"/>
      <point x="197" y="291"/>
      <point x="182" y="284" type="curve"/>
      <point x="134" y="270" type="line" smooth="yes"/>
      <point x="57" y="248"/>
      <point x="20" y="199"/>
      <point x="20" y="131" type="curve" smooth="yes"/>
      <point x="20" y="92"/>
      <point x="32" y="60"/>
      <point x="57" y="36" type="curve"/>
      <point x="81" y="8"/>
      <point x="116" y="-6"/>
      <point x="161" y="-6" type="curve" smooth="yes"/>
      <point x="209" y="-6"/>
      <point x="250" y="10"/>
      <point x="284" y="42" type="curve"/>
      <point x="304" y="21"/>
      <point x="315" y="10"/>
      <point x="318" y="9" type="curve" smooth="yes"/>
      <point x="332" y="0"/>
      <point x="348" y="-4"/>
      <point x="365" y="-4" type="curve" smooth="yes"/>
      <point x="425" y="-4"/>
      <point x="475" y="16"/>
      <point x="514" y="56" type="curve"/>
    </contour>
  </outline>
</glyph>
<glyph name="uni0C0C" format="1">
  <advance width="698"/>
  <unicode hex="0C0C"/>
  <outline>
    <contour>
      <point x="569" y="268" type="line" name="hr00"/>
      <point x="569" y="212" type="line" smooth="yes"/>
      <point x="569" y="187"/>
      <point x="561" y="163"/>
      <point x="546" y="138" type="curve" smooth="yes"/>
      <point x="525" y="103"/>
      <point x="493" y="85"/>
      <point x="449" y="85" type="curve" smooth="yes"/>
      <point x="409" y="85"/>
      <point x="383" y="99"/>
      <point x="371" y="128" type="curve" smooth="yes"/>
      <point x="365" y="141"/>
      <point x="362" y="162"/>
      <point x="362" y="189" type="curve" smooth="yes"/>
      <point x="362" y="218"/>
      <point x="393" y="247"/>
      <point x="441" y="259" type="curve" smooth="yes"/>
      <point x="513" y="276"/>
      <point x="549" y="324"/>
      <point x="549" y="406" type="curve" smooth="yes"/>
      <point x="549" y="449"/>
      <point x="533" y="485"/>
      <point x="500" y="512" type="curve" smooth="yes"/>
      <point x="471" y="536"/>
      <point x="438" y="548"/>
      <point x="400" y="548" type="curve" smooth="yes"/>
      <point x="370" y="548"/>
      <point x="343" y="541"/>
      <point x="320" y="528" type="curve" smooth="yes"/>
      <point x="301" y="517"/>
      <point x="292" y="504"/>
      <point x="291" y="491" type="curve"/>
      <point x="275" y="528"/>
      <point x="237" y="547"/>
      <point x="176" y="547" type="curve" smooth="yes"/>
      <point x="140" y="547"/>
      <point x="105" y="531"/>
      <point x="70" y="498" type="curve" smooth="yes"/>
      <point x="35" y="466"/>
      <point x="18" y="428"/>
      <point x="18" y="385" type="curve" smooth="yes"/>
      <point x="18" y="340"/>
      <point x="32" y="303"/>
      <point x="60" y="274" type="curve" smooth="yes"/>
      <point x="79" y="253"/>
      <point x="122" y="243"/>
      <point x="189" y="243" type="curve"/>
      <point x="189" y="341" type="line"/>
      <point x="182" y="338"/>
      <point x="170" y="336"/>
      <point x="155" y="336" type="curve" smooth="yes"/>
      <point x="126" y="336"/>
      <point x="111" y="353"/>
      <point x="111" y="387" type="curve" smooth="yes"/>
      <point x="111" y="404"/>
      <point x="117" y="421"/>
      <point x="128" y="437" type="curve"/>
      <point x="141" y="448"/>
      <point x="155" y="454"/>
      <point x="170" y="454" type="curve"/>
      <point x="199" y="451"/>
      <point x="224" y="426"/>
      <point x="225" y="410" type="curve" smooth="yes"/>
      <point x="227" y="359" type="line"/>
      <point x="320" y="359" type="line"/>
      <point x="320" y="392" type="line" smooth="yes"/>
      <point x="320" y="409"/>
      <point x="330" y="422"/>
      <point x="345" y="437" type="curve"/>
      <point x="362" y="449"/>
      <point x="379" y="455"/>
      <point x="396" y="455" type="curve" smooth="yes"/>
      <point x="431" y="455"/>
      <point x="449" y="436"/>
      <point x="449" y="398" type="curve" smooth="yes"/>
      <point x="449" y="363"/>
      <point x="427" y="341"/>
      <point x="384" y="329" type="curve" smooth="yes"/>
      <point x="306" y="307"/>
      <point x="267" y="262"/>
      <point x="267" y="195" type="curve" smooth="yes"/>
      <point x="267" y="136"/>
      <point x="277" y="92"/>
      <point x="294" y="63" type="curve" smooth="yes"/>
      <point x="322" y="16"/>
      <point x="374" y="-7"/>
      <point x="451" y="-7" type="curve" smooth="yes"/>
      <point x="526" y="-7"/>
      <point x="584" y="19"/>
      <point x="623" y="75" type="curve" smooth="yes"/>
      <point x="657" y="125"/>
      <point x="673" y="190"/>
      <point x="673" y="268" type="curve"/>
    </contour>
  </outline>
</glyph>
<glyph name="uni0C0E" format="1">
  <advance width="598"/>
  <unicode hex="0C0E"/>
  <outline>
    <contour>
      <point x="231" y="141" type="curve" smooth="yes" name="hr00"/>
      <point x="231" y="102"/>
      <point x="211" y="83"/>
      <point x="172" y="83" type="curve" smooth="yes"/>
      <point x="136" y="83"/>
      <point x="118" y="101"/>
      <point x="118" y="137" type="curve" smooth="yes"/>
      <point x="118" y="178"/>
      <point x="136" y="199"/>
      <point x="172" y="199" type="curve" smooth="yes"/>
      <point x="190" y="199"/>
      <point x="204" y="193"/>
      <point x="213" y="180" type="curve"/>
      <point x="225" y="169"/>
      <point x="231" y="156"/>
    </contour>
    <contour>
      <point x="573" y="218" type="curve" smooth="yes"/>
      <point x="573" y="277"/>
      <point x="556" y="330"/>
      <point x="520" y="375" type="curve" smooth="yes"/>
      <point x="479" y="426"/>
      <point x="425" y="450"/>
      <point x="361" y="450" type="curve" smooth="yes"/>
      <point x="346" y="450"/>
      <point x="328" y="447"/>
      <point x="305" y="442" type="curve"/>
      <point x="305" y="343" type="line"/>
      <point x="325" y="343"/>
      <point x="333" y="348"/>
      <point x="356" y="348" type="curve" smooth="yes"/>
      <point x="435" y="348"/>
      <point x="474" y="303"/>
      <point x="474" y="213" type="curve" smooth="yes"/>
      <point x="474" y="190"/>
      <point x="464" y="164"/>
      <point x="444" y="135" type="curve" smooth="yes"/>
      <point x="425" y="106"/>
      <point x="406" y="91"/>
      <point x="387" y="91" type="curve" smooth="yes"/>
      <point x="360" y="91"/>
      <point x="342" y="104"/>
      <point x="333" y="131" type="curve"/>
      <point x="333" y="174"/>
      <point x="320" y="210"/>
      <point x="294" y="241" type="curve" smooth="yes"/>
      <point x="269" y="272"/>
      <point x="236" y="287"/>
      <point x="197" y="287" type="curve" smooth="yes"/>
      <point x="142" y="287"/>
      <point x="97" y="271"/>
      <point x="62" y="236" type="curve" smooth="yes"/>
      <point x="32" y="206"/>
      <point x="18" y="173"/>
      <point x="18" y="137" type="curve" smooth="yes"/>
      <point x="18" y="98"/>
      <point x="30" y="65"/>
      <point x="53" y="38" type="curve" smooth="yes"/>
      <point x="78" y="7"/>
      <point x="112" y="-9"/>
      <point x="157" y="-9" type="curve" smooth="yes"/>
      <point x="212" y="-9"/>
      <point x="251" y="6"/>
      <point x="276" y="36" type="curve"/>
      <point x="299" y="9"/>
      <point x="332" y="-4"/>
      <point x="375" y="-4" type="curve" smooth="yes"/>
      <point x="425" y="-4"/>
      <point x="470" y="19"/>
      <point x="511" y="65" type="curve" smooth="yes"/>
      <point x="552" y="111"/>
      <point x="573" y="162"/>
    </contour>
  </outline>
</glyph>
<glyph name="uni0C0F" format="1">
  <advance width="603"/>
  <unicode hex="0C0F"/>
  <outline>
    <contour>
      <point x="236" y="141" type="curve" smooth="yes" name="hr00"/>
      <point x="236" y="103"/>
      <point x="217" y="84"/>
      <point x="178" y="84" type="curve" smooth="yes"/>
      <point x="142" y="84"/>
      <point x="124" y="102"/>
      <point x="124" y="137" type="curve" smooth="yes"/>
      <point x="124" y="178"/>
      <point x="143" y="199"/>
      <point x="180" y="199" type="curve" smooth="yes"/>
      <point x="197" y="199"/>
      <point x="210" y="193"/>
      <point x="219" y="180" type="curve"/>
      <point x="230" y="169"/>
      <point x="236" y="156"/>
    </contour>
    <contour>
      <point x="578" y="218" type="curve" smooth="yes"/>
      <point x="578" y="277"/>
      <point x="561" y="330"/>
      <point x="525" y="375" type="curve" smooth="yes"/>
      <point x="485" y="425"/>
      <point x="431" y="450"/>
      <point x="367" y="450" type="curve" smooth="yes"/>
      <point x="350" y="450"/>
      <point x="330" y="447"/>
      <point x="308" y="442" type="curve"/>
      <point x="308" y="343" type="line"/>
      <point x="339" y="347" type="line" smooth="yes"/>
      <point x="348" y="348"/>
      <point x="353" y="349"/>
      <point x="356" y="349" type="curve" smooth="yes"/>
      <point x="359" y="349"/>
      <point x="365" y="349"/>
      <point x="372" y="348" type="curve" smooth="yes"/>
      <point x="443" y="338"/>
      <point x="479" y="294"/>
      <point x="479" y="216" type="curve" smooth="yes"/>
      <point x="479" y="189"/>
      <point x="468" y="161"/>
      <point x="450" y="133" type="curve" smooth="yes"/>
      <point x="432" y="105"/>
      <point x="414" y="91"/>
      <point x="393" y="91" type="curve" smooth="yes"/>
      <point x="371" y="91"/>
      <point x="353" y="104"/>
      <point x="340" y="131" type="curve"/>
      <point x="340" y="174"/>
      <point x="327" y="210"/>
      <point x="300" y="241" type="curve" smooth="yes"/>
      <point x="274" y="272"/>
      <point x="242" y="287"/>
      <point x="203" y="287" type="curve" smooth="yes"/>
      <point x="148" y="287"/>
      <point x="103" y="270"/>
      <point x="70" y="236" type="curve" smooth="yes"/>
      <point x="40" y="206"/>
      <point x="25" y="173"/>
      <point x="25" y="137" type="curve" smooth="yes"/>
      <point x="25" y="96"/>
      <point x="35" y="63"/>
      <point x="57" y="37" type="curve" smooth="yes"/>
      <point x="83" y="6"/>
      <point x="120" y="-9"/>
      <point x="165" y="-9" type="curve" smooth="yes"/>
      <point x="232" y="-9"/>
      <point x="272" y="8"/>
      <point x="286" y="42" type="curve"/>
      <point x="308" y="11"/>
      <point x="340" y="-4"/>
      <point x="381" y="-4" type="curve" smooth="yes"/>
      <point x="430" y="-4"/>
      <point x="475" y="20"/>
      <point x="516" y="67" type="curve" smooth="yes"/>
      <point x="557" y="114"/>
      <point x="578" y="165"/>
    </contour>
    <contour>
      <point x="414" y="565" type="line"/>
      <point x="385" y="592"/>
      <point x="341" y="606"/>
      <point x="284" y="606" type="curve" smooth="yes"/>
      <point x="232" y="606"/>
      <point x="189" y="593"/>
      <point x="140" y="565" type="curve" smooth="yes"/>
      <point x="59" y="518"/>
      <point x="18" y="462"/>
      <point x="18" y="395" type="curve" smooth="yes"/>
      <point x="18" y="374"/>
      <point x="23" y="349"/>
      <point x="34" y="320" type="curve"/>
      <point x="152" y="320" type="line"/>
      <point x="134" y="338"/>
      <point x="125" y="360"/>
      <point x="125" y="387" type="curve" smooth="yes"/>
      <point x="125" y="418"/>
      <point x="136" y="445"/>
      <point x="159" y="470" type="curve"/>
      <point x="191" y="499"/>
      <point x="232" y="514"/>
      <point x="283" y="514" type="curve" smooth="yes"/>
      <point x="308" y="514"/>
      <point x="334" y="505"/>
      <point x="361" y="487" type="curve"/>
    </contour>
  </outline>
</glyph>
<glyph name="uni0C10" format="1">
  <advance width="581"/>
  <unicode hex="0C10"/>
  <outline>
    <contour>
      <point x="223" y="148" type="curve" smooth="yes" name="hr00"/>
      <point x="223" y="117"/>
      <point x="194" y="88"/>
      <point x="161" y="88" type="curve" smooth="yes"/>
      <point x="129" y="88"/>
      <point x="113" y="106"/>
      <point x="113" y="141" type="curve" smooth="yes"/>
      <point x="113" y="177"/>
      <point x="138" y="200"/>
      <point x="161" y="200" type="curve"/>
      <point x="193" y="196"/>
      <point x="223" y="175"/>
    </contour>
    <contour>
      <point x="556" y="252" type="curve" smooth="yes"/>
      <point x="556" y="302"/>
      <point x="543" y="350"/>
      <point x="518" y="396" type="curve" smooth="yes"/>
      <point x="480" y="463"/>
      <point x="428" y="496"/>
      <point x="361" y="496" type="curve" smooth="yes"/>
      <point x="341" y="496"/>
      <point x="325" y="491"/>
      <point x="312" y="481" type="curve" smooth="yes"/>
      <point x="284" y="460" type="line"/>
      <point x="245" y="485"/>
      <point x="207" y="498"/>
      <point x="172" y="498" type="curve" smooth="yes"/>
      <point x="118" y="498"/>
      <point x="79" y="475"/>
      <point x="53" y="433" type="curve" smooth="yes"/>
      <point x="30" y="396"/>
      <point x="27" y="381"/>
      <point x="28" y="350" type="curve" smooth="yes"/>
      <point x="29" y="327" type="line"/>
      <point x="132" y="327" type="line"/>
      <point x="120" y="363" type="line"/>
      <point x="120" y="385"/>
      <point x="137" y="396"/>
      <point x="170" y="396" type="curve" smooth="yes"/>
      <point x="205" y="396"/>
      <point x="227" y="368"/>
      <point x="227" y="329" type="curve"/>
      <point x="320" y="334" type="line"/>
      <point x="326" y="374" type="line"/>
      <point x="331" y="386"/>
      <point x="342" y="392"/>
      <point x="359" y="392" type="curve" smooth="yes"/>
      <point x="388" y="392"/>
      <point x="411" y="375"/>
      <point x="430" y="341" type="curve" smooth="yes"/>
      <point x="446" y="311"/>
      <point x="454" y="278"/>
      <point x="454" y="241" type="curve" smooth="yes"/>
      <point x="454" y="214"/>
      <point x="446" y="185"/>
      <point x="430" y="155" type="curve" smooth="yes"/>
      <point x="412" y="122"/>
      <point x="392" y="105"/>
      <point x="370" y="105" type="curve" smooth="yes"/>
      <point x="353" y="105"/>
      <point x="338" y="121"/>
      <point x="328" y="153" type="curve" smooth="yes"/>
      <point x="297" y="248"/>
      <point x="251" y="296"/>
      <point x="188" y="296" type="curve" smooth="yes"/>
      <point x="125" y="296"/>
      <point x="79" y="277"/>
      <point x="50" y="239" type="curve" smooth="yes"/>
      <point x="29" y="213"/>
      <point x="18" y="182"/>
      <point x="18" y="146" type="curve" smooth="yes"/>
      <point x="18" y="107"/>
      <point x="28" y="73"/>
      <point x="49" y="44" type="curve" smooth="yes"/>
      <point x="75" y="9"/>
      <point x="109" y="-9"/>
      <point x="152" y="-9" type="curve" smooth="yes"/>
      <point x="178" y="-9"/>
      <point x="201" y="-4"/>
      <point x="222" y="6" type="curve"/>
      <point x="260" y="33" type="line"/>
      <point x="289" y="8"/>
      <point x="321" y="-4"/>
      <point x="356" y="-4" type="curve" smooth="yes"/>
      <point x="399" y="-4"/>
      <point x="443" y="22"/>
      <point x="488" y="74" type="curve" smooth="yes"/>
      <point x="533" y="127"/>
      <point x="556" y="186"/>
    </contour>
  </outline>
</glyph>
<glyph name="uni0C13" format="1">
  <advance width="576"/>
  <unicode hex="0C13"/>
  <outline>
    <contour>
      <point x="551" y="154" type="curve" smooth="yes" name="hr00"/>
      <point x="551" y="199"/>
      <point x="537" y="236"/>
      <point x="509" y="265" type="curve" smooth="yes"/>
      <point x="490" y="284"/>
      <point x="448" y="294"/>
      <point x="381" y="294" type="curve"/>
      <point x="381" y="199" type="line"/>
      <point x="388" y="201"/>
      <point x="399" y="202"/>
      <point x="414" y="202" type="curve" smooth="yes"/>
      <point x="445" y="202"/>
      <point x="461" y="185"/>
      <point x="461" y="152" type="curve" smooth="yes"/>
      <point x="461" y="134"/>
      <point x="454" y="117"/>
      <point x="441" y="102" type="curve"/>
      <point x="429" y="91"/>
      <point x="415" y="85"/>
      <point x="400" y="85" type="curve"/>
      <point x="371" y="89"/>
      <point x="345" y="112"/>
      <point x="345" y="128" type="curve" smooth="yes"/>
      <point x="344" y="179" type="line"/>
      <point x="249" y="179" type="line"/>
      <point x="249" y="146" type="line"/>
      <point x="246" y="126"/>
      <point x="233" y="109"/>
      <point x="225" y="102" type="curve"/>
      <point x="207" y="90"/>
      <point x="191" y="84"/>
      <point x="176" y="84" type="curve" smooth="yes"/>
      <point x="140" y="84"/>
      <point x="122" y="103"/>
      <point x="122" y="141" type="curve" smooth="yes"/>
      <point x="122" y="175"/>
      <point x="143" y="198"/>
      <point x="185" y="210" type="curve" smooth="yes"/>
      <point x="262" y="231"/>
      <point x="301" y="276"/>
      <point x="301" y="343" type="curve" smooth="yes"/>
      <point x="301" y="390"/>
      <point x="284" y="424"/>
      <point x="251" y="447" type="curve" smooth="yes"/>
      <point x="239" y="456"/>
      <point x="216" y="465"/>
      <point x="182" y="474" type="curve"/>
      <point x="179" y="479"/>
      <point x="178" y="488"/>
      <point x="178" y="500" type="curve" smooth="yes"/>
      <point x="178" y="531"/>
      <point x="197" y="547"/>
      <point x="236" y="547" type="curve" smooth="yes"/>
      <point x="274" y="547"/>
      <point x="293" y="517"/>
      <point x="293" y="458" type="curve"/>
      <point x="400" y="458" type="line"/>
      <point x="400" y="496" type="line" smooth="yes"/>
      <point x="400" y="529"/>
      <point x="387" y="559"/>
      <point x="362" y="586" type="curve" smooth="yes"/>
      <point x="330" y="619"/>
      <point x="289" y="635"/>
      <point x="239" y="635" type="curve" smooth="yes"/>
      <point x="190" y="635"/>
      <point x="151" y="624"/>
      <point x="122" y="603" type="curve"/>
      <point x="94" y="578"/>
      <point x="80" y="547"/>
      <point x="80" y="508" type="curve" smooth="yes"/>
      <point x="80" y="487"/>
      <point x="84" y="470"/>
      <point x="93" y="458" type="curve"/>
      <point x="43" y="428"/>
      <point x="18" y="383"/>
      <point x="18" y="322" type="curve"/>
      <point x="127" y="322" type="line"/>
      <point x="124" y="336" type="line"/>
      <point x="124" y="355"/>
      <point x="146" y="384"/>
      <point x="170" y="384" type="curve"/>
      <point x="180" y="382"/>
      <point x="188" y="377"/>
      <point x="194" y="368" type="curve" smooth="yes"/>
      <point x="202" y="355"/>
      <point x="206" y="344"/>
      <point x="206" y="334" type="curve" smooth="yes"/>
      <point x="206" y="309"/>
      <point x="180" y="292"/>
      <point x="128" y="280" type="curve" smooth="yes"/>
      <point x="56" y="264"/>
      <point x="20" y="214"/>
      <point x="20" y="131" type="curve" smooth="yes"/>
      <point x="20" y="87"/>
      <point x="37" y="52"/>
      <point x="70" y="26" type="curve" smooth="yes"/>
      <point x="99" y="3"/>
      <point x="132" y="-9"/>
      <point x="170" y="-9" type="curve" smooth="yes"/>
      <point x="200" y="-9"/>
      <point x="226" y="-3"/>
      <point x="249" y="9" type="curve"/>
      <point x="268" y="22"/>
      <point x="278" y="35"/>
      <point x="280" y="48" type="curve"/>
      <point x="295" y="11"/>
      <point x="333" y="-7"/>
      <point x="396" y="-7" type="curve" smooth="yes"/>
      <point x="431" y="-7"/>
      <point x="465" y="8"/>
      <point x="497" y="38" type="curve" smooth="yes"/>
      <point x="533" y="72"/>
      <point x="551" y="111"/>
    </contour>
  </outline>
</glyph>
